<?xml version="1.0" encoding="UTF-8" standalone="no"?>
<!-- Created with Inkscape (http://www.inkscape.org/) -->

<svg
   width="240.0px"
   height="240.0px"
   viewBox="0 0 240.0 240.0"
   version="1.1"
   id="SVGRoot"
   sodipodi:docname="agile.svg"
   inkscape:version="1.2 (dc2aeda, 2022-05-15)"
   xmlns:inkscape="http://www.inkscape.org/namespaces/inkscape"
   xmlns:sodipodi="http://sodipodi.sourceforge.net/DTD/sodipodi-0.dtd"
   xmlns="http://www.w3.org/2000/svg"
   xmlns:svg="http://www.w3.org/2000/svg">
  <sodipodi:namedview
     id="namedview6214"
     pagecolor="#ffffff"
     bordercolor="#000000"
     borderopacity="0.25"
     inkscape:showpageshadow="2"
     inkscape:pageopacity="0.0"
     inkscape:pagecheckerboard="0"
     inkscape:deskcolor="#d1d1d1"
     inkscape:document-units="px"
     showgrid="true"
     inkscape:zoom="0.98333333"
     inkscape:cx="78.813559"
     inkscape:cy="196.77966"
     inkscape:window-width="1440"
     inkscape:window-height="761"
     inkscape:window-x="0"
     inkscape:window-y="25"
     inkscape:window-maximized="0"
     inkscape:current-layer="layer1">
    <inkscape:grid
       type="xygrid"
       id="grid6337" />
  </sodipodi:namedview>
  <defs
     id="defs6209" />
  <g
     inkscape:label="Layer 1"
     inkscape:groupmode="layer"
     id="layer1">
    <g
       id="g5771"
       transform="matrix(2.8946539,0,0,2.9019528,-49.257758,-548.19397)"
       style="stroke-width:1.30405">
      <path
         fill-rule="nonzero"
         fill="#979a9e"
         fill-opacity="1"
         d="m 35.539629,246.27373 c -3.520863,13.15752 5.174544,17.54243 6.501588,18.31413 4.484123,2.58796 10.361471,3.88332 16.23882,3.88332 5.873185,0 11.750533,-1.29536 16.234656,-3.88332 1.322917,-0.76481 9.988021,-5.14146 6.520886,-18.23558 0.910872,3.9536 -1.263686,8.09598 -6.520886,11.1318 -4.484123,2.58795 -10.361471,3.88331 -16.234656,3.88331 -5.877349,0 -11.754697,-1.29536 -16.23882,-3.88331 -5.294418,-3.05511 -7.463437,-7.23195 -6.501588,-11.21035"
         id="path1433"
         style="stroke-width:0.46004" />
      <path
         fill-rule="nonzero"
         fill="#dae1e6"
         fill-opacity="1"
         d="m 35.539629,246.27373 c -0.977018,3.97427 1.20717,8.15524 6.501588,11.21035 4.484123,2.58795 10.361471,3.88331 16.23882,3.88331 5.873185,0 11.750533,-1.29536 16.234656,-3.88331 5.2572,-3.03582 7.496528,-7.19474 6.520886,-11.1318 -0.04964,-0.20257 -0.107492,-0.41478 -0.170886,-0.62149 -0.771701,-2.56866 -2.918671,-5.01193 -6.35,-6.99355 -1.233346,-0.71382 -2.572808,-1.32705 -3.985295,-1.84105 1.750131,3.81992 3.640772,7.6109 3.68487,12.4423 0.01235,1.74047 -0.938424,3.34588 -2.44602,4.21542 -3.414783,1.97198 -7.253993,2.98621 -11.109748,2.98621 -2.492869,0 -4.991241,-0.42444 -7.390412,-1.28984 -4.831398,-1.74736 -7.996732,-3.64354 -10.249853,-6.01927 -1.956787,-2.06293 -2.468068,-5.07394 -1.473094,-7.73769 0.341736,-0.91364 0.55947,-1.86724 0.679344,-2.85943 -0.05923,0.0345 -0.122625,0.0689 -0.183268,0.10335 -3.429917,1.98438 -5.547995,4.43315 -6.354127,6.99355 -0.0035,0.0152 -0.0056,0.0248 -0.0081,0.0372 -0.04826,0.17225 -0.09924,0.34175 -0.139206,0.50573"
         id="path1435"
         style="stroke-width:0.46004" />
      <path
         fill-rule="nonzero"
         fill="#ffffff"
         fill-opacity="1"
         d="m 35.678835,245.768 c -0.05376,0.16812 -0.101988,0.33762 -0.140582,0.50573 0.04135,-0.16398 0.08957,-0.33486 0.140582,-0.50573"
         id="path1437"
         style="stroke-width:0.46004" />
      <path
         fill-rule="nonzero"
         fill="#979a9e"
         fill-opacity="1"
         d="m 38.891018,210.71346 c -0.02187,0.47405 -0.03175,0.96049 -0.03175,1.46072 0,3.76618 0.588398,7.40007 1.277443,10.85067 -0.591185,-4.62882 -0.50299,-8.49422 0.08128,-11.62788 z m 0,0"
         id="path1439"
         style="stroke-width:0.46004" />
      <path
         fill-rule="nonzero"
         fill="#979a9e"
         fill-opacity="1"
         d="m 38.891018,210.71346 1.327044,0.68351 c 0.199813,-1.06247 0.450638,-2.03812 0.753815,-2.93247 l -1.71704,-1.22921 c -0.186055,1.07074 -0.310056,2.22691 -0.363819,3.47817"
         id="path1441"
         style="stroke-width:0.46004" />
      <path
         fill-rule="nonzero"
         fill="#979a9e"
         fill-opacity="1"
         d="m 39.254837,207.23529 1.71704,1.22921 c 0.307305,-0.90675 0.666962,-1.73219 1.067964,-2.47082 l -1.998168,-1.85208 c -0.322439,0.93569 -0.59115,1.96508 -0.786836,3.09369"
         id="path1443"
         style="stroke-width:0.46004" />
      <path
         fill-rule="nonzero"
         fill="#dae1e6"
         fill-opacity="1"
         d="m 61.999337,212.71988 c -0.5195,-0.29903 -0.938424,-1.02663 -0.938424,-1.62608 0,-0.59807 0.418924,-0.84061 0.938424,-0.54019 0.520912,0.29628 0.941212,1.02664 0.941212,1.62333 0,0.60082 -0.4203,0.84336 -0.941212,0.54294 m 7.405582,21.6228 0.0194,0.01 c 1.225091,0.62426 2.331649,0.66973 3.150199,0.19568 0.777205,-0.44924 1.292613,-1.35599 1.390439,-2.6348 0.03722,-0.51815 0.01235,-1.06661 -0.07578,-1.61782 -0.05239,-0.32246 -0.06064,-0.62976 -0.01658,-0.89435 l 0.0071,-0.0358 c 0,0 0,-0.008 0.0035,-0.0124 0.11437,-0.66973 -0.103329,-1.55443 -0.57464,-2.34129 -2.140091,-3.58565 -5.036714,-7.91821 -7.485486,-11.46666 -0.347274,-0.77307 -0.615985,-1.52548 -0.808919,-2.29994 -0.253577,-1.01424 -0.781332,-2.04363 -1.456584,-2.91317 -1.475881,-1.89618 -2.604488,-3.12815 -3.296285,-3.83646 -0.457482,-0.46716 -0.72898,-1.16858 -0.647665,-1.68121 l 0.16122,-1.03215 c 0,0 -4.875495,-2.10702 -3.264571,-8.09184 -0.589773,-0.0165 -1.107933,0.11576 -1.557161,0.36656 l -0.04134,0.0221 c -0.6725,0.3886 -1.19754,1.04179 -1.601294,1.85484 -0.490573,0.97565 -0.808919,2.17592 -1.018363,3.40926 -0.261832,-0.0827 -0.523664,-0.15571 -0.785495,-0.21359 -0.800629,-0.17915 -1.598507,-0.24667 -2.382626,-0.19293 -0.739987,0.0482 -1.466215,0.20395 -2.167643,0.46578 -0.66421,0.24667 -1.304996,0.59256 -1.912726,1.0349 -0.580143,0.42306 -1.129982,0.93707 -1.642604,1.54341 -0.491984,0.58429 -0.94809,1.25539 -1.358759,2.01331 -0.402378,0.73863 -0.762035,1.56408 -1.06934,2.47082 -0.303177,0.89435 -0.554002,1.87 -0.753815,2.93247 -0.584271,3.13366 -0.672465,6.99768 -0.08128,11.62789 1.168576,5.81945 2.634791,11.1125 2.087703,15.60903 -0.119873,0.99219 -0.337608,1.94579 -0.679344,2.85943 -0.994974,2.66375 -0.483693,5.67476 1.473094,7.73769 2.253121,2.37574 5.418455,4.27192 10.249853,6.01927 2.399171,0.86541 4.897543,1.28984 7.390412,1.28984 3.855755,0 7.694965,-1.01423 11.109748,-2.98621 1.507596,-0.86954 2.458438,-2.47358 2.44602,-4.21542 -0.0441,-4.8314 -1.933364,-8.62238 -3.68487,-12.4423 -0.391372,-0.84749 -0.770325,-1.69361 -1.124479,-2.55351"
         id="path1445"
         style="stroke-width:0.46004" />
      <path
         fill-rule="nonzero"
         fill="#979a9e"
         fill-opacity="1"
         d="m 40.041673,204.1416 1.998168,1.85208 c 0.410669,-0.7593 0.866775,-1.42903 1.360135,-2.01331 l -2.138715,-2.48323 c -0.464397,0.77722 -0.875065,1.6564 -1.219588,2.64446"
         id="path1447"
         style="stroke-width:0.46004" />
      <path
         fill-rule="nonzero"
         fill="#979a9e"
         fill-opacity="1"
         d="m 41.261261,201.49714 2.138715,2.48323 c 0.512622,-0.60634 1.062461,-1.12035 1.64398,-1.54341 l -2.127673,-3.06613 c -0.603603,0.59669 -1.158946,1.30087 -1.655022,2.12631"
         id="path1449"
         style="stroke-width:0.46004" />
      <path
         fill-rule="nonzero"
         fill="#979a9e"
         fill-opacity="1"
         d="m 42.916283,199.37083 2.126297,3.06613 c 0.60773,-0.44235 1.248516,-0.78823 1.912726,-1.0349 l -1.966454,-3.55396 c -0.02752,0.0124 -0.05239,0.0275 -0.08132,0.04 l -0.21082,0.12127 c -0.629779,0.36242 -1.223716,0.81442 -1.780434,1.3615"
         id="path1451"
         style="stroke-width:0.46004" />
      <path
         fill-rule="nonzero"
         fill="#c2c7cc"
         fill-opacity="1"
         d="m 44.907537,197.88944 c 0.02893,-0.0138 0.05376,-0.0289 0.08132,-0.0413 0.784084,-0.41479 1.6123,-0.68902 2.46253,-0.83096 0.913659,-0.15572 1.852083,-0.16123 2.793294,-0.0262 1.029406,0.14883 2.062939,0.46854 3.064757,0.94258 0.403754,-0.81304 0.928793,-1.46623 1.601294,-1.85484 l 3.760646,-2.17178 c -2.607239,-0.96601 -5.352274,-0.87781 -7.681171,0.46853 z m 0,0"
         id="path1453"
         style="stroke-width:0.46004" />
      <path
         fill-rule="nonzero"
         fill="#979a9e"
         fill-opacity="1"
         d="m 44.988852,197.8481 1.966454,3.55396 c 0.701428,-0.26183 1.427656,-0.41755 2.167643,-0.46578 l -1.671567,-3.91914 c -0.85023,0.14194 -1.678446,0.41617 -2.46253,0.83096"
         id="path1455"
         style="stroke-width:0.46004" />
      <path
         fill-rule="nonzero"
         fill="#979a9e"
         fill-opacity="1"
         d="m 47.451382,197.01714 1.671567,3.91914 c 0.784119,-0.0537 1.583372,0.01 2.38125,0.19292 l -1.259523,-4.13824 c -0.941211,-0.13505 -1.879635,-0.12954 -2.793294,0.0262"
         id="path1457"
         style="stroke-width:0.46004" />
      <path
         fill-rule="nonzero"
         fill="#979a9e"
         fill-opacity="1"
         d="m 50.244676,196.99096 1.259523,4.13824 c 0.263207,0.0565 0.525039,0.13092 0.788246,0.2136 0.208069,-1.23334 0.527791,-2.43362 1.016988,-3.40926 -1.001818,-0.47405 -2.035351,-0.79375 -3.064757,-0.94258"
         id="path1459"
         style="stroke-width:0.46004" />
      <path
         fill-rule="nonzero"
         fill="#ffffff"
         fill-opacity="1"
         d="m 58.671373,193.90691 -3.719301,2.14974 c 0.449228,-0.25081 0.967388,-0.3831 1.557161,-0.36656 l 6.294896,-3.63389 c -0.610482,-0.0193 -1.141024,0.12265 -1.598542,0.38861 z m 0,0"
         id="path1461"
         style="stroke-width:0.46004" />
      <path
         fill-rule="nonzero"
         fill="#979a9e"
         fill-opacity="1"
         d="m 73.882163,229.35281 c -0.0035,0.004 -0.0035,0.0138 -0.0035,0.0138 l -0.0071,0.0345 c -0.0441,0.26458 -0.03584,0.5705 0.01658,0.89434 0.08819,0.55259 0.112995,1.09968 0.07578,1.61782 -0.09924,1.27882 -0.613234,2.18557 -1.390439,2.63481 l 6.293485,-3.63389 c 0.77724,-0.44786 1.292613,-1.35599 1.390438,-2.63205 0.03859,-0.5209 0.0095,-1.06798 -0.07853,-1.62058 -0.05098,-0.32246 -0.06064,-0.62976 -0.01235,-0.89434 l 0.0056,-0.0345 c 0.12125,-0.67386 -0.09786,-1.56131 -0.571888,-2.35506 -2.138715,-3.58566 -5.039501,-7.91821 -7.485521,-11.46666 -0.347274,-0.77308 -0.615985,-1.52549 -0.808919,-2.29995 -0.252166,-1.01423 -0.779956,-2.04363 -1.456584,-2.91317 -1.478633,-1.89618 -2.603112,-3.12815 -3.294874,-3.83508 -0.458893,-0.46853 -0.730356,-1.16995 -0.650452,-1.6812 l 0.164007,-1.03353 c 0,0 -4.879622,-2.10702 -3.26457,-8.09184 l -6.293521,3.63388 c -1.6123,5.98344 3.263195,8.09184 3.263195,8.09184 l -0.16122,1.03353 c -0.08132,0.51125 0.190183,1.21267 0.647665,1.67983 0.693173,0.70831 1.820404,1.94028 3.296285,3.83646 0.675252,0.86816 1.204419,1.89893 1.456584,2.91317 0.192934,0.77446 0.460269,1.52687 0.80892,2.29995 2.448771,3.54845 5.34677,7.881 7.485485,11.46665 0.4699,0.78686 0.68901,1.67156 0.57464,2.34129"
         id="path1463"
         style="stroke-width:0.46004" />
      <path
         fill-rule="nonzero"
         fill="#3a3a3a"
         fill-opacity="1"
         d="m 61.059537,211.0938 c 0,0.59945 0.4203,1.32705 0.938425,1.62608 0.522287,0.30042 0.942587,0.0579 0.942587,-0.54294 0,-0.59669 -0.4203,-1.32705 -0.942587,-1.62471 -0.518125,-0.29904 -0.938425,-0.0565 -0.938425,0.54157"
         id="path1465"
         style="stroke-width:0.46004" />
      <path
         fill-rule="nonzero"
         fill="#ffffff"
         fill-opacity="1"
         d="m 80.864693,245.73079 c 0.06064,0.20808 0.117122,0.4203 0.170886,0.62149 -0.04685,-0.21084 -0.10474,-0.41616 -0.170886,-0.62149"
         id="path1467"
         style="stroke-width:0.46004" />
      <path
         fill="none"
         stroke-width="1.38011"
         stroke-linecap="round"
         stroke-linejoin="round"
         stroke="#3a3a3a"
         stroke-opacity="1"
         stroke-miterlimit="10"
         d="m 70.529403,236.89619 c 1.412489,0.514 2.75332,1.12723 3.985286,1.84105 3.431315,1.98162 5.536957,4.43729 6.351378,6.99355 0.06477,0.20533 0.122645,0.41065 0.169498,0.62149 0.898481,3.95635 -1.26366,8.09598 -6.520876,11.1318 -4.484136,2.58795 -10.361469,3.88331 -16.234668,3.88331 -5.877332,0 -11.754665,-1.29536 -16.238801,-3.88331 -5.295801,-3.05511 -7.434515,-7.22506 -6.502963,-11.21034 0.03996,-0.16675 0.08682,-0.33762 0.14056,-0.50574"
         id="path1469" />
      <path
         fill="none"
         stroke-width="1.38011"
         stroke-linecap="round"
         stroke-linejoin="round"
         stroke="#3a3a3a"
         stroke-opacity="1"
         stroke-miterlimit="10"
         d="m 42.224498,238.63389 c -0.05926,0.0344 -0.122645,0.0689 -0.183279,0.10335 -3.429937,1.983 -5.547981,4.43315 -6.354133,6.99355 -0.0028,0.0152 -0.0055,0.0248 -0.0096,0.0372 -0.04685,0.17226 -0.09646,0.34176 -0.137804,0.50574 -3.412023,13.18507 5.174533,17.54243 6.501584,18.31413 4.484136,2.58796 10.361469,3.88331 16.238801,3.88331 5.873199,0 11.750532,-1.29535 16.234668,-3.88331 1.322917,-0.76481 9.992155,-5.14284 6.520874,-18.23558 -0.05374,-0.20257 -0.110243,-0.41341 -0.170875,-0.62149"
         id="path1471" />
      <path
         fill="none"
         stroke-width="1.38011"
         stroke-linecap="round"
         stroke-linejoin="round"
         stroke="#3a3a3a"
         stroke-opacity="1"
         stroke-miterlimit="10"
         d="m 73.889059,229.35969 -0.0069,-0.007"
         id="path1473" />
      <path
         fill="none"
         stroke-width="1.38011"
         stroke-linecap="round"
         stroke-linejoin="round"
         stroke="#3a3a3a"
         stroke-opacity="1"
         stroke-miterlimit="10"
         d="m 45.043965,202.43696 c -0.581532,0.42306 -1.131369,0.93707 -1.643999,1.54341 -0.493338,0.58429 -0.948091,1.25539 -1.360124,2.01331 -0.399631,0.73863 -0.760677,1.56407 -1.066601,2.47082 -0.303169,0.89435 -0.55535,1.87 -0.755165,2.93247 -0.585667,3.13366 -0.672483,6.99905 -0.08131,11.62788 0.0028,0.0124 0.0028,0.0276 0.0055,0.04"
         id="path1475" />
      <path
         fill="none"
         stroke-width="1.38011"
         stroke-linecap="round"
         stroke-linejoin="round"
         stroke="#3a3a3a"
         stroke-opacity="1"
         stroke-miterlimit="10"
         d="m 54.910718,196.0787 c -0.672483,0.3886 -1.196137,1.04317 -1.60128,1.85484 -0.489204,0.97703 -0.808909,2.17592 -1.018371,3.40926 -0.261827,-0.0827 -0.523654,-0.15434 -0.785481,-0.21359 -0.800641,-0.17777 -1.599903,-0.24392 -2.382628,-0.19293 -0.740007,0.0496 -1.466233,0.20395 -2.167654,0.46578 -0.664215,0.24667 -1.305003,0.59256 -1.912717,1.03491"
         id="path1477" />
      <path
         fill="none"
         stroke-width="1.38011"
         stroke-linecap="round"
         stroke-linejoin="round"
         stroke="#3a3a3a"
         stroke-opacity="1"
         stroke-miterlimit="10"
         d="m 54.311271,210.13882 c -5.886979,-3.39687 -7.539247,8.31646 1.273308,13.40417 2.268251,1.31052 4.663281,0.21084 8.09184,2.87872 0.464398,0.35967 0.837847,0.96601 1.001833,1.56959 0.697288,2.60036 2.553505,5.23655 4.726671,6.35138 0.0069,0.003 0.0124,0.006 0.01929,0.01 1.225075,0.62425 2.33164,0.66973 3.150195,0.19568 0.777213,-0.44924 1.2926,-1.35599 1.39044,-2.6348 0.03721,-0.51815 0.0124,-1.06523 -0.07579,-1.61782 -0.05237,-0.32384 -0.06063,-0.62976 -0.01653,-0.89435 l 0.0069,-0.0358 c 0,0 0,-0.008 0.0028,-0.0124 0.114377,-0.66973 -0.103353,-1.55443 -0.574642,-2.34129 -2.140093,-3.58565 -5.036729,-7.9182 -7.485504,-11.46665 -0.347265,-0.77446 -0.615982,-1.52549 -0.808908,-2.29995 -0.253559,-1.01423 -0.781347,-2.04501 -1.456586,-2.91317 -1.475879,-1.89618 -2.604492,-3.12815 -3.296268,-3.83646 -0.457508,-0.46716 -0.728982,-1.16858 -0.647677,-1.67983 l 0.16123,-1.03353 c 0,0 -4.875499,-2.1084 -3.264572,-8.09184 -0.589798,-0.0165 -1.10794,0.11576 -1.557181,0.36656"
         id="path1479" />
      <path
         fill="none"
         stroke-width="1.38011"
         stroke-linecap="round"
         stroke-linejoin="round"
         stroke="#3a3a3a"
         stroke-opacity="1"
         stroke-miterlimit="10"
         d="m 61.059524,211.0938 c 0,-0.59807 0.420302,-0.84061 0.938445,-0.54157 0.522276,0.29765 0.942578,1.02801 0.942578,1.62471 0,0.60082 -0.420302,0.84335 -0.942578,0.54294 -0.518143,-0.29903 -0.938445,-1.02664 -0.938445,-1.62608 z m 0,0"
         id="path1481" />
      <path
         fill="none"
         stroke-width="1.38011"
         stroke-linecap="round"
         stroke-linejoin="round"
         stroke="#3a3a3a"
         stroke-opacity="1"
         stroke-miterlimit="10"
         d="M 51.505585,201.12921 50.24468,196.99096"
         id="path1483" />
      <path
         fill="none"
         stroke-width="1.38011"
         stroke-linecap="round"
         stroke-linejoin="round"
         stroke="#3a3a3a"
         stroke-opacity="1"
         stroke-miterlimit="10"
         d="m 49.122958,200.93628 -1.671561,-3.91914"
         id="path1485" />
      <path
         fill="none"
         stroke-width="1.38011"
         stroke-linecap="round"
         stroke-linejoin="round"
         stroke="#3a3a3a"
         stroke-opacity="1"
         stroke-miterlimit="10"
         d="M 46.955304,201.40206 44.990221,197.8481"
         id="path1487" />
      <path
         fill="none"
         stroke-width="1.38011"
         stroke-linecap="round"
         stroke-linejoin="round"
         stroke="#3a3a3a"
         stroke-opacity="1"
         stroke-miterlimit="10"
         d="m 45.043965,202.43696 -2.126313,-3.06613"
         id="path1489" />
      <path
         fill="none"
         stroke-width="1.38011"
         stroke-linecap="round"
         stroke-linejoin="round"
         stroke="#3a3a3a"
         stroke-opacity="1"
         stroke-miterlimit="10"
         d="M 43.399965,203.98037 41.26125,201.49714"
         id="path1491" />
      <path
         fill="none"
         stroke-width="1.38011"
         stroke-linecap="round"
         stroke-linejoin="round"
         stroke="#3a3a3a"
         stroke-opacity="1"
         stroke-miterlimit="10"
         d="M 42.041219,205.99368 40.041686,204.1416"
         id="path1493" />
      <path
         fill="none"
         stroke-width="1.38011"
         stroke-linecap="round"
         stroke-linejoin="round"
         stroke="#3a3a3a"
         stroke-opacity="1"
         stroke-miterlimit="10"
         d="m 40.971862,208.4645 -1.717035,-1.22921"
         id="path1495" />
      <path
         fill="none"
         stroke-width="1.38011"
         stroke-linecap="round"
         stroke-linejoin="round"
         stroke="#3a3a3a"
         stroke-opacity="1"
         stroke-miterlimit="10"
         d="m 40.218075,211.39697 -1.32705,-0.68351"
         id="path1497" />
      <path
         fill="none"
         stroke-width="1.38011"
         stroke-linecap="round"
         stroke-linejoin="round"
         stroke="#3a3a3a"
         stroke-opacity="1"
         stroke-miterlimit="10"
         d="m 44.907539,197.88944 c 0.02894,-0.0138 0.05374,-0.0289 0.0813,-0.0413 0.784104,-0.41479 1.612305,-0.68764 2.462555,-0.83096 0.913639,-0.15434 1.852083,-0.16123 2.793283,-0.0262 1.029394,0.14883 2.062923,0.46853 3.064757,0.94258"
         id="path1499" />
      <path
         fill="none"
         stroke-width="1.38011"
         stroke-linecap="round"
         stroke-linejoin="round"
         stroke="#3a3a3a"
         stroke-opacity="1"
         stroke-miterlimit="10"
         d="m 69.404923,234.34268 c 0.354156,0.8599 0.734495,1.70463 1.12448,2.5535 1.758376,3.81579 3.640776,7.61091 3.684874,12.44231 0.0124,1.74184 -0.938444,3.34588 -2.446018,4.21542 -3.414779,1.97197 -7.253993,2.98621 -11.109744,2.98621 -2.492871,0 -4.991254,-0.42444 -7.390418,-1.28985 -4.831402,-1.74735 -7.996756,-3.64353 -10.249848,-6.01927 -1.956814,-2.06292 -2.468067,-5.07393 -1.473123,-7.73768 0.341753,-0.91364 0.559483,-1.86724 0.679373,-2.85943 0.545703,-4.49654 -0.921908,-9.7882 -2.087728,-15.60904 -0.691775,-3.45061 -1.277442,-7.08449 -1.277442,-10.85067 0,-0.49885 0.01103,-0.98668 0.03169,-1.46072 0.0565,-1.25126 0.177767,-2.40743 0.363802,-3.47817 0.195681,-1.12861 0.463021,-2.15801 0.78686,-3.09369 0.343131,-0.98944 0.753787,-1.86862 1.219564,-2.64446 0.494715,-0.82544 1.051443,-1.531 1.655023,-2.12631 0.55535,-0.54708 1.150662,-0.99908 1.780426,-1.36151"
         id="path1501" />
      <path
         fill="none"
         stroke-width="1.38011"
         stroke-linecap="round"
         stroke-linejoin="round"
         stroke="#3a3a3a"
         stroke-opacity="1"
         stroke-miterlimit="10"
         d="m 72.574411,234.54801 6.293501,-3.63389 c 0.777213,-0.44924 1.2926,-1.35599 1.39044,-2.63205 0.03858,-0.5209 0.0096,-1.06798 -0.07855,-1.62057 -0.05099,-0.32246 -0.06063,-0.62839 -0.0124,-0.89435 l 0.0055,-0.0344 c 0.121268,-0.67386 -0.09784,-1.56132 -0.571886,-2.35507 -2.138715,-3.58565 -5.039485,-7.9182 -7.485503,-11.46665 -0.347266,-0.77308 -0.615983,-1.52549 -0.808908,-2.29995 -0.252181,-1.01423 -0.77997,-2.04363 -1.456587,-2.91317 -1.478635,-1.89618 -2.603114,-3.12815 -3.294889,-3.83646 -0.458887,-0.46715 -0.73036,-1.16858 -0.650434,-1.67983 l 0.163986,-1.03353 c 0,0 -4.879633,-2.10839 -3.264572,-8.09184 -0.610471,-0.0193 -1.141015,0.12265 -1.598524,0.38861 l -6.293501,3.63389"
         id="path1503" />
      <path
         fill="none"
         stroke-width="1.38011"
         stroke-linecap="round"
         stroke-linejoin="round"
         stroke="#3a3a3a"
         stroke-opacity="1"
         stroke-miterlimit="10"
         d="m 58.671384,193.90691 c -2.607248,-0.96601 -5.3523,-0.87781 -7.681185,0.46853 l -6.2935,3.63389"
         id="path1505" />
      <path
         fill="none"
         stroke-width="1.38011"
         stroke-linecap="round"
         stroke-linejoin="round"
         stroke="#3a3a3a"
         stroke-opacity="1"
         stroke-miterlimit="10"
         d="m 62.80412,192.0562 -6.294878,3.63389"
         id="path1507" />
    </g>
  </g>
</svg>
