<svg width="132" height="114" viewBox="0 0 132 114" fill="none" xmlns="http://www.w3.org/2000/svg">
<path d="M47.5304 22.7034C47.5304 27.4948 43.6353 31.3813 38.8277 31.3813C34.0201 31.3813 30.125 27.4948 30.125 22.7034C30.125 17.9119 34.0201 14.0254 38.8277 14.0254C43.6353 14.0254 47.5304 17.9119 47.5304 22.7034Z" fill="black" stroke="black"/>
<path d="M77.0734 63.2795C77.0734 68.071 73.1783 71.9575 68.3707 71.9575C63.563 71.9575 59.668 68.071 59.668 63.2795C59.668 58.4881 63.563 54.6016 68.3707 54.6016C73.1783 54.6016 77.0734 58.4881 77.0734 63.2795Z" fill="black" stroke="black"/>
<path d="M91.1205 28.0171C91.1205 31.4746 88.3097 34.2798 84.8395 34.2798C81.3694 34.2798 78.5586 31.4746 78.5586 28.0171C78.5586 24.5596 81.3694 21.7544 84.8395 21.7544C88.3097 21.7544 91.1205 24.5596 91.1205 28.0171Z" fill="black" stroke="black"/>
<path d="M99.3549 91.78C99.3549 94.704 96.9778 97.0766 94.0427 97.0766C91.1076 97.0766 88.7305 94.704 88.7305 91.78C88.7305 88.856 91.1076 86.4834 94.0427 86.4834C96.9778 86.4834 99.3549 88.856 99.3549 91.78Z" fill="#EEFF05" stroke="black"/>
<path d="M11.2026 61.3474C11.2026 64.2714 8.8255 66.644 5.89036 66.644C2.95522 66.644 0.578125 64.2714 0.578125 61.3474C0.578125 58.4234 2.95522 56.0508 5.89036 56.0508C8.8255 56.0508 11.2026 58.4234 11.2026 61.3474Z" fill="black" stroke="black"/>
<path d="M131.323 96.6103C131.323 100.868 127.862 104.322 123.589 104.322C119.317 104.322 115.855 100.868 115.855 96.6103C115.855 92.3524 119.317 88.8984 123.589 88.8984C127.862 88.8984 131.323 92.3524 131.323 96.6103Z" fill="black" stroke="black"/>
<path d="M43.6556 76.8053C43.6556 80.5296 40.6279 83.5511 36.8903 83.5511C33.1527 83.5511 30.125 80.5296 30.125 76.8053C30.125 73.081 33.1527 70.0596 36.8903 70.0596C40.6279 70.0596 43.6556 73.081 43.6556 76.8053Z" fill="black" stroke="black"/>
<path d="M42.6866 49.7542C42.6866 51.8778 40.9601 53.6017 38.8274 53.6017C36.6948 53.6017 34.9683 51.8778 34.9683 49.7542C34.9683 47.6306 36.6948 45.9067 38.8274 45.9067C40.9601 45.9067 42.6866 47.6306 42.6866 49.7542Z" fill="#EEFF05" stroke="black"/>
<path d="M101.294 61.3475C101.294 63.4711 99.567 65.1949 97.4344 65.1949C95.3017 65.1949 93.5752 63.4711 93.5752 61.3475C93.5752 59.2238 95.3017 57.5 97.4344 57.5C99.567 57.5 101.294 59.2238 101.294 61.3475Z" fill="#EEFF05" stroke="black"/>
<path d="M102.746 82.8434C102.746 83.2329 102.429 83.551 102.035 83.551C101.641 83.551 101.324 83.2329 101.324 82.8434C101.324 82.4538 101.641 82.1357 102.035 82.1357C102.429 82.1357 102.746 82.4538 102.746 82.8434Z" fill="#EEFF05" stroke="black"/>
<path d="M1.99989 50.962C1.99989 51.3516 1.68289 51.6696 1.28901 51.6696C0.895128 51.6696 0.578125 51.3516 0.578125 50.962C0.578125 50.5725 0.895128 50.2544 1.28901 50.2544C1.68289 50.2544 1.99989 50.5725 1.99989 50.962Z" fill="#EEFF05" stroke="black"/>
<path d="M62.5428 43.4747C62.5428 44.2644 61.9005 44.9069 61.1054 44.9069C60.3103 44.9069 59.668 44.2644 59.668 43.4747C59.668 42.685 60.3103 42.0425 61.1054 42.0425C61.9005 42.0425 62.5428 42.685 62.5428 43.4747Z" fill="#EEFF05" stroke="black"/>
<path d="M105.652 35.7457C105.652 36.5354 105.01 37.1779 104.215 37.1779C103.42 37.1779 102.777 36.5354 102.777 35.7457C102.777 34.956 103.42 34.3135 104.215 34.3135C105.01 34.3135 105.652 34.956 105.652 35.7457Z" fill="#EEFF05" stroke="black"/>
<path d="M60.6091 93.2289C60.6091 94.5522 59.5331 95.6272 58.203 95.6272C56.8729 95.6272 55.7969 94.5522 55.7969 93.2289C55.7969 91.9056 56.8729 90.8306 58.203 90.8306C59.5331 90.8306 60.6091 91.9056 60.6091 93.2289Z" fill="#EEFF05" stroke="black"/>
<path d="M33.484 101.924C33.484 104.047 31.7574 105.771 29.6248 105.771C27.4922 105.771 25.7656 104.047 25.7656 101.924C25.7656 99.8 27.4922 98.0762 29.6248 98.0762C31.7574 98.0762 33.484 99.8 33.484 101.924Z" fill="#EEFF05" stroke="black"/>
<path d="M110.012 13.5252C110.012 15.6488 108.286 17.3726 106.153 17.3726C104.02 17.3726 102.294 15.6488 102.294 13.5252C102.294 11.4016 104.02 9.67773 106.153 9.67773C108.286 9.67773 110.012 11.4016 110.012 13.5252Z" fill="#EEFF05" stroke="black"/>
<mask id="path-17-inside-1" fill="white">
<ellipse rx="0.968706" ry="0.966102" transform="matrix(1 0 0 -1 105.183 42.5085)"/>
</mask>
<ellipse rx="0.968706" ry="0.966102" transform="matrix(1 0 0 -1 105.183 42.5085)" fill="black"/>
<path d="M105.152 42.5085C105.152 42.5117 105.153 42.5173 105.155 42.5229C105.157 42.5279 105.16 42.5312 105.162 42.5334C105.164 42.5356 105.167 42.5379 105.171 42.5397C105.176 42.5418 105.181 42.5424 105.183 42.5424V40.5424C106.268 40.5424 107.152 41.4201 107.152 42.5085H105.152ZM105.183 42.5424C105.185 42.5424 105.19 42.5418 105.195 42.5397C105.199 42.5379 105.202 42.5356 105.204 42.5334C105.206 42.5312 105.209 42.5279 105.211 42.5229C105.213 42.5173 105.214 42.5117 105.214 42.5085H103.214C103.214 41.4201 104.098 40.5424 105.183 40.5424V42.5424ZM105.214 42.5085C105.214 42.5053 105.213 42.4998 105.211 42.4941C105.209 42.4892 105.206 42.4858 105.204 42.4836C105.202 42.4814 105.199 42.4791 105.195 42.4773C105.19 42.4752 105.185 42.4746 105.183 42.4746V44.4746C104.098 44.4746 103.214 43.5969 103.214 42.5085H105.214ZM105.183 42.4746C105.181 42.4746 105.176 42.4752 105.171 42.4773C105.167 42.4791 105.164 42.4814 105.162 42.4836C105.16 42.4858 105.157 42.4892 105.155 42.4941C105.153 42.4998 105.152 42.5053 105.152 42.5085H107.152C107.152 43.5969 106.268 44.4746 105.183 44.4746V42.4746Z" fill="black" mask="url(#path-17-inside-1)"/>
<mask id="path-19-inside-2" fill="white">
<ellipse rx="0.968706" ry="0.966102" transform="matrix(1 0 0 -1 63.0429 10.1442)"/>
</mask>
<ellipse rx="0.968706" ry="0.966102" transform="matrix(1 0 0 -1 63.0429 10.1442)" fill="#EEFF05"/>
<path d="M63.0116 10.1442C63.0116 10.1475 63.0125 10.153 63.0149 10.1586C63.017 10.1636 63.0195 10.167 63.0217 10.1692C63.024 10.1714 63.027 10.1736 63.0313 10.1754C63.0363 10.1775 63.0408 10.1781 63.0429 10.1781V8.17815C64.1277 8.17815 65.0116 9.05587 65.0116 10.1442H63.0116ZM63.0429 10.1781C63.045 10.1781 63.0496 10.1775 63.0545 10.1754C63.0588 10.1736 63.0619 10.1714 63.0641 10.1692C63.0663 10.167 63.0689 10.1636 63.071 10.1586C63.0734 10.153 63.0742 10.1475 63.0742 10.1442H61.0742C61.0742 9.05587 61.9582 8.17815 63.0429 8.17815V10.1781ZM63.0742 10.1442C63.0742 10.141 63.0734 10.1355 63.071 10.1299C63.0689 10.1249 63.0663 10.1215 63.0641 10.1193C63.0619 10.1171 63.0588 10.1149 63.0545 10.1131C63.0496 10.111 63.045 10.1104 63.0429 10.1104V12.1104C61.9582 12.1104 61.0742 11.2326 61.0742 10.1442H63.0742ZM63.0429 10.1104C63.0408 10.1104 63.0363 10.111 63.0313 10.1131C63.027 10.1149 63.024 10.1171 63.0217 10.1193C63.0195 10.1215 63.017 10.1249 63.0149 10.1299C63.0125 10.1355 63.0116 10.141 63.0116 10.1442H65.0116C65.0116 11.2326 64.1277 12.1104 63.0429 12.1104V10.1104Z" fill="black" mask="url(#path-19-inside-2)"/>
<path d="M22.343 37.6776C22.343 39.0009 21.267 40.0759 19.9369 40.0759C18.6067 40.0759 17.5308 39.0009 17.5308 37.6776C17.5308 36.3543 18.6067 35.2793 19.9369 35.2793C21.267 35.2793 22.343 36.3543 22.343 37.6776Z" fill="#EEFF05" stroke="black"/>
<line y1="-0.5" x2="29.9378" y2="-0.5" transform="matrix(-0.986897 -0.161351 0.1622 -0.986758 123.59 96.6104)" stroke="black"/>
<line y1="-0.5" x2="30.6205" y2="-0.5" transform="matrix(0.110726 -0.993851 0.993916 0.110138 94.0425 91.7798)" stroke="black"/>
<line y1="-0.5" x2="29.1253" y2="-0.5" transform="matrix(-0.997797 0.066341 -0.0666975 -0.997773 97.4346 61.3477)" stroke="black"/>
<line y1="-0.5" x2="22.8296" y2="-0.5" transform="matrix(0.848639 0.528973 -0.531025 0.847356 19.4531 37.6777)" stroke="black"/>
<line x1="38.3276" y1="49.7544" x2="38.3276" y2="22.7035" stroke="black"/>
<line y1="-0.5" x2="45.8382" y2="-0.5" transform="matrix(0.993259 0.11592 -0.116537 0.993186 39.3125 22.7036)" stroke="black"/>
<line y1="-0.5" x2="28.4734" y2="-0.5" transform="matrix(-0.850537 0.525915 -0.527964 -0.849266 85.3242 28.5)" stroke="black"/>
<line y1="-0.5" x2="35.8714" y2="-0.5" transform="matrix(-0.999184 0.0403986 -0.0406163 -0.999175 94.0425 91.7798)" stroke="black"/>
<line y1="-0.5" x2="11.975" y2="-0.5" transform="matrix(0.6876 -0.72609 0.727935 0.685646 94.0425 91.7798)" stroke="black"/>
<line y1="-0.5" x2="27.0616" y2="-0.5" transform="matrix(0.894908 -0.446251 0.448177 0.893945 38.8276 22.2202)" stroke="black"/>
</svg>
