<?xml version="1.0" encoding="UTF-8"?>
<svg width="100pt" height="100pt" version="1.1" viewBox="0 0 100 100" xmlns="http://www.w3.org/2000/svg">
 <path d="m24.211 66.598c0.035156-0.046875 0.078124-0.085937 0.125-0.12109l13.785-10.293-5.2227-4.8672-21.816 17.914 27.812 25.922c0.023438-0.023438 0.046875-0.042969 0.074219-0.0625l32.523-24.285c0.24219-0.16406 0.20312-0.25 0.12109-0.31641l-43.371-40.422c-0.26953-0.25-0.28516-0.67188-0.035157-0.94141 0.027344-0.03125 0.058594-0.058594 0.09375-0.082031l14.91-11.387c0.27344-0.20703 0.64844-0.17188 0.88281 0.066406l14.449 13.102c0.27344 0.24609 0.29297 0.66406 0.046875 0.9375-0.023438 0.023437-0.046875 0.046875-0.070313 0.066406l-7.7031 6.3242 5.4102 4.5039 15.59-11.641-27.934-26.059-32.309 24.668 43.133 40.199c0.097657 0.089843 0.82812 0.75 0.86719 0.80078 0.21875 0.29688 0.16016 0.71094-0.13672 0.93359l-14.602 10.898c-0.14063 0.10547-0.3125 0.14844-0.47656 0.12891-0.19141 0.027343-0.39062-0.03125-0.54688-0.17188l-15.367-14.324c-0.082031-0.078125-0.14453-0.17188-0.17578-0.27344-0.25391-0.09375-0.4375-0.33984-0.4375-0.625 0-0.26172 0.15234-0.48828 0.37109-0.59766zm14.898-9.4883-12.617 9.4219h14.617c0.023437 0 0.042969 0 0.0625 0.003906l4.4688-3.3359-6.5312-6.0859zm33.969-25.363-15.797 11.793 6.9414 5.7812 23.535-17.57h-14.684zm-27.457-26.988 27.5 25.656h14.961l-27.5-25.656zm-35.477 24.293 33.348-25.461c0.11719-0.10156 0.27344-0.16406 0.44141-0.16406h16.91c0.16016 0 0.32422 0.058594 0.45312 0.17969l28.828 26.895c0.41016 0.37109 0.375 0.89844-0.054688 1.1836l-24.789 18.508 24.184 20.133c0.17578 0.12109 0.28906 0.32031 0.28906 0.55078 0 0.23828-0.125 0.44922-0.3125 0.56641l-33.375 24.742c-0.11328 0.21484-0.33594 0.35938-0.58984 0.35938h-16.547c-0.21875 0.066406-0.46484 0.019531-0.64844-0.14844l-28.465-26.531c-0.27344-0.26172-0.36719-1.1172 0.11328-1.4023l21.988-18.059c-7.2422-6.75-14.477-13.727-21.82-20.336-0.027344-0.023437-0.050781-0.054687-0.074218-0.082031-0.22266-0.29297-0.16797-0.71094 0.125-0.93359zm43.852 41.93-7.3633-6.8633-4.3633 3.2578 7.3633 6.8633zm19.25-0.78906c0.007812 0.007813 0.011718 0.011719 0.019531 0.019532h13.984l-47.766-39.766h-8.8828l42.648 39.746zm-31.43-49.793-11.41 8.7148h9.0859l8.1367-6.3945-4.043-3.668-1.7656 1.3477zm15.266 10.898-8.457-7.6719-7.6758 6.0352c-0.09375 0.058594-0.097657 0.20312-0.007813 0.27344l8.8398 7.3594 7.3047-5.9961zm-16.238 36.566h-14.688l14.242 13.273 8.1562-6.0898-7.707-7.1836zm32.035 3.6211-31.852 23.73h14.141c0.03125-0.03125 0.0625-0.0625 0.097656-0.089844l31.809-23.578-14.191-0.0625z"/>
</svg>
