<?xml version="1.0" encoding="UTF-8"?>
<svg width="100pt" height="100pt" version="1.1" viewBox="0 0 100 100" xmlns="http://www.w3.org/2000/svg">
 <path d="m87.395 69.141-29.688-51.562c-0.13672-0.24219-0.39453-0.39062-0.67578-0.39062h-14.062c-0.28125 0-0.53906 0.14844-0.67578 0.39062l-29.688 51.562c-0.14062 0.23828-0.14062 0.53516-0.003907 0.77344l7.0312 12.5c0.13672 0.24609 0.39844 0.39844 0.67969 0.39844h59.375c0.28125 0 0.54297-0.15234 0.67969-0.39844l7.0312-12.5c0.13672-0.23828 0.13672-0.53516-0.003907-0.77344zm-43.973-50.391h12.262l-21.207 37.113c-0.13672 0.24219-0.13672 0.53906 0.003907 0.77734 0.14062 0.24219 0.39844 0.39062 0.67578 0.39062h14.398l6.8945 11.719h-41.816zm-28.805 51.562h43.195c0.28125 0 0.53906-0.14844 0.67969-0.39453 0.13672-0.24219 0.13672-0.54297-0.007813-0.78125l-7.5781-12.887 6.8906-11.711 20.559 36.711h-57.586zm65.07 10.121-21.191-37.848c-0.13672-0.24219-0.39453-0.39453-0.67578-0.39844-0.27734 0.007812-0.53125 0.15234-0.67969 0.38672l-7.5859 12.895h-13.051l20.531-35.93 28.785 49.996z"/>
</svg>
