<?xml version="1.0" encoding="UTF-8"?>
<svg width="100pt" height="100pt" version="1.1" viewBox="0 0 100 100" xmlns="http://www.w3.org/2000/svg">
 <g>
  <path d="m98.676 10.207h-0.027343l-80.68-1.457c-0.73047-0.011719-1.3086-0.61719-1.2969-1.3438 0.011719-0.73047 0.63281-1.3477 1.3438-1.2969l80.684 1.457c0.73047 0.011719 1.3086 0.61719 1.2969 1.3438-0.011719 0.72266-0.60156 1.2969-1.3203 1.2969z"/>
  <path d="m82 26.602h-0.023438l-79.465-1.4336c-0.73047-0.011719-1.3125-0.61719-1.2969-1.3438 0.011718-0.73047 0.59766-1.3086 1.3438-1.2969l79.465 1.4297c0.73047 0.011719 1.3086 0.61719 1.2969 1.3438-0.015624 0.72266-0.60547 1.3008-1.3203 1.3008z"/>
  <path d="m1.3203 92.578h-0.023437c-0.73047-0.015625-1.3086-0.61719-1.2969-1.3477l1.2266-67.973c0.011719-0.73047 0.58594-1.3477 1.3438-1.2969 0.73047 0.011718 1.3086 0.61719 1.2969 1.3438l-1.2266 67.973c-0.011719 0.72266-0.60156 1.3008-1.3203 1.3008z"/>
  <path d="m97.465 77.613h-0.023438c-0.73047-0.011719-1.3086-0.61328-1.2969-1.3438l1.2148-67.336c0.011719-0.73047 0.53516-1.3047 1.3438-1.2969 0.73047 0.011719 1.3086 0.61719 1.2969 1.3438l-1.2148 67.336c-0.011718 0.72266-0.60156 1.2969-1.3203 1.2969z"/>
  <path d="m16.777 76.164h-0.023438c-0.73047-0.015624-1.3086-0.61719-1.2969-1.3477l0.62109-34.469c0.011719-0.73047 0.62109-1.375 1.3438-1.2969 0.73047 0.011719 1.3086 0.61719 1.2969 1.3438l-0.62109 34.469c-0.015625 0.72266-0.60156 1.3008-1.3203 1.3008z"/>
  <path d="m66.555 42.582h-0.019532l-49.16-0.88672c-0.73047-0.011718-1.3086-0.61719-1.2969-1.3438 0.011719-0.73047 0.62109-1.375 1.3438-1.2969l49.16 0.88672c0.72656 0.011719 1.3086 0.61719 1.2969 1.3438-0.015625 0.71875-0.60547 1.2969-1.3242 1.2969z"/>
  <path d="m81.406 59.535h-0.023438l-47.621-0.85547c-0.73047-0.011719-1.3086-0.61328-1.2969-1.3398 0.011718-0.73438 0.57031-1.3047 1.3438-1.3008l47.621 0.85547c0.73047 0.015625 1.3086 0.61719 1.2969 1.3477-0.011718 0.72266-0.60156 1.293-1.3203 1.293z"/>
  <path d="m97.465 77.613h-0.023438l-80.688-1.4492c-0.73047-0.015624-1.3086-0.61719-1.2969-1.3477 0.011719-0.72656 0.63672-1.3555 1.3438-1.2969l80.688 1.4492c0.73047 0.011719 1.3086 0.61328 1.2969 1.3438-0.011718 0.72656-0.60156 1.3008-1.3203 1.3008z"/>
  <path d="m81.332 94.02h-0.027343l-80.008-1.4414c-0.73047-0.015625-1.3086-0.61719-1.2969-1.3477 0.011719-0.72656 0.60156-1.3125 1.3438-1.2969l80.012 1.4414c0.73438 0.011719 1.3086 0.61328 1.3008 1.3438-0.015625 0.72266-0.60547 1.3008-1.3242 1.3008z"/>
  <path d="m18.309 76.188c-0.3125 0-0.625-0.10938-0.875-0.33203-0.54688-0.48047-0.59766-1.3164-0.11328-1.8633l15.152-17.141 0.28906-16.199c0.011719-0.73047 0.63281-1.3125 1.3438-1.2969 0.73047 0.011719 1.3086 0.61719 1.2969 1.3438l-0.30078 16.691c-0.007812 0.3125-0.125 0.61328-0.33203 0.85156l-15.473 17.5c-0.25781 0.29297-0.62109 0.44531-0.98828 0.44531z"/>
  <path d="m81.406 59.535h-0.027344c-0.72656-0.011718-1.3086-0.61328-1.2969-1.3438l0.30078-16.688c0.011719-0.72266 0.60156-1.2969 1.3203-1.2969h0.023437c0.73047 0.011719 1.3086 0.61719 1.2969 1.3438l-0.30078 16.688c-0.007812 0.72656-0.59766 1.2969-1.3164 1.2969z"/>
  <path d="m81.707 42.852h-0.023437c-0.73047-0.011718-1.3086-0.61719-1.2969-1.3438l0.29297-16.25c0.011718-0.73047 0.64062-1.2891 1.3438-1.2969 0.73047 0.011718 1.3086 0.61719 1.2969 1.3438l-0.29297 16.25c-0.011719 0.71875-0.60156 1.2969-1.3203 1.2969z"/>
  <path d="m66.555 42.582c-0.33203 0-0.66016-0.125-0.91797-0.37109-0.51953-0.50781-0.53516-1.3438-0.03125-1.8672l15.445-15.98c0.50391-0.51953 1.3398-0.53516 1.8672-0.03125 0.52344 0.50781 0.53516 1.3438 0.03125 1.8672l-15.445 15.98c-0.25781 0.26562-0.60547 0.40234-0.94922 0.40234z"/>
  <path d="m2.5469 24.602c-0.33203 0-0.66016-0.125-0.91797-0.37109-0.52344-0.50781-0.53906-1.3438-0.03125-1.8672l15.445-15.98c0.50781-0.51953 1.3438-0.53516 1.8672-0.03125 0.52344 0.50781 0.53906 1.3438 0.03125 1.8672l-15.445 15.98c-0.26172 0.26562-0.60547 0.40234-0.94922 0.40234z"/>
  <path d="m81.332 94.02c-0.33594 0-0.67188-0.125-0.92969-0.37891-0.51953-0.51172-0.52734-1.3477-0.015625-1.8672l16.129-16.402c0.50781-0.51953 1.3477-0.52734 1.8672-0.015625 0.51953 0.51172 0.52734 1.3477 0.015626 1.8672l-16.125 16.398c-0.25781 0.26562-0.59766 0.39844-0.94141 0.39844z"/>
  <path d="m66.254 59.27h-0.023437c-0.73047-0.011719-1.3086-0.61328-1.2969-1.3438l0.28516-16.145c0.011719-0.73047 0.60547-1.3555 1.3438-1.2969 0.73047 0.011719 1.3086 0.61719 1.2969 1.3438l-0.28516 16.145c-0.011719 0.71875-0.60156 1.2969-1.3203 1.2969z"/>
 </g>
</svg>
