<?xml version="1.0" encoding="UTF-8"?>
<svg width="100pt" height="100pt" version="1.1" viewBox="0 0 100 100" xmlns="http://www.w3.org/2000/svg">
 <path d="m82.418 30.965-32.031-18.359c-0.23828-0.14062-0.53516-0.14062-0.77344 0l-32.031 18.359c-0.24609 0.13672-0.39453 0.39453-0.39453 0.67578v36.719c0 0.28125 0.14844 0.53906 0.39453 0.67578l32.031 18.359c0.23828 0.14062 0.53516 0.14062 0.77344 0l32.031-18.359c0.24609-0.13672 0.39453-0.39453 0.39453-0.67578v-36.719c0-0.28125-0.14844-0.53906-0.39453-0.67578zm-32.418-16.785 30.461 17.461-25.012 14.336-3.8828-2.2266 19.953-11.434c0.24219-0.13672 0.39453-0.39453 0.39453-0.67578s-0.15234-0.53906-0.39453-0.67578l-21.133-12.113c-0.23828-0.14062-0.53516-0.14062-0.77344 0l-21.133 12.113c-0.24219 0.13672-0.39453 0.39453-0.39453 0.67578s0.15234 0.53906 0.39453 0.67578l48.289 27.68c0.24219 0.13672 0.53906 0.13672 0.77734 0 0.24219-0.14062 0.39062-0.39844 0.39062-0.67578v-18.641c0-0.27734-0.14844-0.53516-0.39062-0.67578-0.23828-0.13672-0.53516-0.13672-0.77734 0l-15.871 9.0977-3.8789-2.2227 24.23-13.891v34.023l-61.711-35.371zm15.68 19.684-14.898-8.5391v-4.4492l18.781 10.766zm-16.461-8.5391-14.902 8.5391-3.8789-2.2227 18.781-10.766zm0.78125 1.3516 14.109 8.0898-14.113 8.0859-14.109-8.0859zm26.375 15.355v15.941l-3.7656-2.1602v-11.625zm-5.3281 12.887-8.5781-4.918 8.5781-4.918zm-21.047 30.902-30.461-17.461 25.012-14.336 3.8789 2.2266-19.949 11.434c-0.24219 0.13672-0.39453 0.39453-0.39453 0.67578s0.15234 0.53906 0.39453 0.67578l21.133 12.113c0.23828 0.14062 0.53516 0.14062 0.77344 0l21.133-12.113c0.24609-0.13672 0.39453-0.39844 0.39453-0.67969 0-0.27734-0.15234-0.53906-0.39844-0.67578l-48.285-27.676c-0.24219-0.13672-0.53906-0.13672-0.77734 0-0.24219 0.14062-0.39062 0.39844-0.39062 0.67578v18.641c0 0.42969 0.34766 0.77734 0.78125 0.78125 0.13672 0 0.26953-0.039062 0.38672-0.10547l15.871-9.0977 3.8789 2.2266-24.23 13.887v-34.023l61.711 35.371zm-0.14062-28.586 14.207 8.0273-14.066 8.0625-14.109-8.0898zm-15.539 8.9062 14.898 8.5352v4.4492l-18.781-10.766zm16.461 8.5352 14.867-8.5195 3.9062 2.207-18.773 10.762zm-23.391-18.863-3.7656 2.1602v-15.941l3.7656 2.1602zm1.5625-10.727 8.5781 4.9141-8.5781 4.918z"/>
</svg>
