<?xml version="1.0" encoding="UTF-8"?>
<svg width="100pt" height="100pt" version="1.1" viewBox="0 0 100 100" xmlns="http://www.w3.org/2000/svg">
 <path d="m78.754 28.355-7.3516-7.1094c-0.1875-0.17969-0.4375-0.28125-0.69531-0.28125h-41.637c-0.26562 0-0.51953 0.10547-0.70703 0.29297l-7.1289 7.1094c-0.1875 0.1875-0.29297 0.44141-0.29297 0.70703v41.602c0 0.26562 0.10547 0.51953 0.29297 0.70703l7.3594 7.3594c0.1875 0.1875 0.44141 0.29297 0.70703 0.29297h41.406c0.26562 0 0.51953-0.10547 0.70703-0.29297l7.3555-7.3594c0.1875-0.1875 0.29297-0.44141 0.29297-0.70703l-0.003906-41.602c0-0.26953-0.10938-0.53125-0.30469-0.71875zm-3.168-0.28125h-18.594c-0.55078 0-1 0.44922-1 1v34.438l-4.9922 4.8125v-39.25c0-0.55078-0.44922-1-1-1h-14.027c-0.55078 0-1 0.44922-1 1v33.863h-4.9062l0.003906-39.973h40.234zm-38.613 8.8984h4.9062v25.965h-4.9062zm5.5-2h-5.5v-4.8984h10.555zm14.926 29.961h5.332v4.7422h-10.254zm0.59375-2v-25.961h4.7344v25.965zm-29.922-38.559v39.562c0 0.55078 0.44922 1 1 1h12.809v4.7422l-18.938-0.003907v-40.188zm-3.7148 47.301h18.523c0.55078 0 1-0.44531 1-1v-34.281l5.1211-4.957v39.238c0 0.55469 0.44922 1 1 1h13.727c0.55078 0 1-0.44531 1-1v-33.703h4.9766v40.066l-39.988-0.003906zm47.352 3.9453v-39.648c0-0.55078-0.44922-1-1-1h-12.715v-4.8984h19.066v40.188z"/>
</svg>
