<?xml version="1.0" encoding="UTF-8"?>
<svg width="100pt" height="100pt" version="1.1" viewBox="0 0 100 100" xmlns="http://www.w3.org/2000/svg">
 <path d="m87.18 41.07-36.719-26.855c-0.27344-0.20312-0.64844-0.20312-0.92188-0.003906l-36.719 26.855v0.003906c-0.27344 0.19922-0.38672 0.55078-0.28125 0.87109l14.023 43.453c0.10547 0.32422 0.40625 0.54297 0.74219 0.54297h45.391c0.33594 0 0.63672-0.21875 0.74219-0.53906l14.023-43.457c0.10547-0.32031-0.007813-0.67188-0.28125-0.87109zm-37.18-25.258 5.1562 3.7734-26.898 19.672c-0.27344 0.19922-0.38672 0.55078-0.28516 0.87109l9.3281 28.906h-6.3672l-10.254-31.777zm0 18.961 17.891 13.082-6.8359 21.18h-22.109l-6.8359-21.18zm-35.801 7.2266 5.1523-3.7695 10.27 31.828c0.10547 0.32031 0.40625 0.53906 0.74609 0.53906h30.184l-1.9727 6.1055-33.18 0.003906zm11.707 36.27h33.242c0.33984 0 0.64062-0.21875 0.74219-0.54297l9.3281-28.898 5.1523 3.7695-10.258 31.777h-36.238zm46.219 6.1055h-6.3672l10.273-31.836c0.10156-0.32031-0.011719-0.67187-0.28125-0.87109l-24.426-17.863 5.1562-3.7734 26.848 19.637zm11.707-36.273-26.891-19.668c-0.27344-0.20312-0.64844-0.20312-0.92188 0l-24.414 17.855-1.9688-6.1016 26.844-19.637 29.32 21.445z"/>
</svg>
