<?xml version="1.0" encoding="UTF-8"?>
<svg width="100pt" height="100pt" version="1.1" viewBox="0 0 100 100" xmlns="http://www.w3.org/2000/svg">
 <path d="m94.898 46.898-5.3984-19.797c-0.10156-0.19922-0.19922-0.39844-0.39844-0.39844l-9.8008-2.7031-9.8984-2.6992h-0.10156l-9.8008-2.6016-9.8984-2.6992h-0.20312c-0.19922 0-0.30078 0.10156-0.39844 0.19922l-29 29s-0.10156 0-0.10156 0.10156l-14.398 14.398c-0.19922 0.10156-0.30078 0.39844-0.19922 0.60156l2.6992 9.8984c0.10156 0.19922 0.19922 0.39844 0.39844 0.39844l9.8984 2.6992c0.19922 0.10156 0.39844 0 0.60156-0.19922l6.6016-6.6016 2.3984 8.8984c0.10156 0.19922 0.19922 0.39844 0.39844 0.39844l9.8984 2.6992c0.19922 0.10156 0.39844 0 0.60156-0.10156l6.3984-6.3984 2.3984 8.8984c0.10156 0.19922 0.19922 0.39844 0.39844 0.39844l9.8984 2.6992c0.19922 0.10156 0.39844 0 0.60156-0.19922l28.898-28.898 7.3008-7.1992c0.20703-0.39062 0.20703-0.58984 0.20703-0.79297zm-8.2969 7-28.199 28.199-2.4023-8.4961h0.10156l35.098-35.098 2.3008 8.6016zm-70.203 9.1016 14.301-14.301s0.10156 0 0.10156-0.10156l7.1992-7.3008 13.598-13.598 2.3008 8.6016-14.199 14.199s-0.10156 0-0.10156 0.10156l-7.1992 7.1992-7.0977 7.1992-6.5 6.5zm40.703-17.199-7.3008 7.1992-14.301 14.301-8.6016-2.3008 13.699-13.699s0.10156 0 0.10156-0.10156l7.3008-7.1992 7-7 8.6016 2.3008zm-18.5 31-2.3008-8.6016 35.801-35.801s0-0.10156 0.10156-0.10156c0.30078-0.30078 0.19922-0.69922-0.30078-1l-9.8984-2.6992-9.8047-2.5977c-0.30078-0.10156-0.5 0.10156-0.69922 0.30078-0.10156 0-0.10156 0.10156-0.10156 0.10156l-14 14-7.3984 7.2969s-0.10156 0-0.10156 0.10156l-14.301 14.301-8.5977-2.2031 13.699-13.699s0.10156 0 0.10156-0.10156l28.598-28.598 9.6016 2.6016 9.8984 2.6992 9.8984 2.6016 8.8984 2.3984-28.098 28.098s-0.10156 0-0.10156 0.10156l-7.3008 7.1992-7.1016 7.1016-0.09375 0.097657-0.10156 0.10156zm45.398-32.801-21.398 21.398s-0.10156 0-0.10156 0.10156l-7.3008 7.3008-8.6016-2.3008 13.801-13.801s0.10156 0 0.10156-0.10156l28.098-28.098 2.4023 8.5z"/>
</svg>
