<?xml version="1.0" encoding="UTF-8"?>
<svg width="100pt" height="100pt" version="1.1" viewBox="0 0 100 100" xmlns="http://www.w3.org/2000/svg">
 <defs>
  <clipPath id="a">
   <path d="m18.512 18.512h62.977v62.977h-62.977z"/>
  </clipPath>
 </defs>
 <g clip-path="url(#a)">
  <path transform="matrix(.62976 0 0 .62976 -399.97 -579.29)" d="m717.06 975.69-7.4557 28.737m28.347-7.5984-26.107-26.467-9.7011 36.063m-6.9037-24.892-9.0808 35.976 35.74-9.577m-17.256-35.641-9.8624 36.106m-8.0574-44.623 16.195 15.705m5.6073-21.542 37.117 36.838-14.663 3.9325m5.2227 5.4026 21.666-5.8058m-66.822 25.028 36.249-9.7135m-35.089 29.029 5.7375-21.164m34.14-3.182-20.686-20.717m-34.214 29.457 12.871-50.838 10.34 10.613m41.465 22.901-26.666-26.864m-11.407 43.035 35.573-9.5336-26.188-25.369m39.127 29.091-50.583 13.553 3.7154-14.155m-0.78154-47.178 3.8705-14.359 7.7906-2.0903 41.633 42.427-1.836 7.617-14.248 3.8209 10.439 10.365-2.1772 7.0525-57.915 15.519-5.1917-5.08 4.0318-14.241-13.857 3.7154-6.0973-5.4894 15.637-57.772 7.313-1.9601zm-16.524 37.893 28.272-7.5735" fill="none" stroke="#000" stroke-width="2.8248"/>
 </g>
</svg>
