<?xml version="1.0" encoding="UTF-8"?>
<svg width="100pt" height="100pt" version="1.1" viewBox="0 0 100 100" xmlns="http://www.w3.org/2000/svg">
 <path d="m87.27 43.98-31.25-31.25c-0.14453-0.14844-0.34375-0.23047-0.55078-0.23047h-10.938c-0.20703 0-0.40625 0.082031-0.55078 0.23047l-31.25 31.25c-0.14844 0.14453-0.23047 0.34375-0.23047 0.55078v10.938c0 0.20703 0.082031 0.40625 0.23047 0.55078l31.25 31.25c0.14453 0.14844 0.34375 0.23047 0.55078 0.23047h10.938c0.20703 0 0.40625-0.082031 0.55078-0.23047l31.25-31.25c0.14844-0.14453 0.23047-0.34375 0.23047-0.55078v-10.938c0-0.20703-0.082031-0.40625-0.23047-0.55078zm-1.332 0.875v8.7266l-29.918-29.914c-0.14453-0.14844-0.34375-0.23047-0.55078-0.23047s-0.40625 0.082031-0.55078 0.23047l-25.23 25.227-4.3633-4.3633 30.145-30.145zm-35.938 24.352-19.207-19.207 19.207-19.207 19.207 19.207zm-5.1445-55.145h8.7266l-29.914 29.918c-0.14844 0.14453-0.23047 0.34375-0.23047 0.55078s0.082031 0.40625 0.23047 0.55078l25.227 25.23-4.3633 4.3633-30.145-30.145zm-30.793 41.082v-8.7266l29.918 29.914c0.14453 0.14844 0.34375 0.23047 0.55078 0.23047s0.40625-0.082031 0.55078-0.23047l25.23-25.227 4.3633 4.3633-30.145 30.145zm41.082 30.793h-8.7266l29.914-29.918c0.14844-0.14453 0.23047-0.34375 0.23047-0.55078s-0.082031-0.40625-0.23047-0.55078l-25.227-25.23 4.3633-4.3633 30.145 30.145z"/>
</svg>
