<?xml version="1.0" encoding="UTF-8"?>
<svg width="100pt" height="100pt" version="1.1" viewBox="0 0 100 100" xmlns="http://www.w3.org/2000/svg">
 <g>
  <path d="m95.043 87.895h-17.48c-0.69531 0-1.2578-0.5625-1.2578-1.2578v-84.121h-70.09v82.859h15.637v-70.672c0-0.03125 0-0.0625 0.003907-0.097656v-0.003907c0.011719-0.12891 0.039062-0.25391 0.085937-0.375v-0.003906c0.035156-0.089844 0.082032-0.17188 0.13672-0.25391v-0.003906c0.035156-0.046875 0.070313-0.09375 0.11328-0.13672 0.11719-0.12109 0.25391-0.21875 0.40234-0.28516 0.14453-0.0625 0.30078-0.10156 0.46484-0.10938 0.019531 0 0.042968-0.003906 0.054687 0h36.293c0.69922 0 1.2578 0.5625 1.2578 1.2578v71.938c0 0.69531-0.5625 1.2578-1.2578 1.2578l-18.145 0.011719c-0.69531 0-1.2578-0.5625-1.2578-1.2578v-55.23l-15.637-13.906v69.133c0 0.69531-0.5625 1.2578-1.2578 1.2578h-18.152c-0.69922 0-1.2617-0.5625-1.2617-1.2578v-85.379c0-0.69531 0.5625-1.2578 1.2617-1.2578h72.586c0.042969 0 0.089843 0.0039062 0.13672 0.0039062 0.18359 0.015625 0.35547 0.074219 0.50781 0.16016 0.15234 0.085938 0.28516 0.20313 0.39453 0.34766 0.03125 0.039062 0.054688 0.082031 0.082031 0.125l17.469 29.562c0.11328 0.19141 0.17578 0.41406 0.17578 0.64062v55.797c-0.003906 0.69531-0.57031 1.2578-1.2656 1.2578zm-16.219-2.5156h14.965l-0.003906-54.191-14.961-25.324zm-36.305 0h15.633v-69.418h-31.734l15.68 13.938c0.26953 0.24219 0.42188 0.58203 0.42188 0.94141z"/>
  <path d="m59.41 32.102h-18.148c-0.69531 0-1.2578-0.5625-1.2578-1.2578s0.5625-1.2578 1.2578-1.2578h18.148c0.69922 0 1.2578 0.5625 1.2578 1.2578 0 0.69141-0.55859 1.2578-1.2578 1.2578z"/>
  <path d="m23.109 100h-18.152c-0.69922 0-1.2617-0.5625-1.2617-1.2578v-12.105c0-0.69531 0.5625-1.2578 1.2578-1.2578s1.2578 0.5625 1.2578 1.2578v10.848h15.637l0.003906-10.848c0-0.69531 0.5625-1.2578 1.2578-1.2578s1.2578 0.5625 1.2578 1.2578v12.105c0 0.69531-0.5625 1.2578-1.2578 1.2578z"/>
  <path d="m59.41 100h-18.148c-0.69531 0-1.2578-0.5625-1.2578-1.2578v-12.105c0-0.69531 0.5625-1.2578 1.2578-1.2578 0.69531 0 1.2578 0.5625 1.2578 1.2578v10.848h15.633v-10.848c0-0.69531 0.56641-1.2578 1.2578-1.2578 0.69922 0 1.2578 0.5625 1.2578 1.2578v12.105c0 0.69531-0.55859 1.2578-1.2578 1.2578z"/>
  <path d="m95.043 100h-17.48c-0.69531 0-1.2578-0.5625-1.2578-1.2578v-12.105c0-0.69531 0.5625-1.2578 1.2578-1.2578s1.2578 0.5625 1.2578 1.2578v10.848h14.965v-10.848c0-0.69531 0.5625-1.2578 1.2578-1.2578 0.69531 0 1.2578 0.5625 1.2578 1.2578v12.105c0.003907 0.69531-0.5625 1.2578-1.2578 1.2578z"/>
 </g>
</svg>
