<?xml version="1.0" encoding="UTF-8"?>
<svg width="100pt" height="100pt" version="1.1" viewBox="0 0 100 100" xmlns="http://www.w3.org/2000/svg">
 <path d="m80.16 23.391-3.5547-3.5547c-4.7383-4.7383-14.91-3.0117-26.605 4.4766-11.695-7.4883-21.867-9.2188-26.609-4.4727l-3.5547 3.5547c-4.7422 4.7383-3.0156 14.91 4.4766 26.605-7.4883 11.695-9.2148 21.867-4.4727 26.609l3.5547 3.5547c1.7773 1.7773 4.3125 2.6484 7.4062 2.6484 5.168 0 11.887-2.4336 19.199-7.1172 7.3164 4.6836 14.035 7.1172 19.199 7.1172 3.0938 0 5.6328-0.87109 7.4062-2.6484l3.5547-3.5547c4.7461-4.7422 3.0195-14.914-4.4727-26.609 7.4922-11.695 9.2188-21.867 4.4727-26.609zm-1.1055 1.1055c4.1836 4.1836 2.2422 14.027-4.9453 25.078-1.0703 1.6445-2.2422 3.2969-3.4883 4.9141-1.1875 1.543-2.4844 3.1055-3.8477 4.6406-1.2188 1.3711-2.4648 2.6953-3.707 3.9336-1.125 1.125-2.3242 2.25-3.5508 3.3555-1.0586-0.51562-2.1484-1.1133-3.2617-1.7891 1.4922-1.2617 2.957-2.6055 4.3633-4.0117 1.6211-1.6172 3.2188-3.3398 4.7461-5.1172 1.3516-1.5703 2.6367-3.1758 3.8164-4.7656 1.1562-1.5586 2.2344-3.125 3.2031-4.6562 5.4219-8.582 7.6953-16.352 6.5781-21.684zm-11.926 36.562c1.3008 3.0352 1.8516 5.6602 1.6211 7.6914-2.0312 0.23047-4.6562-0.32031-7.6914-1.6211 1.0703-0.97656 2.1211-1.9648 3.1133-2.957 0.99219-0.98828 1.9805-2.0391 2.957-3.1133zm1.1445-1.2734c0.97656-1.1133 1.9102-2.2305 2.7969-3.3516 2.3047 5.1328 2.5273 9.1328 0.58594 11.078v-0.003907c-0.375 0.36719-0.82031 0.65234-1.3047 0.84766 0.11719-2.3633-0.59375-5.2891-2.0781-8.5703zm7.2344-38.844c4.1172 4.1211 2.4141 13.434-4.4492 24.305-0.94531 1.5-2 3.0352-3.1328 4.5586-1.1562 1.5625-2.418 3.1328-3.7461 4.6758-1.5039 1.75-3.0742 3.4414-4.6641 5.0312-1.4961 1.4961-3.0586 2.918-4.6484 4.2422-1.1836-0.77344-2.3945-1.6328-3.6133-2.5703 1.8086-1.4766 3.5625-3.0547 5.2188-4.7109 1.8945-1.8906 3.6797-3.8906 5.3438-5.9883 1.2773-1.5977 2.4688-3.2656 3.5703-4.9883h0.003906c0.99219-1.5469 1.8828-3.1562 2.6758-4.8164v-0.003907c1.918-4.0742 2.6641-7.6289 2.1484-10.273l-0.007813-0.015625h0.003907c-0.20313-1.1875-0.76172-2.2812-1.5977-3.1445-2.5625-2.5625-7.3672-2.3359-13.559 0.60937-1.1953-0.90625-2.4062-1.7695-3.625-2.5898 10.637-6.6602 20.02-8.375 24.074-4.3203zm-25.508 18.863c1.875 1.5156 3.6641 3.125 5.3711 4.8242 1.6992 1.707 3.3086 3.5 4.8242 5.3711-1.5156 1.8711-3.125 3.6641-4.8242 5.3711-1.707 1.6992-3.4961 3.3086-5.3711 4.8242-1.875-1.5156-3.6641-3.125-5.3711-4.8242-1.6992-1.707-3.3086-3.5-4.8242-5.3711 3.0273-3.75 6.4453-7.168 10.195-10.195zm9.7852-8.0781c-1.1133-0.97656-2.2305-1.9102-3.3516-2.7969 5.1328-2.3047 9.1328-2.5273 11.074-0.58594 0.36719 0.375 0.65234 0.82031 0.84766 1.3047-2.3633-0.11719-5.2891 0.59375-8.5703 2.0781zm8.9648-0.47656c0.23047 2.0312-0.32422 4.6562-1.6211 7.6914-0.97656-1.0742-1.9648-2.125-2.957-3.1133-0.99219-0.99219-2.043-1.9805-3.1133-2.957 3.0352-1.2969 5.6602-1.8516 7.6914-1.6211zm-44.254-10.309c4.1836-4.1836 14.027-2.2422 25.078 4.9453 1.6484 1.0742 3.3047 2.2461 4.9141 3.4883 1.543 1.1875 3.1055 2.4844 4.6445 3.8516 1.3672 1.2148 2.6914 2.4609 3.9375 3.707 1.125 1.125 2.25 2.3203 3.3516 3.5508-0.51562 1.0547-1.1133 2.1484-1.7891 3.2617-1.2617-1.4922-2.6055-2.957-4.0117-4.3633-1.6211-1.6211-3.3438-3.2188-5.1172-4.7422-1.5664-1.3477-3.1719-2.6328-4.7656-3.8164-1.5547-1.1523-3.1211-2.2305-4.6562-3.1992-8.5859-5.4219-16.352-7.6953-21.684-6.5781zm-3.5547 3.5547c4.0586-4.0586 13.598-2.3125 24.301 4.4453 1.5039 0.94922 3.0391 2.0039 4.5625 3.1328 1.5625 1.1602 3.1367 2.4219 4.6758 3.7461 1.7461 1.5 3.4375 3.0703 5.0312 4.6641 1.4961 1.4961 2.918 3.0586 4.2422 4.6484-0.77344 1.1836-1.6328 2.3945-2.5703 3.6133-1.4805-1.8086-3.0547-3.5625-4.7109-5.2188-1.8906-1.8945-3.8906-3.6797-5.9883-5.3438-1.5977-1.2773-3.2656-2.4688-4.9922-3.5742-1.543-0.98828-3.1484-1.8828-4.8086-2.6719h-0.003906c-4.0742-1.9219-7.6289-2.668-10.277-2.1523h-0.007813l-0.015625 0.003906 0.003906 0.003907c-1.1836 0.20312-2.2812 0.75781-3.1445 1.5938-2.5625 2.5625-2.3359 7.3711 0.60938 13.559-0.91016 1.1953-1.7695 2.4102-2.5898 3.625-6.6562-10.637-8.3711-20.02-4.3164-24.074zm7.9883 19.07c-2.3047-5.1328-2.5273-9.1328-0.58594-11.078v0.003907c0.375-0.36719 0.82031-0.65234 1.3047-0.84766-0.11719 2.3633 0.59375 5.2891 2.0781 8.5703-0.97656 1.1094-1.9102 2.2266-2.7969 3.3516zm3.9414-4.625c-1.3008-3.0352-1.8516-5.6602-1.6211-7.6914 2.0352-0.23047 4.6562 0.32031 7.6914 1.6211-1.0703 0.97656-2.1211 1.9648-3.1133 2.957-0.99219 0.98828-1.9805 2.0391-2.957 3.1133zm-11.93 36.562c-4.1836-4.1836-2.2422-14.027 4.9453-25.078 1.0703-1.6445 2.2422-3.2969 3.4883-4.9141 1.1875-1.543 2.4844-3.1055 3.8477-4.6406 1.2188-1.3672 2.4648-2.6914 3.707-3.9375 1.1289-1.1289 2.3242-2.2539 3.5508-3.3555 1.0547 0.51562 2.1484 1.1133 3.2617 1.7891-1.4922 1.2617-2.957 2.6055-4.3633 4.0117-1.625 1.625-3.2188 3.3477-4.7461 5.1172-1.3516 1.5742-2.6367 3.1797-3.8125 4.7656-1.1562 1.5586-2.2344 3.125-3.2031 4.6562-5.4219 8.582-7.6953 16.352-6.5781 21.684zm3.5547 3.5547c-4.1211-4.1211-2.418-13.434 4.4453-24.305 0.94531-1.4961 2-3.0312 3.1328-4.5586 1.1562-1.5586 2.4141-3.1289 3.7461-4.6758 1.5-1.7422 3.0703-3.4375 4.6641-5.0312 1.4961-1.4961 3.0586-2.918 4.6484-4.2422 1.1836 0.77344 2.3945 1.6328 3.6133 2.5703-1.8086 1.4766-3.5625 3.0547-5.2188 4.7148v-0.003906c-1.8945 1.8906-3.6797 3.8906-5.3438 5.9883-1.2773 1.5977-2.4688 3.2656-3.5703 4.9883h-0.003906c-0.99219 1.5469-1.8828 3.1562-2.6758 4.8164v0.003907c-1.918 4.0742-2.6641 7.625-2.1484 10.273l0.007813 0.015625h-0.003907c0.20313 1.1875 0.76172 2.2812 1.5977 3.1445 1.3281 1.2344 3.1016 1.8789 4.9102 1.7773 2.3906 0 5.3203-0.80469 8.6445-2.3867 1.1914 0.90625 2.4062 1.7695 3.625 2.5898-10.637 6.6602-20.016 8.375-24.07 4.3203zm15.719-10.785c1.1133 0.97656 2.2305 1.9102 3.3516 2.7969-5.1328 2.3008-9.1328 2.5273-11.074 0.58594-0.36719-0.37891-0.65234-0.82031-0.84766-1.3047 0.16797 0.007813 0.33203 0.023438 0.50781 0.023438v-0.003906c2.8047-0.13281 5.5508-0.84766 8.0625-2.0977zm-8.9648 0.47656c-0.23047-2.0312 0.32031-4.6562 1.6211-7.6914 0.97656 1.0742 1.9648 2.125 2.957 3.1133 0.99219 0.99219 2.043 1.9805 3.1133 2.957-3.0352 1.3008-5.6562 1.8516-7.6914 1.6211zm44.254 10.309c-4.1836 4.1836-14.027 2.2422-25.078-4.9453-1.6523-1.0742-3.3047-2.25-4.9141-3.4883-1.543-1.1875-3.1016-2.4805-4.6406-3.8477l-0.003906-0.003906c-1.3672-1.2148-2.6914-2.4609-3.9375-3.707-1.125-1.1211-2.2461-2.3203-3.3516-3.5508 0.51562-1.0547 1.1133-2.1484 1.7891-3.2617 1.2617 1.4922 2.6055 2.957 4.0117 4.3633 1.625 1.6289 3.3477 3.2227 5.1172 4.7422 1.5664 1.3477 3.1719 2.6328 4.7656 3.8164 1.5547 1.1562 3.1211 2.2305 4.6562 3.1992 7.1641 4.5234 13.758 6.8594 18.844 6.8594l0.003906 0.003906c0.95703 0.003907 1.9102-0.09375 2.8477-0.28906zm3.5547-3.5547c-4.1211 4.1211-13.434 2.418-24.301-4.4453-1.5039-0.94922-3.0391-2.0039-4.5625-3.1367-1.5625-1.1602-3.1367-2.4219-4.6758-3.7461-1.7383-1.4961-3.4336-3.0664-5.0312-4.6641-1.4961-1.4961-2.918-3.0586-4.2422-4.6484 0.77344-1.1836 1.6328-2.3945 2.5703-3.6133 1.4805 1.8086 3.0547 3.5625 4.7148 5.2188l-0.003906 0.003906c1.8906 1.8945 3.8906 3.6797 5.9883 5.3438 1.5977 1.2773 3.2656 2.4688 4.9922 3.5742 1.543 0.99219 3.1523 1.8828 4.8125 2.6758l0.015626 0.007813h0.003906c2.6367 1.3633 5.5391 2.1484 8.5078 2.2969 0.58594 0.003906 1.1719-0.046875 1.75-0.15625 1.1914-0.20312 2.293-0.76172 3.1641-1.6016 2.5625-2.5625 2.3359-7.3672-0.60938-13.559 0.91016-1.1953 1.7695-2.4102 2.5898-3.625 6.6562 10.637 8.3711 20.02 4.3164 24.074z"/>
</svg>
