<?xml version="1.0" encoding="UTF-8"?>
<svg width="100pt" height="100pt" version="1.1" viewBox="0 0 100 100" xmlns="http://www.w3.org/2000/svg">
 <path d="m84.145 25.043-9.1875-9.1875c-0.14453-0.14844-0.34375-0.23047-0.55078-0.23047h-58c-0.20703 0-0.40625 0.082031-0.55078 0.23047-0.14844 0.14453-0.23047 0.34375-0.23047 0.55078v58c0 0.20703 0.082031 0.40625 0.23047 0.55078l9.1875 9.1875c0.14453 0.14844 0.34375 0.23047 0.55078 0.23047h58c0.20703 0 0.40625-0.082031 0.55078-0.23047 0.14844-0.14453 0.23047-0.34375 0.23047-0.55078v-58c0-0.20703-0.082031-0.40625-0.23047-0.55078zm-21.039 10.508h-26.664l-8.9883-9.1758h35.652zm0 1.5625v25.777h-26.211v-25.777zm-26.211 27.34h26.664l8.9883 9.1719h-35.652zm-19.707-47.266h56.438v55.305l-8.957-9.1406v-37.758c0-0.20703-0.082031-0.40625-0.22656-0.55078-0.14844-0.14844-0.34766-0.23047-0.55469-0.23047h-38.293c-0.20703 0-0.40625 0.082031-0.55078 0.23047-0.14844 0.14453-0.23047 0.34375-0.23047 0.55078v56.113l-7.625-7.625zm65.625 65.625h-56.438v-55.305l8.957 9.1406v37.758c0 0.20703 0.082031 0.40625 0.23047 0.55078 0.14453 0.14844 0.34375 0.23047 0.55078 0.23047h38.293c0.20703 0 0.40625-0.082031 0.55078-0.23047 0.14844-0.14453 0.23047-0.34375 0.23047-0.55078v-56.113l7.625 7.625z"/>
</svg>
