<?xml version="1.0" encoding="UTF-8"?>
<svg width="100pt" height="100pt" version="1.1" viewBox="0 0 100 100" xmlns="http://www.w3.org/2000/svg">
 <path d="m87.477 65.562c-0.39062-8.7734-4.7656-16.48-12.645-22.324 0.027344-0.26953 0.058594-0.54297 0.082031-0.81641 0.58594-8.0391-2.1641-15.965-7.6016-21.914-4.2852-4.6602-9.5508-7.2266-14.836-7.2266h-7.0117c-5.6484 0.039062-11.027 2.4062-14.871 6.5469-4.9414 5.1758-7.457 12.477-7.082 20.555 0.058593 1.1016 0.17578 2.1992 0.34766 3.2891-8.9062 8.3516-13.543 21.141-10.344 28.688l0.011719 0.023437 0.23828 0.51172 0.003906 0.011719v0.003906c1.6055 3.5898 3.8633 6.8555 6.6641 9.6172 2.7383 2.8008 6.7344 4.1914 11.453 4.1914 5.1953 0 11.266-1.6992 17.477-5.0508 5.1875 3.2812 11.203 5.0117 17.34 4.9961 0.70703 0 1.4258-0.019531 2.1523-0.0625 2.1172-0.066406 4.1953-0.625 6.0625-1.625 3.9531-1.8906 13.086-7.5664 12.559-19.414zm-35-50.719c4.8398 0 9.7031 2.3867 13.688 6.7227 5.1211 5.6016 7.7227 13.055 7.1992 20.625-1.4141-0.95312-2.8789-1.8359-4.3867-2.6367-1.8281-0.97266-3.7188-1.8281-5.6523-2.5664-1.6172-6.2031-5.7695-9.8984-11.18-9.8984-1.0586 0-2.1172 0.11719-3.1523 0.34375-4.2148 0.81641-7.5898 3.9688-8.6953 8.1133-0.40234 1.4297-0.60938 2.9062-0.60938 4.3906-0.027344 1.4883 0.027344 2.9766 0.16406 4.457 0.29297 2.8594 1.1211 5.6367 2.4375 8.1914 1.582 2.9805 3.5938 5.7109 5.9688 8.1094-0.43359 0.37109-0.86719 0.72656-1.3164 1.0547-1.6875 1.2422-3.4688 2.3516-5.332 3.3164-2.4023-2.4961-4.3867-5.3555-5.8828-8.4766-1.2109-2.5469-2.1406-5.2148-2.7773-7.9609-0.63281-2.793-1.0664-5.6289-1.2969-8.4844-0.015625-0.14844-0.023438-0.29688-0.03125-0.44531l-0.015625-0.25c-0.48438-6.9297 1.6445-13.316 5.9961-17.98 3.832-4.168 9.2148-6.5664 14.875-6.625zm-0.125 13.816c4.3125 0.085938 7.5859 2.8516 9.1562 7.6758-1.2969-0.42969-2.6055-0.79297-3.9102-1.0938-0.89453-2.7578-2.7617-5.0977-5.2461-6.582zm3.4336 6.2109c-4.4727-0.83594-9.0625-0.875-13.547-0.11328 1.2109-2.9375 3.7969-5.0898 6.9062-5.7461 3.0039 0.82031 5.4531 2.9844 6.6406 5.8594zm-11.656 17.832c3.3086-1.0391 6.8398-1.1094 10.188-0.21094-1.168 2.6719-2.832 5.0977-4.9062 7.1445-2.0508-2.0742-3.8242-4.4062-5.2812-6.9336zm-12.406-31.797c3.3203-3.5703 7.8828-5.7305 12.75-6.0352-3.0391 1.2422-5.7773 3.1289-8.0156 5.5312-4.6523 4.9883-6.9297 11.789-6.4141 19.16l0.015625 0.23438c0.011718 0.16406 0.019531 0.32812 0.035156 0.49609h0.003906c0.23828 2.9258 0.68359 5.8281 1.332 8.6914 0.66016 2.8594 1.6289 5.6328 2.8867 8.2812 1.4961 3.1133 3.4531 5.9844 5.8086 8.5117-1.4648 0.67188-2.9961 1.1875-4.5742 1.5352-1.2344-1.5039-2.3555-3.1016-3.3516-4.7734-1.5938-2.6953-2.9375-5.5312-4.0156-8.4727-1.2344-3.3125-2.1445-6.7383-2.7227-10.227-0.19141-1.168-0.32422-2.3477-0.39063-3.5312-0.35156-7.6484 2.0078-14.539 6.6523-19.402zm2.0469 46.684c-0.64453 0.0625-1.2891 0.066406-1.9336 0.019531-0.054688-0.86328-0.027344-1.7305 0.082031-2.5938 0.59375 0.89453 1.2109 1.7539 1.8516 2.5742zm-3.5117-0.23828c-1.3516-0.29687-2.5312-1.1133-3.293-2.2656-1.4531-2.3359-1.3047-5.5234 0.37109-8.918h-0.003907c0.95312 2.375 2.0742 4.6797 3.3672 6.8867-0.34766 1.4062-0.49609 2.8516-0.44141 4.2969zm-14.469 5.9336c-0.23437-0.33984-0.44141-0.69531-0.61719-1.0664l-0.21875-0.47656c-2.8711-6.7852 1.25-18.281 9.2266-26.207h-0.003907c0.57812 2.9688 1.3867 5.8828 2.418 8.7227-2.5312 4.3203-2.8867 8.5508-0.95703 11.652 1.2109 1.8242 3.1836 2.9961 5.3633 3.1914 0.54688 0.074219 1.0977 0.11328 1.6484 0.10938 0.92187-0.003907 1.8398-0.089844 2.7422-0.26172 2.2266-0.44141 4.3828-1.1914 6.4023-2.2188 2.1289-1.0625 4.1602-2.3047 6.0742-3.7227 0.71484-0.52344 1.3984-1.0859 2.0508-1.6875 2.5273-2.3359 4.5312-5.1758 5.8867-8.3359 1.5547 0.59766 3.0195 1.4062 4.3477 2.4062-9.6875 15.668-23.188 21.652-32.672 22.004-5.3633 0.19922-9.7266-1.3359-11.691-4.1094zm33.223 6.8086c-11.363 6.2539-22.141 6.7812-27.457 1.3438h-0.003907c-1.3555-1.3438-2.582-2.8086-3.6641-4.3789 2.6953 1.3359 5.6797 1.9922 8.6875 1.9141 0.31641 0 0.64062-0.007812 0.96094-0.019531 9.8555-0.36719 23.836-6.5117 33.84-22.574l0.003906 0.003906c2.25 1.9961 4.0234 4.4766 5.1836 7.2578-0.87109 1.418-1.8242 2.7891-2.8477 4.1055-2.0078 2.5586-4.2812 4.8945-6.7812 6.9727-1.4727 1.2266-3.0195 2.3633-4.6289 3.4062-1.0703 0.69531-2.1797 1.3555-3.293 1.9688zm16.812-12.582c0.48047-0.65625 0.94141-1.3242 1.3867-2 0.17969 0.63281 0.3125 1.2734 0.39844 1.9258-0.59375 0.054688-1.1875 0.078125-1.7852 0.074219zm1.8867 1.4766c-0.023438 1.8281-0.56641 4.3203-3.1797 5.2266l0.003906 0.003906c-1.7109 0.57031-3.5195 0.76172-5.3125 0.57031 1.9805-1.7656 3.8047-3.6914 5.4609-5.7617 0.42188 0.027344 0.84766 0.058594 1.2734 0.058594 0.58594-0.003907 1.1719-0.039063 1.7539-0.09375zm6.4805 14.605 0.003906 0.003906c-1.6758 0.89453-3.5312 1.3906-5.4297 1.4453-6.2383 0.43359-12.461-1.0508-17.836-4.25 0.75-0.4375 1.4961-0.88672 2.2266-1.3594 1.5586-1.0117 3.0586-2.1094 4.4922-3.293 0.96875 0.17969 1.9492 0.27344 2.9336 0.28125 1.5195 0.007813 3.0273-0.23828 4.4648-0.72656 2.9258-1.0156 4.457-3.793 4.2031-7.6172v-0.003906c-0.125-1.5938-0.48828-3.1562-1.0781-4.6406-1.3633-3.4609-3.5977-6.5078-6.4844-8.8477-1.8008-1.4648-3.8516-2.5977-6.0508-3.3398-3.9805-1.2852-8.2656-1.2695-12.238 0.042968-0.97266-2.0117-1.6133-4.168-1.9062-6.3828 5.125-1.3203 10.504-1.3164 15.629 0.019531 1.6289 0.42188 3.2148 0.99219 4.7422 1.7031 0.23438 0.10938 0.45703 0.22656 0.67969 0.34375l0.34766 0.17969h0.003906c3.2227 1.6211 6.1758 3.7305 8.7539 6.2539 5.5078 5.4453 7.1875 10.883 7.6523 12.969 0.89062 3.9609 0.83594 13.805-5.1055 17.223zm4.9727-3.1602c2.5195-4.7695 2.3867-11.156 1.6602-14.402-0.49609-2.2188-2.2773-8.0039-8.082-13.738h0.003906c-2.6914-2.6367-5.7773-4.8398-9.1445-6.5312l-0.33594-0.17188c-0.24219-0.125-0.48438-0.25-0.73828-0.37109v-0.003906c-1.6094-0.75-3.2852-1.3555-5.0078-1.8008-5.3047-1.3789-10.867-1.4062-16.188-0.078124-0.082031-1.1914-0.089843-2.3203-0.082031-3.3867 0.003906-1.1797 0.14844-2.3594 0.43359-3.5039 5.0078-0.96875 10.164-0.89453 15.141 0.21875 1.8945 0.41797 3.7578 0.96484 5.5781 1.6406 2.0039 0.74609 3.9531 1.625 5.8398 2.6289 1.8438 0.97656 3.6211 2.0781 5.3125 3.2969 7.7148 5.5859 11.988 12.988 12.363 21.402 0.30078 5.7422-2.2188 11.27-6.75 14.805z"/>
</svg>
