<?xml version="1.0" encoding="UTF-8"?>
<svg width="100pt" height="100pt" version="1.1" viewBox="0 0 100 100" xmlns="http://www.w3.org/2000/svg">
 <path d="m93.949 76.18-37.445-64.859c-0.125-0.21484-0.35156-0.34766-0.60156-0.34766h-11.809c-0.24609 0-0.47656 0.13281-0.60156 0.34766l-37.441 64.859c-0.011719 0.015624-0.015625 0.035156-0.023437 0.054687-0.015625 0.03125-0.027344 0.058594-0.039063 0.09375-0.007812 0.023437-0.011719 0.050781-0.015625 0.074219-0.007812 0.03125-0.011718 0.0625-0.011718 0.09375 0 0.027344 0 0.054687 0.003906 0.078125l0.011718 0.09375c0.007813 0.027343 0.011719 0.050781 0.023438 0.078125 0.007812 0.015625 0.007812 0.035156 0.015625 0.050781l4.9844 11.805c0.10938 0.25781 0.35938 0.42578 0.64062 0.42578h76.719 0.042969c0.019531 0 0.039062-0.007813 0.0625-0.011719 0.035156-0.003906 0.070312-0.011719 0.10547-0.019531 0.027344-0.007813 0.050782-0.019532 0.078126-0.03125 0.03125-0.015625 0.0625-0.027344 0.089843-0.046875 0.023438-0.015625 0.046875-0.03125 0.066407-0.050781 0.027343-0.019532 0.050781-0.042969 0.074218-0.066407 0.019532-0.023437 0.035156-0.046875 0.054688-0.066406 0.011718-0.015625 0.023437-0.027344 0.035156-0.046875 0.007812-0.011719 0.011719-0.027344 0.015625-0.042969 0.007813-0.011719 0.015625-0.023437 0.019531-0.035156l4.9883-11.805c0.078124-0.20703 0.066406-0.4375-0.042969-0.625zm-49.453-63.816h10.203l-32.301 55.945c-0.125 0.21484-0.125 0.48047 0 0.69531s0.35156 0.34766 0.60156 0.34766h45.727l3.7422 6.4805h-64.617zm5.5 24.547 17.926 31.051h-35.852zm-42.301 40.309h65.973c0.24609 0 0.47656-0.13281 0.60156-0.34766s0.125-0.48047 0-0.69531l-4.543-7.8711-18.926-32.781 3.1328-5.4297 33.223 57.543h-75.059zm80.566 9.5586-33.727-58.418c-0.125-0.21484-0.35156-0.34766-0.60156-0.34766-0.24609 0-0.47656 0.13281-0.60156 0.34766l-3.9336 6.8164-18.93 32.785h-6.2656l31.699-54.906 36.672 63.52z"/>
</svg>
