<?xml version="1.0" encoding="UTF-8"?>
<svg width="100pt" height="100pt" version="1.1" viewBox="0 0 100 100" xmlns="http://www.w3.org/2000/svg">
 <g>
  <path d="m50.242 37.902 22.395-12.496c0.23828-0.13281 0.32812-0.4375 0.19531-0.67578-0.050781-0.089844-0.11719-0.15625-0.19922-0.19922l-22.391-12.488c-0.14844-0.085938-0.33594-0.085938-0.48438 0l-22.395 12.488c-0.16016 0.089844-0.25781 0.25391-0.25781 0.4375s0.097656 0.34766 0.25781 0.4375l22.395 12.496c0.074219 0.042968 0.16016 0.0625 0.24219 0.0625 0.085938 0 0.16797-0.023438 0.24219-0.0625zm-21.609-12.934 21.367-11.918 21.355 11.914-4.6367 2.5117-16.48-9.1953c-0.14844-0.085938-0.33594-0.085938-0.48438 0l-16.578 9.2266zm5.5703 3.1094 15.797-8.7891 15.777 8.8008-15.777 8.8008z"/>
  <path d="m83.887 24.535-33.645-18.77c-0.14844-0.085937-0.33594-0.085937-0.48438 0l-33.645 18.77c-0.16016 0.089844-0.25781 0.25391-0.25781 0.4375v50.059c0 0.17969 0.097656 0.34766 0.25781 0.4375l33.645 18.773c0.074219 0.035156 0.16016 0.058593 0.24219 0.058593s0.16797-0.019531 0.24219-0.0625l33.645-18.773c0.16016-0.089844 0.25781-0.25391 0.25781-0.4375v-50.059c0-0.17969-0.097656-0.34766-0.25781-0.43359zm-33.887-17.762 32.617 18.195-32.617 18.199-32.617-18.199zm22.906 55.73-0.089844-24.746 4.5156-2.543v36.605l-27.047 15.148-27.797-15.629v-35.66l4.6172 2.4766-0.027344 24.41c-0.003906 0.027344-0.007813 0.054688-0.007813 0.085938v6.1211 0.003906 0.003906c0 0.12109 0.046876 0.23047 0.11719 0.32031 0.019531 0.023438 0.042969 0.046876 0.066406 0.066407 0.023438 0.019531 0.054688 0.039062 0.082032 0.054687l22.703 12.508c0.15234 0.085937 0.33594 0.082031 0.48828-0.003907l22.148-12.516c0.050781-0.03125 0.097657-0.066407 0.13672-0.11328h0.003906v0-0.003906-0.003906s0.003906 0 0 0c0.011719-0.003906 0.003906 0 0.003906 0 0.011719-0.003906 0.003907 0 0.003907 0v-0.003906l0.003906-0.003907c0.011719-0.015625 0.019531-0.03125 0.03125-0.050781 0 0 0.003906-0.003906 0-0.003906v-0.003906-0.003907-0.003906s0.003906 0 0 0c0.003906 0 0-0.003906 0-0.003906v-0.003907-0.003906c0.003906 0 0 0 0-0.003906v-0.003906-0.003906-0.003907-0.003906c0.023437-0.058594 0.035156-0.12109 0.035156-0.18359v-6.1172c0.035157-0.082032 0.027344-0.13281 0.011719-0.17969zm-38.582 9.4219 15.949-8.8359 15.387 8.9297-15.387 8.6914zm32.348-0.47656-16.141-9.3672c-0.15234-0.089843-0.33984-0.089843-0.49219-0.003906l-16.75 9.2773-4.6836-2.582 21.395-11.789 21.402 11.793zm-16.672 21.777-33.145-18.492v-48.914l32.645 18.215v12.086l-21.43 11.809 0.007813-4.9844 16.562-9.375c0.15625-0.089843 0.25391-0.25391 0.25391-0.43359v-6.2578c0-0.18359-0.10156-0.35547-0.26562-0.44141l-22.402-12.035c-0.15625-0.085938-0.34375-0.078125-0.49219 0.011718-0.14844 0.089844-0.24219 0.25391-0.24219 0.42969v36.789c0 0.17969 0.097656 0.34766 0.25391 0.4375l28.293 15.914c0.074219 0.042969 0.16016 0.0625 0.24609 0.0625 0.085938 0 0.16797-0.019531 0.24219-0.0625l27.547-15.43c0.15625-0.089844 0.25781-0.25391 0.25781-0.4375l-0.003906-37.758c0-0.17969-0.09375-0.34375-0.24609-0.43359-0.15234-0.089843-0.34375-0.089843-0.49609-0.003906l-22.223 12.516c-0.15234 0.085938-0.25 0.24609-0.25391 0.42188l-0.19531 6.3633c-0.007812 0.1875 0.09375 0.36328 0.25781 0.45312l16.734 9.2617 0.019531 4.9883-21.426-11.809v-12.082l32.645-18.215v48.91zm-21.922-31.438 0.027344-23.098 15.789 8.4766v5.668zm43.824 0-15.98-8.8438 0.17578-5.7773 15.719-8.8516z"/>
 </g>
</svg>
