<?xml version="1.0" encoding="UTF-8"?>
<svg width="100pt" height="100pt" version="1.1" viewBox="0 0 100 100" xmlns="http://www.w3.org/2000/svg">
 <path d="m86.094 49.5-17.613-30.508c-0.17969-0.30859-0.50781-0.5-0.86719-0.5h-24.867c-0.17188 0-0.34375 0.042968-0.49219 0.12891l-15.406 8.7422c-0.15625 0.089844-0.28516 0.21484-0.37109 0.37109l-12.57 21.766c-0.17969 0.30859-0.17969 0.69141 0 1l17.613 30.508c0.17969 0.30859 0.50781 0.5 0.86719 0.5h24.867c0.15625 0 0.30859-0.035156 0.44531-0.10547l14.555-7.2617c0.17578-0.089844 0.32031-0.22656 0.41797-0.39453l13.422-23.246c0.17578-0.30859 0.17578-0.69141 0-1zm-70.168 0.5 12.141-21.031 11.973-6.793-15.77 27.324c-0.17969 0.30859-0.17969 0.69141 0 1l12.434 21.535c0.17969 0.30859 0.50781 0.5 0.86719 0.5h23.133l-4.0273 6.9727h-23.711zm45.93 20.535h-8.0508l11.277-19.535h8.0508zm-26.938-19.535 6.9648 12.062c0.17969 0.30859 0.50781 0.5 0.86719 0.5h12.773l-4.0273 6.9727h-13.352l-11.277-19.535zm8.4062-12.562h13.352l6.6758 11.562-6.6758 11.562h-13.352l-6.6758-11.562zm21.758 10.562-6.9648-12.062c-0.17969-0.30859-0.50781-0.5-0.86719-0.5h-12.77l4.0273-6.9727h13.352l11.273 19.535zm-30.164 0h-8.0508l11.277-19.535h8.0508zm36.172 23.484-11.309 5.6445 15.949-27.629c0.17969-0.30859 0.17969-0.69141 0-1l-12.434-21.535c-0.17969-0.30859-0.50781-0.5-0.86719-0.5h-23.129l4.0273-6.9727h23.711l17.035 29.508z"/>
</svg>
