<svg width="24" height="24" viewBox="0 0 24 24" fill="none" xmlns="http://www.w3.org/2000/svg">
<g clip-path="url(#clip0_2_1661)">
<path d="M5.21063 21.6197L0.288732 13.0376C0.0995027 12.7077 -0.00012207 12.3334 -0.00012207 11.9524C-0.00012207 11.5714 0.0995027 11.1971 0.288732 10.8671L5.21063 2.28529C5.39989 1.95529 5.67211 1.68127 5.99993 1.49076C6.32775 1.30024 6.69961 1.19996 7.07814 1.19998H16.9219C17.3004 1.19999 17.6723 1.30029 18 1.4908C18.3278 1.68132 18.6 1.95533 18.7893 2.28529L23.7111 10.8671C23.9004 11.1971 24 11.5714 24 11.9524C24 12.3335 23.9004 12.7078 23.7111 13.0378L18.7893 21.6197C18.6 21.9496 18.3277 22.2235 18 22.414C17.6722 22.6045 17.3004 22.7047 16.9219 22.7047H7.07814C6.69961 22.7049 6.32774 22.6045 5.99992 22.414C5.6721 22.2235 5.39988 21.9497 5.21063 21.6197Z" fill="url(#paint0_linear_2_1661)"/>
<path opacity="0.07" d="M22.6999 14.8924L16.7307 8.88385L15.6322 9.11299L12.8942 6.35687L12.0181 8.00636L11.5429 9.91443L12.3471 10.7242L10.8025 11.0416L8.68447 8.90952L7.24633 10.3012L9.8944 12.9673L7.08752 15.2133L14.6238 22.7995L18.2952 22.7636L22.6999 14.8924Z" fill="black"/>
<path d="M16.0358 10.6143C16.587 10.6143 17.034 10.1644 17.034 9.6094C17.034 9.05435 16.587 8.60443 16.0358 8.60443C15.4845 8.60443 15.0375 9.05435 15.0375 9.6094C15.0375 10.1644 15.4845 10.6143 16.0358 10.6143Z" fill="white"/>
<path d="M7.96384 10.6143C8.51517 10.6143 8.96211 10.1644 8.96211 9.6094C8.96211 9.05435 8.51517 8.60443 7.96384 8.60443C7.41252 8.60443 6.96558 9.05435 6.96558 9.6094C6.96558 10.1644 7.41252 10.6143 7.96384 10.6143Z" fill="white"/>
<path d="M12 17.6483C12.5514 17.6483 12.9984 17.1983 12.9984 16.6431C12.9984 16.088 12.5514 15.638 12 15.638C11.4486 15.638 11.0016 16.088 11.0016 16.6431C11.0016 17.1983 11.4486 17.6483 12 17.6483Z" fill="white"/>
<path d="M12.0004 13.5764C12.8911 13.5764 13.6133 12.8494 13.6133 11.9528C13.6133 11.0561 12.8911 10.3292 12.0004 10.3292C11.1096 10.3292 10.3875 11.0561 10.3875 11.9528C10.3875 12.8494 11.1096 13.5764 12.0004 13.5764Z" fill="white"/>
<path d="M7.96554 15.5737C8.66538 15.5737 9.23272 15.0026 9.23272 14.2982C9.23272 13.5938 8.66538 13.0227 7.96554 13.0227C7.2657 13.0227 6.69836 13.5938 6.69836 14.2982C6.69836 15.0026 7.2657 15.5737 7.96554 15.5737Z" fill="white"/>
<path d="M16.0374 15.5737C16.7371 15.5737 17.3043 15.0026 17.3043 14.2982C17.3043 13.5938 16.7371 13.0227 16.0374 13.0227C15.3375 13.0227 14.7703 13.5938 14.7703 14.2982C14.7703 15.0026 15.3375 15.5737 16.0374 15.5737Z" fill="white"/>
<path d="M12.001 8.53796C12.7008 8.53796 13.2683 7.96678 13.2683 7.26218C13.2683 6.5576 12.7008 5.9864 12.001 5.9864C11.301 5.9864 10.7336 6.5576 10.7336 7.26218C10.7336 7.96678 11.301 8.53796 12.001 8.53796Z" fill="white"/>
</g>
<defs>
<linearGradient id="paint0_linear_2_1661" x1="12.0001" y1="1.20017" x2="12.0001" y2="22.6714" gradientUnits="userSpaceOnUse">
<stop stop-color="#4387FD"/>
<stop offset="1" stop-color="#4683EA"/>
</linearGradient>
<clipPath id="clip0_2_1661">
<rect width="24" height="24" fill="white"/>
</clipPath>
</defs>
</svg>
