<svg width="24" height="24" viewBox="0 0 24 24" fill="none" xmlns="http://www.w3.org/2000/svg">
<path d="M15.4595 13.0775C15.0988 13.0777 14.7423 13.157 14.4139 13.31C14.0855 13.4631 13.7927 13.6864 13.5552 13.965L12.3619 13.0975C12.4886 12.7394 12.5616 12.355 12.5616 11.9525C12.5608 11.5685 12.4955 11.1875 12.3686 10.8263L13.5594 9.96812C13.7969 10.2456 14.0893 10.4679 14.417 10.6203C14.7447 10.7727 15.1003 10.8516 15.4601 10.8519C16.1333 10.8506 16.7786 10.5754 17.2547 10.0867C17.7307 9.59798 17.9987 8.93552 18 8.24438C17.9987 7.55323 17.7307 6.89077 17.2547 6.40205C16.7786 5.91334 16.1333 5.6382 15.4601 5.63687C14.7869 5.6382 14.1416 5.91334 13.6655 6.40205C13.1895 6.89077 12.9215 7.55323 12.9202 8.24438C12.9202 8.50187 12.9579 8.74437 13.0261 8.985L11.8347 9.84375C11.3367 9.21 10.6202 8.76687 9.80376 8.63125V7.15625C10.3736 7.03221 10.8847 6.71123 11.2518 6.2469C11.6189 5.78257 11.8197 5.20301 11.8207 4.605C11.8188 3.91418 11.5504 3.25227 11.0743 2.76407C10.5982 2.27588 9.95311 2.00115 9.2802 2C8.60697 2.00132 7.96168 2.27646 7.48564 2.76518C7.00959 3.25389 6.74158 3.91635 6.7403 4.6075C6.7403 5.845 7.5847 6.88062 8.7128 7.14687V8.64688C7.17376 8.91688 6 10.2956 6 11.9531C6 13.6187 7.18533 15.0031 8.73533 15.2706V16.8475C7.59687 17.0975 6.74091 18.1475 6.74091 19.3925C6.74219 20.0835 7.01012 20.7459 7.48603 21.2346C7.96195 21.7233 8.60708 21.9985 9.2802 22C9.95343 21.9987 10.5987 21.7235 11.0748 21.2348C11.5508 20.7461 11.8188 20.0836 11.8201 19.3925C11.8201 18.1469 10.9647 17.105 9.82568 16.8475V15.2706C10.6262 15.1331 11.3294 14.6981 11.8225 14.0788L13.0237 14.9519C12.955 15.1899 12.9199 15.4368 12.9196 15.685C12.9209 16.3761 13.1889 17.0386 13.6649 17.5273C14.141 18.016 14.7863 18.2912 15.4595 18.2925C16.1327 18.2912 16.778 18.016 17.254 17.5273C17.7301 17.0386 17.9981 16.3761 17.9994 15.685C17.9981 14.9939 17.7301 14.3314 17.254 13.8427C16.778 13.354 16.1327 13.0788 15.4595 13.0775ZM15.4595 6.98125C16.1383 6.98125 16.6905 7.54875 16.6905 8.24563C16.6905 8.9425 16.1383 9.50938 15.4595 9.50938C14.7807 9.50938 14.2285 8.9425 14.2285 8.24563C14.2285 7.54875 14.7807 6.98125 15.4595 6.98125ZM8.04921 4.6075C8.04921 3.91062 8.60139 3.34375 9.28081 3.34375C9.96023 3.34375 10.5118 3.91062 10.5118 4.6075C10.5118 5.30437 9.95962 5.87125 9.28081 5.87125C8.602 5.87125 8.04921 5.30437 8.04921 4.6075ZM10.5112 19.3937C10.5112 20.0906 9.95901 20.6575 9.2802 20.6575C8.60139 20.6575 8.0486 20.0906 8.0486 19.3937C8.0486 18.6969 8.60078 18.13 9.2802 18.13C9.95962 18.13 10.5112 18.6969 10.5112 19.3937ZM9.27959 13.7175C8.3323 13.7175 7.56278 12.9269 7.56278 11.955C7.56278 10.9831 8.33291 10.1925 9.27959 10.1925C10.2263 10.1925 10.9964 10.9831 10.9964 11.955C10.9964 12.9269 10.2263 13.7175 9.27959 13.7175ZM15.4589 16.95C14.7801 16.95 14.2279 16.3825 14.2279 15.6856C14.2279 14.9887 14.7801 14.4219 15.4589 14.4219C16.1377 14.4219 16.6899 14.9887 16.6899 15.6856C16.6899 16.3825 16.1377 16.95 15.4589 16.95Z" fill="#263238"/>
</svg>
