<svg width="24" height="24" viewBox="0 0 24 24" fill="none" xmlns="http://www.w3.org/2000/svg">
<path d="M11.2069 10.429C10.2122 12.1023 9.25922 13.7227 8.28637 15.3309C8.03653 15.7438 7.91287 16.0802 8.11247 16.605C8.66353 18.0548 7.88615 19.4658 6.42515 19.8487C5.04731 20.21 3.70491 19.3038 3.43153 17.8276C3.18928 16.521 4.20253 15.2401 5.64215 15.0359C5.76272 15.0186 5.8859 15.0167 6.08859 15.0015L8.2784 11.3268C6.90112 9.95632 6.08137 8.35439 6.26278 6.36921C6.39103 4.96598 6.94247 3.7533 7.95028 2.75939C9.88059 0.856024 12.8255 0.547833 15.0983 2.00876C17.2812 3.41208 18.281 6.14555 17.4288 8.48508C16.7862 8.31076 16.1392 8.13495 15.4279 7.94187C15.6954 6.64109 15.4975 5.47307 14.6209 4.47241C14.0417 3.81174 13.2984 3.46546 12.4534 3.33787C10.7591 3.08175 9.09572 4.17097 8.60212 5.83511C8.04187 7.72365 8.88984 9.26648 11.2069 10.4291V10.429Z" fill="#C73A63"/>
<path d="M14.0476 8.45023C14.7484 9.6874 15.46 10.9432 16.1652 12.1875C19.7295 11.084 22.417 13.0586 23.3811 15.1725C24.5457 17.7262 23.7495 20.7507 21.4625 22.3261C19.115 23.9434 16.1462 23.6671 14.0664 21.5896C14.5964 21.1455 15.1291 20.6995 15.6983 20.223C17.7525 21.5545 19.5493 21.4918 20.8831 19.9151C22.0206 18.5701 21.9959 16.5645 20.8255 15.2477C19.4747 13.7281 17.6654 13.6818 15.4784 15.1405C14.5712 13.5298 13.6483 11.932 12.7697 10.3097C12.4735 9.76293 12.1465 9.44564 11.4788 9.32996C10.3638 9.13651 9.64401 8.17835 9.60079 7.10489C9.55832 6.04325 10.1834 5.08359 11.1602 4.70972C12.1279 4.33924 13.2635 4.63823 13.9144 5.46158C14.4463 6.13425 14.6154 6.89136 14.3354 7.72099C14.2576 7.95234 14.1568 8.17619 14.0476 8.45032V8.45023Z" fill="#4B4B4B"/>
<path d="M15.7225 18.5638H11.4316C11.0203 20.2566 10.1319 21.6234 8.60125 22.4925C7.41128 23.168 6.12878 23.397 4.76378 23.1764C2.25053 22.7708 0.195527 20.5067 0.0145889 17.9573C-0.190161 15.0693 1.7935 12.5021 4.43753 11.9255C4.62006 12.5889 4.80456 13.2587 4.98709 13.9205C2.56122 15.159 1.72159 16.7196 2.40053 18.671C2.99818 20.3882 4.6959 21.3295 6.53931 20.9655C8.42181 20.5938 9.37094 19.0282 9.25506 16.5156C11.0397 16.5156 12.8258 16.4971 14.6106 16.5247C15.3076 16.5356 15.8456 16.4633 16.3706 15.8484C17.235 14.8367 18.826 14.928 19.7569 15.8835C20.7083 16.8601 20.6628 18.4313 19.656 19.3667C18.6846 20.2692 17.15 20.221 16.2412 19.2485C16.0545 19.0481 15.9073 18.8101 15.7225 18.5638Z" fill="#4A4A4A"/>
</svg>
