<svg width="24" height="24" viewBox="0 0 24 24" fill="none" xmlns="http://www.w3.org/2000/svg">
<path d="M11.2381 8.22508V19.999H2L11.2381 8.22508ZM11.2381 4C11.2381 5.29321 10.7514 6.53345 9.88518 7.44789C9.01895 8.36233 7.84408 8.87605 6.61903 8.87605C5.39399 8.87605 4.21912 8.36233 3.35288 7.44789C2.48665 6.53345 2 5.29321 2 4L11.2381 4ZM12.76 20C12.76 18.7068 13.2466 17.4665 14.1128 16.5521C14.9791 15.6377 16.1539 15.1239 17.379 15.1239C18.604 15.1239 19.7789 15.6377 20.6451 16.5521C21.5114 17.4665 21.998 18.7068 21.998 20H12.76ZM12.76 15.7749V4H22L12.76 15.7739V15.7749Z" fill="#03363D"/>
</svg>
