<svg width="129" height="115" viewBox="0 0 129 115" fill="none" xmlns="http://www.w3.org/2000/svg">
<rect x="0.208766" y="22.26" width="98.0439" height="0.261282" stroke="black" stroke-width="0.261282"/>
<rect x="0.208766" y="52.5613" width="98.0439" height="0.261282" stroke="black" stroke-width="0.261282"/>
<rect x="0.208766" y="83.3845" width="98.0439" height="0.261282" stroke="black" stroke-width="0.261282"/>
<rect x="0.208766" y="114.209" width="98.0439" height="0.261282" fill="#EEFF05" stroke="black" stroke-width="0.261282"/>
<rect y="0.494759" width="2.869" height="2.869" transform="matrix(0.707415 0.706799 -0.707415 0.706799 14.5531 104.513)" fill="#EEFF05" stroke="black" stroke-width="0.7"/>
<rect y="0.494759" width="2.869" height="2.869" transform="matrix(0.707415 0.706799 -0.707415 0.706799 37.7602 104.513)" fill="#EEFF05" stroke="black" stroke-width="0.7"/>
<rect y="0.494753" width="2.869" height="2.869" transform="matrix(0.707423 0.70679 -0.707423 0.70679 37.7602 94.4063)" fill="#EEFF05" stroke="black" stroke-width="0.7"/>
<rect y="0.494771" width="2.869" height="2.869" transform="matrix(0.707398 0.706816 -0.707398 0.706816 61.8617 40.0098)" fill="#EEFF05" stroke="black" stroke-width="0.7"/>
<rect y="0.494762" width="2.869" height="2.869" transform="matrix(0.70741 0.706803 -0.70741 0.706803 57.1 107.188)" fill="#EEFF05" stroke="black" stroke-width="0.7"/>
<rect y="0.494765" width="2.869" height="2.869" transform="matrix(0.707406 0.706807 -0.707406 0.706807 73.1625 97.3789)" fill="#EEFF05" stroke="black" stroke-width="0.7"/>
<rect y="0.494753" width="2.869" height="2.869" transform="matrix(0.707423 0.70679 -0.707423 0.70679 85.0687 74.7876)" fill="#EEFF05" stroke="black" stroke-width="0.7"/>
<rect y="0.494771" width="2.869" height="2.869" transform="matrix(0.707398 0.706816 -0.707398 0.706816 70.7875 66.7622)" fill="#EEFF05" stroke="black" stroke-width="0.7"/>
<rect y="0.494771" width="2.869" height="2.869" transform="matrix(0.707398 0.706816 -0.707398 0.706816 70.7875 66.7622)" fill="#EEFF05" stroke="black" stroke-width="0.7"/>
<rect y="0.494756" width="2.869" height="2.869" transform="matrix(0.707419 0.706795 -0.707419 0.706795 59.182 94.4063)" fill="#EEFF05" stroke="black" stroke-width="0.7"/>
<rect y="0.494762" width="2.869" height="2.869" transform="matrix(0.70741 0.706803 -0.70741 0.706803 59.182 69.4375)" fill="#EEFF05" stroke="black" stroke-width="0.7"/>
<rect y="0.494765" width="2.869" height="2.869" transform="matrix(0.707406 0.706807 -0.707406 0.706807 99.0492 83.4082)" fill="#EEFF05" stroke="black" stroke-width="0.7"/>
<rect y="0.494308" width="2.869" height="2.869" transform="matrix(0.708058 0.706154 -0.708058 0.706154 126.249 0.77318)" fill="#EEFF05" stroke="black" stroke-width="0.7"/>
<rect y="0.494759" width="2.869" height="2.869" transform="matrix(0.707415 0.706799 -0.707415 0.706799 124.76 31.9839)" fill="#EEFF05" stroke="black" stroke-width="0.7"/>
<rect y="0.494765" width="2.869" height="2.869" transform="matrix(0.707406 0.706807 -0.707406 0.706807 101.428 39.7124)" fill="#EEFF05" stroke="black" stroke-width="0.7"/>
<rect y="0.494759" width="2.869" height="2.869" transform="matrix(0.707415 0.706799 -0.707415 0.706799 102.916 22.4722)" fill="#EEFF05" stroke="black" stroke-width="0.7"/>
<rect y="0.494759" width="2.869" height="2.869" transform="matrix(0.707415 0.706799 -0.707415 0.706799 75.5453 34.6597)" fill="#EEFF05" stroke="black" stroke-width="0.7"/>
<rect y="0.494765" width="2.869" height="2.869" transform="matrix(0.707406 0.706807 -0.707406 0.706807 105.592 64.087)" fill="#EEFF05" stroke="black" stroke-width="0.7"/>
<rect y="0.494765" width="2.869" height="2.869" transform="matrix(0.707406 0.706807 -0.707406 0.706807 87.7406 107.188)" fill="#EEFF05" stroke="black" stroke-width="0.7"/>
<rect y="0.494765" width="2.869" height="2.869" transform="matrix(0.707406 0.706807 -0.707406 0.706807 25.2641 106.891)" fill="#EEFF05" stroke="black" stroke-width="0.7"/>
<rect y="0.494765" width="2.869" height="2.869" transform="matrix(0.707406 0.706807 -0.707406 0.706807 17.5297 106.891)" fill="#EEFF05" stroke="black" stroke-width="0.7"/>
<rect y="0.494759" width="2.869" height="2.869" transform="matrix(0.707415 0.706799 -0.707415 0.706799 9.20156 108.972)" fill="#EEFF05" stroke="black" stroke-width="0.7"/>
<rect y="0.494759" width="2.869" height="2.869" transform="matrix(0.707415 0.706799 -0.707415 0.706799 16.9359 108.972)" fill="#EEFF05" stroke="black" stroke-width="0.7"/>
<rect y="0.494759" width="2.869" height="2.869" transform="matrix(0.707415 0.706799 -0.707415 0.706799 26.1586 104.513)" fill="#EEFF05" stroke="black" stroke-width="0.7"/>
<rect y="0.494759" width="2.869" height="2.869" transform="matrix(0.707415 0.706799 -0.707415 0.706799 11.8812 108.972)" fill="#EEFF05" stroke="black" stroke-width="0.7"/>
<rect y="0.494759" width="2.869" height="2.869" transform="matrix(0.707415 0.706799 -0.707415 0.706799 31.2172 108.972)" fill="#EEFF05" stroke="black" stroke-width="0.7"/>
<rect y="0.494759" width="2.869" height="2.869" transform="matrix(0.707415 0.706799 -0.707415 0.706799 5.92812 108.972)" fill="#EEFF05" stroke="black" stroke-width="0.7"/>
<rect y="0.494759" width="2.869" height="2.869" transform="matrix(0.707415 0.706799 -0.707415 0.706799 22.5922 107.188)" fill="#EEFF05" stroke="black" stroke-width="0.7"/>
<rect y="0.494753" width="2.869" height="2.869" transform="matrix(0.707423 0.70679 -0.707423 0.70679 51.1508 94.7037)" fill="#EEFF05" stroke="black" stroke-width="0.7"/>
</svg>
