<svg width="113" height="114" viewBox="0 0 113 114" fill="none" xmlns="http://www.w3.org/2000/svg">
<rect x="47.2578" y="0.5" width="64.6736" height="64.7484" stroke="black" stroke-dasharray="8 5"/>
<rect x="0.128906" y="21.0396" width="65.6736" height="65.7484" fill="#EEFF05"/>
<path d="M74.9966 34.0396L75.5061 33.5143L79.2298 37.2375V26.3594H79.9577V37.2375L83.6852 33.5143L84.1909 34.0396L79.5937 38.6294L74.9966 34.0396Z" fill="black"/>
<path d="M64.4578 71.4576L48.5153 67.1208L52.8483 83.0775L57.1812 99.0343L64.5724 91.6365L79.1256 106.203L87.5624 97.7584L73.0092 83.1922L80.4003 75.7944L64.4578 71.4576Z" stroke="black" stroke-miterlimit="10"/>
<line y1="-0.5" x2="22.3031" y2="-0.5" transform="matrix(-0.706705 0.707509 -0.706705 -0.707509 45.4453 95.9922)" stroke="black"/>
<line y1="-0.5" x2="13.0101" y2="-0.5" transform="matrix(-0.706705 0.707509 -0.706705 -0.707509 37.5625 94.6777)" stroke="black"/>
</svg>
