<svg width="24" height="24" viewBox="0 0 24 24" fill="none" xmlns="http://www.w3.org/2000/svg">
<path d="M22.9996 16.1197L13.0034 14.6937L3.00049 16.1215L13.0008 19.7203L22.9996 16.1197Z" fill="#B7CA9D"/>
<path d="M5.00208 15.9534L6.69184 16.4663L6.84582 16.2965V4.81465L6.69184 4.61855L5.00208 5.24623V15.9534" fill="#4B612C"/>
<path d="M12.6744 15.4459L6.69177 16.4663V4.61885L12.6744 5.92535V15.4459Z" fill="#759C3E"/>
<path d="M10.0068 17.4537L7.67505 16.7557V2.13249L10.0068 1.00032L10.2109 1.21615V17.2123L10.0068 17.4537" fill="#4B612C"/>
<path d="M17.9972 15.6333L10.0068 17.4536V1L17.9972 4.02432V15.6333Z" fill="#759C3E"/>
<path d="M12.9973 19.5645L3.00049 16.1215V18.1185L12.9973 22.9724V19.5645" fill="#4B612C"/>
<path d="M22.9996 18.1161L12.9973 22.9724V19.5645L22.9996 16.1197V18.1161Z" fill="#759C3E"/>
<path d="M20.1902 12.8111H17.7664L10.8569 13.2683L13 13.6519L20.1902 12.8111Z" fill="#B7CA9D"/>
<path d="M10.8569 17.6825L12.999 18.3066L13.0607 18.2422L13.0589 13.5502L12.9972 13.4927L10.8569 13.2683V17.6825" fill="#4B612C"/>
<path d="M20.1903 12.8111L12.9973 13.4924L12.9991 18.3066L20.1903 16.2043V12.8111Z" fill="#759C3E"/>
</svg>
