<svg width="24" height="24" viewBox="0 0 24 24" fill="none" xmlns="http://www.w3.org/2000/svg">
<path d="M22 2H2V22H22V2Z" fill="url(#paint0_linear)"/>
<path d="M11.1997 9.31467C10.869 9.31434 10.55 9.43688 10.3046 9.6585C10.0593 9.88013 9.90497 10.185 9.87174 10.514C9.83851 10.843 9.92871 11.1726 10.1248 11.4388C10.3209 11.705 10.609 11.8889 10.933 11.9547V13.712C10.9293 13.8432 10.8858 13.9701 10.8081 14.0759C10.7304 14.1816 10.6224 14.2612 10.4983 14.304L8.07967 15.2533C7.89591 15.3246 7.72948 15.4342 7.59152 15.5749C7.45355 15.7156 7.34723 15.8842 7.27967 16.0693C7.17157 16.0119 7.05569 15.9706 6.93567 15.9467V13.872C7.23708 13.8108 7.50806 13.6473 7.7027 13.4091C7.89734 13.171 8.00367 12.8729 8.00367 12.5653C8.00367 12.2578 7.89734 11.9597 7.7027 11.7215C7.50806 11.4834 7.23708 11.3199 6.93567 11.2587V7.98934C7.25941 7.92325 7.54709 7.73931 7.74292 7.47318C7.93875 7.20705 8.02879 6.87768 7.99558 6.54893C7.96237 6.22018 7.80828 5.91548 7.56317 5.69389C7.31807 5.4723 6.99942 5.34961 6.669 5.34961C6.33858 5.34961 6.01993 5.4723 5.77483 5.69389C5.52972 5.91548 5.37563 6.22018 5.34242 6.54893C5.30921 6.87768 5.39925 7.20705 5.59508 7.47318C5.79091 7.73931 6.07859 7.92325 6.40233 7.98934V11.2587C6.10092 11.3199 5.82994 11.4834 5.6353 11.7215C5.44066 11.9597 5.33433 12.2578 5.33433 12.5653C5.33433 12.8729 5.44066 13.171 5.6353 13.4091C5.82994 13.6473 6.10092 13.8108 6.40233 13.872V15.9467C6.11924 16.0036 5.8623 16.151 5.67013 16.3665C5.47797 16.582 5.36097 16.8541 5.33674 17.1419C5.3125 17.4296 5.38233 17.7175 5.53574 17.9621C5.68914 18.2068 5.91782 18.395 6.18739 18.4985C6.45697 18.602 6.75286 18.6152 7.03058 18.5361C7.3083 18.457 7.55284 18.2899 7.72742 18.0599C7.902 17.8299 7.99719 17.5494 7.99868 17.2607C8.00017 16.9719 7.90787 16.6905 7.73567 16.4587C7.74513 16.3015 7.80079 16.1505 7.89567 16.0248C7.99054 15.8991 8.12041 15.8042 8.269 15.752L10.693 14.8C10.917 14.7176 11.1108 14.5693 11.2488 14.3746C11.3869 14.1799 11.4627 13.948 11.4663 13.7093V11.9547C11.7904 11.8889 12.0784 11.705 12.2745 11.4388C12.4706 11.1726 12.5608 10.843 12.5276 10.514C12.4944 10.185 12.3401 9.88013 12.0947 9.6585C11.8493 9.43688 11.5303 9.31434 11.1997 9.31467ZM5.86633 6.68534C5.86633 6.52711 5.91325 6.37244 6.00116 6.24088C6.08906 6.10932 6.21401 6.00678 6.36019 5.94623C6.50637 5.88568 6.66722 5.86984 6.82241 5.90071C6.97759 5.93158 7.12014 6.00777 7.23202 6.11965C7.3439 6.23153 7.42009 6.37408 7.45096 6.52927C7.48183 6.68445 7.46599 6.8453 7.40544 6.99148C7.34489 7.13766 7.24235 7.26261 7.11079 7.35051C6.97923 7.43842 6.82456 7.48534 6.66633 7.48534C6.45416 7.48534 6.25068 7.40105 6.10065 7.25102C5.95062 7.10099 5.86633 6.89751 5.86633 6.68534ZM5.86633 12.552C5.86633 12.3938 5.91325 12.2391 6.00116 12.1075C6.08906 11.976 6.21401 11.8735 6.36019 11.8129C6.50637 11.7524 6.66722 11.7365 6.82241 11.7674C6.97759 11.7982 7.12014 11.8744 7.23202 11.9863C7.3439 12.0982 7.42009 12.2407 7.45096 12.3959C7.48183 12.5511 7.46599 12.712 7.40544 12.8582C7.34489 13.0043 7.24235 13.1293 7.11079 13.2172C6.97923 13.3051 6.82456 13.352 6.66633 13.352C6.45645 13.352 6.25496 13.2696 6.10531 13.1224C5.95566 12.9753 5.86983 12.7752 5.86633 12.5653V12.552ZM6.66633 18.04C6.50811 18.04 6.35344 17.9931 6.22188 17.9052C6.09032 17.8173 5.98778 17.6923 5.92723 17.5462C5.86668 17.4 5.85084 17.2391 5.88171 17.0839C5.91257 16.9287 5.98877 16.7862 6.10065 16.6743C6.21253 16.5624 6.35508 16.4862 6.51026 16.4554C6.66545 16.4245 6.8263 16.4403 6.97248 16.5009C7.11866 16.5615 7.2436 16.664 7.33151 16.7955C7.41941 16.9271 7.46633 17.0818 7.46633 17.24C7.4681 17.3462 7.44872 17.4516 7.40931 17.5502C7.3699 17.6489 7.31125 17.7386 7.23679 17.8143C7.16232 17.89 7.07353 17.9502 6.97559 17.9912C6.87765 18.0322 6.77252 18.0534 6.66633 18.0533V18.04ZM11.1997 11.4347C11.0414 11.4347 10.8868 11.3878 10.7552 11.2998C10.6237 11.2119 10.5211 11.087 10.4606 10.9408C10.4 10.7946 10.3842 10.6338 10.415 10.4786C10.4459 10.3234 10.5221 10.1809 10.634 10.069C10.7459 9.9571 10.8884 9.88091 11.0436 9.85004C11.1988 9.81917 11.3596 9.83502 11.5058 9.89557C11.652 9.95612 11.7769 10.0587 11.8648 10.1902C11.9527 10.3218 11.9997 10.4764 11.9997 10.6347C12.0014 10.7408 11.982 10.8463 11.9426 10.9449C11.9032 11.0435 11.8446 11.1333 11.7701 11.209C11.6957 11.2847 11.6069 11.3448 11.5089 11.3859C11.411 11.4269 11.3059 11.448 11.1997 11.448V11.4347Z" fill="white"/>
<path d="M18.4003 18.6481H11.2003C11.1295 18.6481 11.0617 18.62 11.0117 18.57C10.9617 18.52 10.9336 18.4522 10.9336 18.3814V15.4481H11.4669V18.1148H18.1336V8.51478H11.4669V7.98145H18.4003C18.471 7.98145 18.5388 8.00954 18.5888 8.05955C18.6388 8.10956 18.6669 8.17739 18.6669 8.24811V18.3814C18.6669 18.4522 18.6388 18.52 18.5888 18.57C18.5388 18.62 18.471 18.6481 18.4003 18.6481Z" fill="white"/>
<path d="M13.5549 14.5066L12.4829 13.4666C12.4553 13.4398 12.4339 13.4073 12.4201 13.3714C12.4063 13.3355 12.4004 13.297 12.4029 13.2586C12.4056 13.2204 12.4166 13.1833 12.435 13.1497C12.4534 13.1161 12.4788 13.0869 12.5096 13.064L13.7069 12.168L14.0269 12.5946L13.0802 13.304L13.9256 14.128L13.5549 14.5066Z" fill="white"/>
<path d="M16.1638 14.677L15.8438 14.2503L16.7904 13.541L15.9451 12.717L16.3158 12.333L17.3824 13.3757C17.4101 13.4026 17.4317 13.4352 17.4455 13.4713C17.4594 13.5073 17.4653 13.546 17.4628 13.5845C17.4602 13.6231 17.4493 13.6606 17.4309 13.6945C17.4124 13.7284 17.3868 13.758 17.3558 13.781L16.1638 14.677Z" fill="white"/>
<path d="M15.4395 11.7393L13.9141 15.2109L14.4023 15.4255L15.9277 11.9538L15.4395 11.7393Z" fill="white"/>
<path d="M10.3216 8.85897L10.1323 9.04831L9.94296 9.23764L8.79896 8.09364V9.04831H8.26562V7.44831C8.26562 7.37758 8.29372 7.30975 8.34373 7.25975C8.39374 7.20974 8.46157 7.18164 8.53229 7.18164H10.1323V7.71497H9.17763L10.3216 8.85897Z" fill="white"/>
<defs>
<linearGradient id="paint0_linear" x1="-2.14226" y1="26.142" x2="26.142" y2="-2.14229" gradientUnits="userSpaceOnUse">
<stop stop-color="#2E27AD"/>
<stop offset="1" stop-color="#527FFF"/>
</linearGradient>
</defs>
</svg>
