<svg width="24" height="24" viewBox="0 0 24 24" fill="none" xmlns="http://www.w3.org/2000/svg">
<path d="M3.5 13.1667L11.9837 16.9826L20.4672 13.1667L11.9837 12.8232L3.5 13.1667Z" fill="#FCBF92"/>
<path d="M12.0097 2L3.50391 6.14496V11.9935H13.7032V2.82736L12.0097 2Z" fill="#9D5025"/>
<path d="M3.50391 16.1172L12.0147 22.0007L20.5 16.1172L11.9963 14.9082L3.50391 16.1172Z" fill="#FCBF92"/>
<path d="M12.0078 11.9931H16.4953V5.75238L15.185 5.24023L12.0078 6.14571V11.9931Z" fill="#9D5025"/>
<path d="M15.1875 11.9939H18.6561V7.94603L17.6639 7.65527L15.1875 8.066V11.9939Z" fill="#9D5025"/>
<path d="M17.6641 7.33755V11.9935H20.468L20.5008 7.31685L19.6491 6.98438L17.6641 7.33755Z" fill="#9D5025"/>
<path d="M12.0078 2V11.9935H13.7012V2.82736L12.0078 2Z" fill="#F68534"/>
<path d="M16.4979 5.75244L15.1875 5.24023V11.9932H16.4979V5.75244Z" fill="#F68534"/>
<path d="M18.6562 7.94603L17.6641 7.65527V11.9939H18.6562V7.94603Z" fill="#F68534"/>
<path d="M19.6484 11.9935H20.5002V7.31685L19.6484 6.98438V11.9935Z" fill="#F68534"/>
<path d="M11.9844 13.995V16.9819L20.4679 14.9157V13.166L11.9844 13.995Z" fill="#F68534"/>
<path d="M11.9844 19.0505V21.9997L20.5006 17.8392V16.1162L11.9844 19.0505Z" fill="#F68534"/>
<path d="M3.50391 17.8572L11.9837 21.9997V19.0289L3.50391 16.1162V17.8572Z" fill="#9D5025"/>
<path d="M3.5 14.9157L11.9837 16.9819V13.995L3.5 13.166V14.9157Z" fill="#9D5025"/>
</svg>
