<svg width="24" height="24" viewBox="0 0 24 24" fill="none" xmlns="http://www.w3.org/2000/svg">
<g clip-path="url(#clip0_2_1600)">
<path fill-rule="evenodd" clip-rule="evenodd" d="M18.6933 10.5825H13.4933L16.08 12.63L18.6933 10.5825ZM8.16 13.3388C8.10667 13.3388 8.02667 13.3388 7.97333 13.2863L5.57333 11.37V14.52H11.0933V11.3175L8.50667 13.3125C8.34667 13.3388 8.24 13.3388 8.16 13.3388ZM16.08 13.3388C16.0267 13.3388 15.8933 13.3388 15.8933 13.2863L13.4133 11.37V14.52H18.9333V11.3175L16.3467 13.3125C16.2133 13.3388 16.16 13.3388 16.08 13.3388ZM18.0533 1.5H6.02667L0 12L6.02667 22.5H18L24 12L18.0533 1.5ZM20.1333 16.4888H3.73333C3.22667 16.4888 2.85333 16.0425 2.85333 15.5175V9.19125C2.85333 8.66625 3.22667 8.22 3.73333 8.22H20.1333C20.32 8.22 20.64 8.22 22.8 12.315L22.8533 12.4988L22.8 12.6825C20.64 16.4887 20.32 16.4888 20.1333 16.4888ZM10.7733 10.5825H5.52L8.10667 12.63L10.7733 10.5825ZM3.73333 8.92875C3.6 8.92875 3.49333 9.06 3.49333 9.19125V15.5175C3.49333 15.6488 3.62667 15.8325 3.73333 15.8325H20C20.32 15.5175 21.2533 13.9688 22.08 12.4988C21.28 10.9238 20.2667 9.24375 20 8.92875H3.73333ZM11.7067 14.8088C11.7067 14.9925 11.52 15.2025 11.2533 15.2025H5.06667C4.88 15.2025 4.8 15.0188 4.8 14.8088V10.1363C4.8 9.9525 4.85333 9.87375 5.06667 9.87375H11.28C11.4667 9.87375 11.7333 9.92625 11.7333 10.1363L11.7067 14.8088ZM19.4933 14.8088C19.4933 14.9925 19.36 15.2025 19.1733 15.2025H13.04C12.8533 15.2025 12.72 15.0188 12.72 14.8088V10.1363C12.72 9.9525 12.8533 9.87375 13.04 9.87375H19.1733C19.36 9.87375 19.4933 9.92625 19.4933 10.1363V14.8088Z" fill="#0078D7"/>
</g>
<defs>
<clipPath id="clip0_2_1600">
<rect width="24" height="21" fill="white" transform="matrix(1 0 0 -1 0 22.5)"/>
</clipPath>
</defs>
</svg>
