<svg width="16" height="16" viewBox="0 0 16 16" fill="none" xmlns="http://www.w3.org/2000/svg">
<path d="M7.99888 9.49907C7.75489 9.499 7.51444 9.44072 7.29751 9.32906L0.491116 5.80752C0.342963 5.73053 0.218808 5.61432 0.1322 5.47157C0.0455933 5.32883 -0.000137279 5.16503 3.09557e-07 4.99807C0.000137898 4.8311 0.0461383 4.66739 0.132981 4.52478C0.219823 4.38218 0.34417 4.26618 0.492449 4.18943L7.29684 0.669224C7.51391 0.558004 7.75431 0.5 7.99821 0.5C8.24212 0.5 8.48252 0.558004 8.69959 0.669224L15.5066 4.19009C15.6553 4.26663 15.7799 4.38262 15.8669 4.52534C15.954 4.66805 16 4.83198 16 4.99914C16 5.1663 15.954 5.33023 15.8669 5.47294C15.7799 5.61566 15.6553 5.73165 15.5066 5.80819L8.70026 9.32906C8.48326 9.44055 8.24285 9.49882 7.99888 9.49907V9.49907ZM7.75687 8.44034C7.83179 8.47904 7.91489 8.49924 7.99921 8.49924C8.08354 8.49924 8.16664 8.47904 8.24156 8.44034L14.8946 4.99881L8.24156 1.55727C8.16671 1.51836 8.08358 1.49804 7.99921 1.49804C7.91485 1.49804 7.83172 1.51836 7.75687 1.55727L1.10448 4.99881L7.75687 8.44034V8.44034Z" fill="#4CAF50"/>
<path d="M8.00015 12.4995C7.75614 12.4995 7.51346 12.4408 7.29678 12.3288L0.291042 8.94926C0.231725 8.92096 0.178604 8.88119 0.134749 8.83224C0.0908939 8.7833 0.057174 8.72615 0.0355381 8.66409C0.0139022 8.60203 0.00477943 8.5363 0.00869697 8.4707C0.0126145 8.4051 0.0294947 8.34092 0.058362 8.28188C0.116329 8.16283 0.219041 8.07154 0.344075 8.02795C0.46911 7.98436 0.606313 7.992 0.725734 8.0492L7.74414 11.4347C7.82342 11.4761 7.9114 11.498 8.00082 11.4987C8.08416 11.4987 8.1675 11.4787 8.2415 11.4401L15.2926 8.04854C15.4113 7.99601 15.5458 7.99174 15.6677 8.03662C15.7895 8.0815 15.8891 8.17203 15.9454 8.28904C16.0017 8.40605 16.0103 8.54037 15.9693 8.66358C15.9284 8.7868 15.8411 8.88925 15.7259 8.94926L8.68753 12.3348C8.48151 12.4415 8.24217 12.4995 8.00015 12.4995V12.4995Z" fill="#4CAF50"/>
<path d="M8.00015 15.4995C7.75614 15.4995 7.51346 15.4408 7.29678 15.3288L0.291042 11.9493C0.231725 11.921 0.178604 11.8812 0.134749 11.8323C0.0908939 11.7833 0.057174 11.7262 0.0355381 11.6641C0.0139022 11.6021 0.00477943 11.5363 0.00869697 11.4707C0.0126145 11.4051 0.0294947 11.341 0.058362 11.2819C0.116462 11.1628 0.219295 11.0715 0.344438 11.0279C0.469581 10.9843 0.606882 10.992 0.7264 11.0492L7.7448 14.4348C7.82397 14.4764 7.91202 14.4984 8.00149 14.4988C8.08482 14.4988 8.16816 14.4788 8.24217 14.4408L15.2932 11.0492C15.412 10.9967 15.5465 10.9924 15.6684 11.0373C15.7902 11.0822 15.8898 11.1727 15.9461 11.2897C16.0024 11.4068 16.011 11.5411 15.97 11.6643C15.929 11.7875 15.8417 11.89 15.7266 11.95L8.68819 15.3355C8.48151 15.4415 8.24217 15.4995 8.00015 15.4995V15.4995Z" fill="#4CAF50"/>
</svg>
