<svg width="24" height="24" viewBox="0 0 24 24" fill="none" xmlns="http://www.w3.org/2000/svg">
<g clip-path="url(#clip0_102_31)">
<path d="M17.3619 16.738C19.0246 16.738 20.8312 15.6266 21.2373 13.9772C21.7036 12.0832 20.6108 10.1314 18.7774 9.58616C18.4266 9.48187 18.0665 9.44796 17.7021 9.44853C17.1667 9.44942 16.6312 9.44878 16.0813 9.44878C16.1187 8.06036 15.636 6.91443 14.5542 6.06117C13.8643 5.51705 13.0701 5.26248 12.2009 5.29087C11.2162 5.32301 10.3659 5.70067 9.66741 6.4119C8.97075 7.12117 8.60713 7.98897 8.54124 8.96791L7.03442 8.43979C7.16859 6.75018 8.5137 4.4164 11.121 3.80381C14.0952 3.10496 16.8514 5.07549 17.4983 7.84726C17.7455 7.84726 18.0027 7.82256 18.254 7.8512C20.2729 8.08106 21.7048 9.15808 22.503 11.0514C23.4892 13.391 22.6513 16.1464 20.5919 17.5169C19.7359 18.0866 18.3844 18.3653 17.3658 18.3677" fill="#4DCEF3"/>
<path d="M16.1668 18.3581C16.1668 18.3581 13.7238 18.3765 11.7133 18.3623C9.59886 18.3473 7.89287 16.97 7.36599 15.0975C6.90844 13.4715 7.27563 12.015 8.37489 10.7484C9.07436 9.94261 9.94203 9.42604 10.9917 9.24242C12.7614 8.93273 14.5427 9.73491 15.496 11.2755C16.1114 12.2701 16.342 13.3515 16.1769 14.5167C16.1666 14.5896 16.1498 14.6283 16.0646 14.6281C14.6367 14.6257 13.2089 14.6263 11.781 14.6259C11.7609 14.6259 11.7408 14.6215 11.71 14.6178C11.7075 14.5743 11.7033 14.5337 11.7033 14.4931C11.7028 14.0465 11.7028 13.5998 11.7031 13.1531C11.7033 12.9718 11.7228 12.9529 11.9048 12.9529H14.4841C14.4613 12.8811 14.4475 12.8214 14.4242 12.7659C14.0015 11.757 13.2578 11.1298 12.1936 10.95C11.1267 10.7696 10.195 11.0902 9.49411 11.9358C8.41625 13.2363 8.75372 15.3075 10.1684 16.2434C10.6557 16.5658 11.1884 16.7259 11.7714 16.7253C13.7613 16.7233 16.1628 16.7249 16.1628 16.7249L16.1668 18.3581" fill="#4DCEF3"/>
<path d="M6.46222 16.3679L7.44872 17.6345C6.0857 18.5051 3.78806 18.5389 2.18601 16.8912C0.568812 15.2279 0.468129 12.5578 1.96449 10.7613C3.48194 8.93947 5.89341 8.80551 7.45203 9.76604L6.46228 11.034C5.69167 10.6949 4.88463 10.6833 4.08642 11.0673C3.54984 11.3255 3.1354 11.7254 2.84161 12.2523C2.23338 13.3434 2.36948 14.6957 3.18158 15.6378C3.95357 16.5334 5.24557 16.9176 6.46222 16.3679" fill="#4DCEF3"/>
</g>
<defs>
<clipPath id="clip0_102_31">
<rect width="22.875" height="15.5966" fill="white" transform="translate(0.4646 3.20169)"/>
</clipPath>
</defs>
</svg>
