<svg width="30" height="30" viewBox="0 0 30 30" fill="none" xmlns="http://www.w3.org/2000/svg">
<path d="M10.177 25C19.9888 25 25.3545 16.923 25.3545 9.91822C25.3545 9.68893 25.3491 9.46071 25.3393 9.23249C26.3833 8.48177 27.2842 7.55222 28 6.48741C27.0266 6.91667 25.9939 7.19827 24.9363 7.32278C26.0502 6.66056 26.884 5.61887 27.2828 4.39147C26.2355 5.00868 25.0899 5.44374 23.8953 5.67789C23.0921 4.82559 22.0282 4.26061 20.8688 4.07064C19.7094 3.88068 18.5193 4.07635 17.4833 4.6273C16.4473 5.17824 15.6233 6.05363 15.1392 7.11758C14.6551 8.18153 14.538 9.37452 14.8061 10.5114C12.6849 10.4058 10.6098 9.85812 8.71548 8.90394C6.82114 7.94976 5.1499 6.61039 3.81025 4.97278C3.33585 5.78154 3.08612 6.70099 3.08658 7.63712C3.08577 8.51013 3.30214 9.3698 3.71644 10.1396C4.13073 10.9095 4.73012 11.5656 5.46125 12.0497C4.61417 12.024 3.78568 11.7966 3.04542 11.3866L3.04433 11.4544C3.04446 12.6782 3.47067 13.8643 4.25063 14.8114C5.0306 15.7585 6.11629 16.4084 7.3235 16.6507C6.53782 16.8629 5.71372 16.8938 4.91417 16.7411C5.25484 17.7944 5.91836 18.7156 6.81189 19.3757C7.70542 20.0359 8.78427 20.4019 9.8975 20.4227C8.00817 21.8965 5.67482 22.6958 3.27292 22.692C2.84283 22.692 2.41708 22.6672 2 22.6188C4.43909 24.1761 7.2778 25.0028 10.177 25Z" fill="#449BE9"/>
</svg>
