<svg width="24" height="24" viewBox="0 0 24 24" fill="none" xmlns="http://www.w3.org/2000/svg">
<path d="M4.00977 7.625H17.3135C18.7796 7.625 20.0887 6.95419 20.9672 5.90697C19.1348 3.53196 16.2589 2 13.0229 2C9.06065 2 5.63625 4.29503 4.00977 7.625Z" fill="#F0BF1A"/>
<path d="M16.1848 9.1875H3.40465C3.14295 10.08 3 11.0231 3 12C3 12.9769 3.14295 13.9201 3.40465 14.8125H16.1848C17.7194 14.8125 19.0034 13.5625 19.0034 12C19.0034 10.4375 17.7507 9.1875 16.1848 9.1875Z" fill="#07A5DE"/>
<path d="M21.0013 18.0496C20.1285 17.0259 18.8298 16.375 17.376 16.375H4.00977C5.63625 19.705 9.06065 22 13.0229 22C16.2788 22 19.1708 20.4497 21.0013 18.0496Z" fill="#3EBEB0"/>
<path d="M3.40465 9.1875C3.14288 10.08 3 11.0231 3 12C3 12.9769 3.14288 13.9201 3.40465 14.8125H11.769C11.9882 13.9687 12.1134 13.0313 12.1134 12C12.1134 10.9687 11.9882 10.0313 11.769 9.1875H3.40465Z" fill="#231F20"/>
<path d="M7.97936 3.34375C6.28812 4.34375 4.87883 5.84372 4.00195 7.62503H11.393C10.6414 5.90623 9.4513 4.46878 7.97936 3.34375Z" fill="#D7A229"/>
<path d="M8.29254 20.8125C9.73312 19.6563 10.8919 18.125 11.6122 16.375H4.00195C4.94148 18.25 6.44478 19.8125 8.29254 20.8125Z" fill="#019B8F"/>
</svg>
