<svg width="24" height="24" viewBox="0 0 24 24" fill="none" xmlns="http://www.w3.org/2000/svg">
<path fill-rule="evenodd" clip-rule="evenodd" d="M6.82698 1.66805C5.70099 1.66805 4.78819 2.56534 4.78819 3.6722C4.78819 4.77906 5.70099 5.67635 6.82698 5.67635C7.95298 5.67635 8.86577 4.77906 8.86577 3.6722C8.86577 2.56534 7.95298 1.66805 6.82698 1.66805ZM4.10859 3.6722C4.10859 2.19638 5.32566 1 6.82698 1C8.32831 1 9.54537 2.19638 9.54537 3.6722C9.54537 4.51574 9.14776 5.26799 8.52671 5.75773L9.98193 8.12825L9.93233 8.15768H14.5986L17.0228 12.4056L14.7938 16.2638L16.4139 18.8802C16.7482 18.7358 17.1178 18.6556 17.5064 18.6556C19.0077 18.6556 20.2248 19.852 20.2248 21.3278C20.2248 22.8036 19.0077 24 17.5064 24C16.005 24 14.788 22.8036 14.788 21.3278C14.788 20.4734 15.1959 19.7126 15.8308 19.2234L14.2087 16.6037H9.39612L6.96771 12.4003L9.37733 8.43637L7.94767 6.10747C7.60596 6.25966 7.22654 6.3444 6.82698 6.3444C5.32566 6.3444 4.10859 5.14801 4.10859 3.6722ZM14.2018 15.9357L16.2424 12.4036L14.2006 8.82573H9.93234L7.75419 12.4088L9.79171 15.9357H14.2018ZM12.4094 3.43361H17.5491L18.7731 5.35874C19.125 5.1952 19.5184 5.10373 19.9335 5.10373C21.4348 5.10373 22.6519 6.30012 22.6519 7.77593C22.6519 8.6904 22.1846 9.49758 21.4719 9.97933L23 12.3994L20.7123 16.2474L20.1256 15.9103L22.2067 12.4098L20.8662 10.2867C20.5753 10.3911 20.2612 10.4481 19.9335 10.4481C18.4322 10.4481 17.2151 9.25175 17.2151 7.77593C17.2151 6.94786 17.5983 6.20776 18.1998 5.71761L17.1724 4.10166H12.4094V3.43361ZM19.9335 5.77178C18.8075 5.77178 17.8947 6.66907 17.8947 7.77593C17.8947 8.88279 18.8075 9.78008 19.9335 9.78008C21.0595 9.78008 21.9723 8.88279 21.9723 7.77593C21.9723 6.66907 21.0595 5.77178 19.9335 5.77178ZM1.78041 12.5043L4.15988 8.46832L3.57189 8.13334L1 12.4957L2.41144 15.0184C1.9014 15.5041 1.58438 16.1845 1.58438 16.9378C1.58438 18.4136 2.80144 19.61 4.30277 19.61C4.59412 19.61 4.87477 19.5649 5.1379 19.4815L6.38554 21.6618H11.5356V20.9938H6.783L5.75492 19.1971C6.51591 18.7235 7.02115 17.8886 7.02115 16.9378C7.02115 15.4619 5.80409 14.2656 4.30277 14.2656C3.81461 14.2656 3.35651 14.392 2.96052 14.6135L1.78041 12.5043ZM3.2128 15.2438L3.28985 15.2021L3.28813 15.199C3.58693 15.0302 3.93338 14.9336 4.30277 14.9336C5.42876 14.9336 6.34156 15.8309 6.34156 16.9378C6.34156 18.0446 5.42876 18.9419 4.30277 18.9419C3.17677 18.9419 2.26397 18.0446 2.26397 16.9378C2.26397 16.225 2.64253 15.5991 3.2128 15.2438ZM17.5064 19.3237C16.3804 19.3237 15.4676 20.2209 15.4676 21.3278C15.4676 22.4347 16.3804 23.332 17.5064 23.332C18.6324 23.332 19.5452 22.4347 19.5452 21.3278C19.5452 20.2209 18.6324 19.3237 17.5064 19.3237Z" fill="#BE3664"/>
</svg>
