<svg width="24" height="24" viewBox="0 0 24 24" fill="none" xmlns="http://www.w3.org/2000/svg">
<g clip-path="url(#clip0_2_1492)">
<path d="M5.21072 21.6031L0.288857 13.0779C0.0996233 12.7501 0 12.3783 0 11.9999C0 11.6214 0.0996233 11.2496 0.288857 10.9219L5.21072 2.39682C5.39998 2.06901 5.6722 1.79679 6.00001 1.60754C6.32783 1.41829 6.69969 1.31867 7.07821 1.3187H16.9219C17.3004 1.3187 17.6722 1.41834 18 1.60759C18.3278 1.79684 18.6 2.06903 18.7892 2.39682L23.7111 10.9219C23.9004 11.2496 24 11.6215 24 12C24 12.3785 23.9004 12.7503 23.7111 13.0781L18.7892 21.6029C18.6 21.9307 18.3278 22.2029 18 22.3922C17.6722 22.5814 17.3004 22.6811 16.9219 22.6811H7.07821C6.69968 22.6811 6.32782 22.5815 6 22.3922C5.67218 22.203 5.39996 21.9308 5.21072 21.6029V21.6031Z" fill="#4285F4"/>
<path opacity="0.07" fill-rule="evenodd" clip-rule="evenodd" d="M22.1697 15.6663L18.7422 21.6029C18.5529 21.9307 18.2808 22.2029 17.953 22.3922C17.6252 22.5814 17.2534 22.681 16.8749 22.6811H16.0832L7.89583 14.4935L9.0017 12.5293L7.88477 11.4122L9.19914 10.1015L15.9821 9.4781L22.1697 15.6663Z" fill="black"/>
<path d="M15.8812 9.42562H8.11202C7.98695 9.42562 7.88477 9.52799 7.88477 9.65324V11.2594C7.88477 11.3842 7.98714 11.4866 8.11202 11.4866H15.8812C16.0063 11.4866 16.1087 11.3842 16.1087 11.2594V9.65287C16.1087 9.52799 16.0065 9.42543 15.8814 9.42543L15.8812 9.42562ZM14.6784 10.9209C14.5553 10.9206 14.4372 10.8715 14.3502 10.7843C14.2632 10.6972 14.2142 10.5791 14.214 10.4559C14.2139 10.3949 14.2259 10.3345 14.2492 10.2781C14.2726 10.2218 14.3068 10.1705 14.3499 10.1274C14.3931 10.0843 14.4443 10.0501 14.5006 10.0267C14.557 10.0034 14.6174 9.99144 14.6784 9.99149C14.9353 9.99149 15.1434 10.1983 15.1434 10.4559C15.1434 10.517 15.1314 10.5775 15.108 10.6339C15.0847 10.6903 15.0504 10.7416 15.0072 10.7847C14.9641 10.8279 14.9128 10.8622 14.8564 10.8855C14.8 10.9089 14.7395 10.9209 14.6784 10.9209V10.9209ZM15.8812 12.513L8.11202 12.5134C7.98695 12.5134 7.88477 12.6157 7.88477 12.741V14.3469C7.88477 14.4718 7.98714 14.5743 8.11202 14.5743H15.8812C16.0063 14.5743 16.1087 14.4718 16.1087 14.3469V12.7406C16.1087 12.6157 16.0065 12.513 15.8814 12.513H15.8812ZM14.6784 14.0085C14.5552 14.0082 14.4372 13.9591 14.3502 13.8719C14.2631 13.7848 14.2141 13.6667 14.214 13.5435C14.2139 13.4825 14.2259 13.4221 14.2492 13.3657C14.2726 13.3093 14.3068 13.2581 14.3499 13.215C14.3931 13.1718 14.4443 13.1376 14.5006 13.1143C14.557 13.091 14.6174 13.079 14.6784 13.079C14.741 13.0765 14.8035 13.0867 14.862 13.1089C14.9206 13.1311 14.9741 13.1649 15.0192 13.2083C15.0644 13.2517 15.1003 13.3038 15.1249 13.3614C15.1494 13.419 15.1621 13.481 15.1621 13.5437C15.1621 13.6063 15.1494 13.6683 15.1249 13.7259C15.1003 13.7835 15.0644 13.8356 15.0192 13.879C14.9741 13.9224 14.9206 13.9562 14.862 13.9784C14.8035 14.0006 14.741 14.0108 14.6784 14.0083" fill="white"/>
</g>
<defs>
<clipPath id="clip0_2_1492">
<rect width="24" height="24" fill="white"/>
</clipPath>
</defs>
</svg>
