<svg width="24" height="24" viewBox="0 0 24 24" fill="none" xmlns="http://www.w3.org/2000/svg">
<path d="M21.1335 8.15772C21.7474 6.67655 21.7669 3.62651 20.9484 1.26833C20.734 0.849318 20.1006 0.975997 20.0714 1.44373L20.0616 1.59965C19.9154 3.8214 19.0969 5.04921 17.8983 5.63388C17.7034 5.73133 17.3819 5.70209 17.1967 5.58516C15.7643 4.67892 14.0687 4.16246 12.2465 4.16246C10.4243 4.16246 8.71897 4.68866 7.28653 5.5949C7.10138 5.71184 6.87726 5.74107 6.67262 5.66312C5.44481 5.20512 4.57755 3.87012 4.43138 1.60939L4.42164 1.45348C4.3924 0.985741 3.75901 0.849319 3.54463 1.27808C2.72609 3.646 2.74558 6.69604 3.35948 8.17721C3.67131 8.91779 3.68105 9.75582 3.42769 10.5159C3.10612 11.4903 2.93072 12.533 2.95021 13.6147C3.02817 18.5259 7.21832 22.6966 12.1198 22.7648C17.3136 22.833 21.5428 18.6428 21.5428 13.4685C21.5428 12.4356 21.3771 11.4416 21.0653 10.5061C20.8022 9.74607 20.8314 8.90805 21.1335 8.15772ZM12.1101 20.5333C8.31945 20.4651 5.24018 17.376 5.17196 13.5952C5.09401 9.58042 8.36817 6.316 12.3829 6.38421C16.1638 6.45242 19.2528 9.54144 19.321 13.3223C19.3892 17.3371 16.1248 20.6112 12.1101 20.5333ZM13.3379 12.6987L11.6813 10.1261C11.4182 9.7071 10.853 9.59016 10.4438 9.85327C10.1807 10.0189 10.0247 10.3015 10.0345 10.6231C10.0345 10.7985 10.093 10.9641 10.1904 11.1103L11.3208 12.8741C11.4085 13.0007 11.389 13.1761 11.2818 13.2833L9.52777 15.2128C9.19646 15.5831 9.22569 16.1482 9.58624 16.4795C9.75189 16.6355 9.97602 16.7134 10.2001 16.7134C10.4438 16.7134 10.6776 16.6062 10.8433 16.4211L12.1393 14.9009C12.2367 14.784 12.4219 14.7937 12.5096 14.9204L13.4256 16.2457C13.4938 16.3431 13.5718 16.4406 13.6692 16.5088C13.9908 16.7329 14.3805 16.7232 14.6729 16.538C14.936 16.3724 15.0919 16.0898 15.0919 15.7682C15.0919 15.5928 15.0334 15.4271 14.9457 15.281L13.3379 12.6987Z" fill="#202020"/>
</svg>
