<svg width="24" height="24" viewBox="0 0 24 24" fill="none" xmlns="http://www.w3.org/2000/svg">
<g clip-path="url(#clip0)">
<path d="M20.936 5H3.06527L0 11.4221L3.06527 17.8442H20.936L24.0013 11.4221L20.936 5ZM19.9117 16.7755H3.73895L1.18359 11.4221L3.73895 6.06864H19.9117L22.4671 11.4221L19.9117 16.7755Z" fill="#008EC7"/>
<path d="M22.467 11.4227L19.9117 16.7762H3.73894L1.18359 11.4227L3.73894 6.0686H19.9117L22.467 11.4227Z" fill="#005B9B"/>
<path d="M8.22359 9.61682V13.4399H7.33862V11.8716H5.60466V13.4393H4.71777V9.61682H5.60209V11.1241H7.33606V9.61682H8.22359Z" fill="white"/>
<path d="M9.92214 10.338H8.69873V9.61682H12.0299V10.338H10.8097V13.4399H9.92214V10.338Z" fill="white"/>
<path d="M13.3518 10.338H12.1284V9.61682H15.4596V10.338H14.2362V13.4399H13.3518V10.338Z" fill="white"/>
<path d="M18.4713 9.7864C18.7066 9.8868 18.9075 10.0538 19.0493 10.2668C19.1873 10.4874 19.2575 10.7438 19.2509 11.004C19.2567 11.2633 19.1866 11.5187 19.0493 11.7387C18.9086 11.9527 18.7074 12.12 18.4713 12.2191C18.1921 12.3359 17.8914 12.3926 17.5889 12.3854H16.8182V13.4399H15.9346V9.61686H17.5889C17.8918 9.60975 18.1926 9.66756 18.4713 9.7864V9.7864ZM18.1463 11.4928C18.2161 11.4327 18.2712 11.3574 18.3071 11.2726C18.3431 11.1879 18.3591 11.096 18.3538 11.004C18.3538 10.7895 18.2844 10.6245 18.1463 10.5102C18.0083 10.3959 17.806 10.3381 17.5401 10.3381H16.8189V11.6649H17.5401C17.806 11.6649 18.008 11.6075 18.1463 11.4928Z" fill="white"/>
</g>
<defs>
<clipPath id="clip0">
<rect width="24" height="24" fill="white"/>
</clipPath>
</defs>
</svg>
