<svg width="24" height="24" viewBox="0 0 24 24" fill="none" xmlns="http://www.w3.org/2000/svg">
<circle cx="12" cy="12" r="11.2644" fill="#607BB0"/>
<path d="M3.97192 4.84369H4.91011H5.84829V15.0571H18.1087V4.84369H20.0277" stroke="#B2BFDB" stroke-width="0.634832"/>
<path d="M16.9361 8.34056H7.04246V8.76701L12.0959 11.6029L16.9361 8.76701V8.34056Z" fill="white"/>
<path d="M12.0959 12.0507L7.04246 9.27875V13.8204H16.9361V9.17213L12.0959 12.0507Z" fill="white"/>
<path d="M7.12372 19.5288V19.3724H6.80463V17.5017H7.12372V17.3453H6.29785V17.5017H6.61694V19.3724H6.29785V19.5288H7.12372Z" fill="white"/>
<path d="M7.6294 19.5288H8.56162C8.89635 19.5288 9.11533 19.2723 9.11533 18.9125C9.11533 18.5716 8.89948 18.4089 8.69614 18.3839V18.3713C8.85881 18.3338 9.03086 18.1993 9.03086 17.8959C9.03086 17.5517 8.8244 17.3453 8.48341 17.3453H7.6294V19.5288ZM7.81709 18.4746H8.51157C8.77434 18.4746 8.91512 18.6341 8.91512 18.8594V18.9751C8.91512 19.2035 8.77434 19.363 8.51157 19.363H7.81709V18.4746ZM7.81709 17.5111H8.46465C8.70239 17.5111 8.83065 17.6518 8.83065 17.8521V17.9709C8.83065 18.168 8.70239 18.3119 8.46465 18.3119H7.81709V17.5111Z" fill="white"/>
<path d="M11.3417 19.5288H11.5231V17.3453H11.2698L10.5784 18.5747H10.569L9.87767 17.3453H9.62428V19.5288H9.80572V17.5893H9.81823L10.5721 18.9219L11.3292 17.5862H11.3417V19.5288Z" fill="white"/>
<path d="M14.5107 19.5288H14.8485V17.3453H14.4325L13.8475 18.4558H13.8381L13.25 17.3453H12.8402V19.5288H13.178V17.8552H13.1906L13.3657 18.2118L13.8412 19.0846L14.323 18.2087L14.4951 17.8614H14.5107V19.5288Z" fill="white"/>
<path d="M16.7551 19.7759H16.4204V19.5507C16.8833 19.4725 17.1743 19.0877 17.1743 18.437C17.1743 17.7019 16.802 17.3077 16.2327 17.3077C15.6633 17.3077 15.2911 17.7019 15.2911 18.437C15.2911 19.1065 15.6007 19.4944 16.0888 19.557V19.7228C16.0888 19.9355 16.2014 20.07 16.4454 20.07H16.7551V19.7759ZM16.2327 19.2504C15.8948 19.2504 15.6696 19.0064 15.6696 18.6091V18.265C15.6696 17.8677 15.8948 17.6237 16.2327 17.6237C16.5705 17.6237 16.7958 17.8677 16.7958 18.265V18.6091C16.7958 19.0064 16.5705 19.2504 16.2327 19.2504Z" fill="white"/>
</svg>
