<svg width="24" height="24" viewBox="0 0 24 24" fill="none" xmlns="http://www.w3.org/2000/svg">
<path d="M22.6491 11.3667L12.9394 1.62999L11.9986 0.686523L4.6894 8.01604L1.34709 11.3667C1.18014 11.5349 1.08643 11.7626 1.08643 12C1.08643 12.2374 1.18014 12.4651 1.34709 12.6334L8.02467 19.3295L11.9986 23.3135L19.3067 15.984L19.4206 15.8708L22.6491 12.6384C22.7327 12.5551 22.7991 12.4561 22.8444 12.3469C22.8897 12.2378 22.9131 12.1207 22.9131 12.0025C22.9131 11.8843 22.8897 11.7673 22.8444 11.6581C22.7991 11.549 22.7327 11.4499 22.6491 11.3667V11.3667ZM11.9986 15.3456L8.66231 12L11.9986 8.65444L15.3338 12L11.9986 15.3456Z" fill="#2684FF"/>
<path d="M11.9986 8.65441C10.9493 7.60248 10.3579 6.17691 10.3533 4.68909C10.3488 3.20126 10.9316 1.7721 11.9744 0.71376L4.67432 8.03116L8.64722 12.0151L11.9986 8.65441Z" fill="url(#paint0_linear_2_1364)"/>
<path d="M15.3429 11.991L11.9985 15.3456C13.0518 16.402 13.6434 17.8347 13.6434 19.3286C13.6434 20.8224 13.0518 22.2551 11.9985 23.3115L19.3188 15.9749L15.3429 11.991Z" fill="url(#paint1_linear_2_1364)"/>
<defs>
<linearGradient id="paint0_linear_2_1364" x1="11.4013" y1="5.26946" x2="6.72941" y2="9.92732" gradientUnits="userSpaceOnUse">
<stop offset="0.18" stop-color="#0052CC"/>
<stop offset="1" stop-color="#2684FF"/>
</linearGradient>
<linearGradient id="paint1_linear_2_1364" x1="851.266" y1="982.955" x2="1327.77" y2="1291.01" gradientUnits="userSpaceOnUse">
<stop offset="0.18" stop-color="#0052CC"/>
<stop offset="1" stop-color="#2684FF"/>
</linearGradient>
</defs>
</svg>
