<svg width="24" height="24" viewBox="0 0 24 24" fill="none" xmlns="http://www.w3.org/2000/svg">
<path fill-rule="evenodd" clip-rule="evenodd" d="M7.34214 8.61249L11.9703 5.94052L17.0319 8.8629V14.7076L11.9688 17.6307L7.14466 14.8081L3.22614 12.5458V16.8469L12.0004 21.9126L20.7746 16.8467V6.71521L12.0004 1.64947L3.64097 6.47563L7.34214 8.61249ZM8.17186 9.09153L12.0004 11.302L15.7989 9.10899L11.9703 6.89852L8.17186 9.09153ZM16.2023 9.83417L12.4153 12.0205V16.4148L16.2023 14.2285V9.83417ZM12.0004 22.8706L2.39648 17.3259V11.109L11.5856 16.414V12.0205L2.8763 6.99225C2.69242 6.88623 2.57808 6.68818 2.57808 6.47579C2.57808 6.26341 2.69242 6.06536 2.87646 5.95917L12.0004 0.691467L21.6042 6.23621V17.3257L12.0004 22.8706Z" fill="black"/>
</svg>
