<svg width="26" height="26" viewBox="0 0 26 26" fill="none" xmlns="http://www.w3.org/2000/svg">
<g clip-path="url(#clip0_201_27)">
<path d="M15.2323 2.88834C14.1537 1.59791 13.2249 0.287321 13.0351 0.0151222C13.0151 -0.00504073 12.9852 -0.00504073 12.9652 0.0151222C12.7754 0.287321 11.8466 1.59791 10.768 2.88834C1.50981 14.7945 12.2261 22.8295 12.2261 22.8295L12.316 22.8899C12.3959 24.13 12.5957 25.9144 12.5957 25.9144H12.9951H13.3946C13.3946 25.9144 13.5944 24.14 13.6743 22.8899L13.7642 22.8194C13.7741 22.8194 24.4905 14.7945 15.2323 2.88834ZM12.9951 22.648C12.9951 22.648 12.5158 22.2347 12.3859 22.0229V22.0028L12.9652 9.03803C12.9652 8.99771 13.0251 8.99771 13.0251 9.03803L13.6044 22.0028V22.0229C13.4745 22.2347 12.9951 22.648 12.9951 22.648Z" fill="#2B664C"/>
</g>
<defs>
<clipPath id="clip0_201_27">
<rect width="12" height="26" fill="white" transform="translate(7)"/>
</clipPath>
</defs>
</svg>
