<svg width="24" height="24" viewBox="0 0 24 24" fill="none" xmlns="http://www.w3.org/2000/svg">
<path d="M11.8217 6.09965L3.31201 4.13843V19.8281L11.8217 17.9833V6.09965Z" fill="#DA473E"/>
<path d="M21.9436 4.95286L20.2483 4.13843V19.8281L21.9436 19.0304V4.95286Z" fill="#DA473E"/>
<path d="M8.11543 1.81163L11.8384 0V6.04985L20.2484 4.15511V19.8116L11.8384 18V23.9999L8.11543 22.2049V17.036L11.8384 18V15.108L8.11543 14.5263V9.47366L11.8384 8.95843V6.04985L8.11543 6.93073V1.81163Z" fill="#802B22"/>
<path d="M1.73315 19.0304V4.9529L3.32873 4.15511V19.8116L1.73315 19.0304Z" fill="#802B22"/>
<path d="M15.5447 1.82826L11.8218 0V6.04985L15.5447 6.93022V1.82826Z" fill="#DA473E"/>
<path d="M11.8136 7.64722L15.5535 6.90835L11.8136 6.05542L8.1051 6.90835L11.8136 7.64722Z" fill="#531C18"/>
<path d="M11.8136 17.994L15.5556 17.0437L11.8136 16.4022L8.1073 17.0437L11.8136 17.994Z" fill="#EFA6A0"/>
<path d="M15.5447 17.0544L11.8218 17.9502V24L15.5447 22.1884V17.0544Z" fill="#DA473E"/>
<path d="M11.8397 15.0747V8.96277L15.5394 9.46419V14.5733L11.8397 15.0747Z" fill="#DA473E"/>
</svg>
