<svg width="24" height="24" viewBox="0 0 24 24" fill="none" xmlns="http://www.w3.org/2000/svg">
<path fill-rule="evenodd" clip-rule="evenodd" d="M6.21644 14.643C6.21644 15.8054 5.27762 16.7449 4.11603 16.7449C2.95444 16.7449 2.01562 15.8054 2.01562 14.643C2.01562 13.4805 2.95444 12.541 4.11603 12.541H6.21644V14.643ZM7.26665 14.643C7.26665 13.4805 8.20546 12.541 9.36705 12.541C10.5286 12.541 11.4675 13.4805 11.4675 14.643V19.8978C11.4675 21.0602 10.5286 21.9997 9.36705 21.9997C8.20546 21.9997 7.26665 21.0602 7.26665 19.8978V14.643Z" fill="#E01E5A"/>
<path fill-rule="evenodd" clip-rule="evenodd" d="M9.36734 6.20387C8.20575 6.20387 7.26693 5.26437 7.26693 4.10194C7.26693 2.9395 8.20575 2 9.36734 2C10.5289 2 11.4677 2.9395 11.4677 4.10194V6.20387H9.36734ZM9.36734 7.27076C10.5289 7.27076 11.4677 8.21027 11.4677 9.3727C11.4677 10.5351 10.5289 11.4746 9.36734 11.4746H4.10041C2.93882 11.4746 2 10.5351 2 9.3727C2 8.21027 2.93882 7.27076 4.10041 7.27076H9.36734Z" fill="#36C5F0"/>
<path fill-rule="evenodd" clip-rule="evenodd" d="M17.7862 9.3727C17.7862 8.21027 18.725 7.27076 19.8866 7.27076C21.0482 7.27076 21.987 8.21027 21.987 9.3727C21.987 10.5351 21.0482 11.4746 19.8866 11.4746H17.7862V9.3727ZM16.736 9.3727C16.736 10.5351 15.7972 11.4746 14.6356 11.4746C13.474 11.4746 12.5352 10.5351 12.5352 9.3727V4.10194C12.5352 2.9395 13.474 2 14.6356 2C15.7972 2 16.736 2.9395 16.736 4.10194V9.3727Z" fill="#2EB67D"/>
<path fill-rule="evenodd" clip-rule="evenodd" d="M14.6356 17.7959C15.7972 17.7959 16.736 18.7354 16.736 19.8978C16.736 21.0602 15.7972 21.9997 14.6356 21.9997C13.474 21.9997 12.5352 21.0602 12.5352 19.8978V17.7959H14.6356ZM14.6356 16.7449C13.474 16.7449 12.5352 15.8054 12.5352 14.643C12.5352 13.4805 13.474 12.541 14.6356 12.541H19.9025C21.0641 12.541 22.0029 13.4805 22.0029 14.643C22.0029 15.8054 21.0641 16.7449 19.9025 16.7449H14.6356Z" fill="#ECB22E"/>
</svg>
