<svg width="24" height="24" viewBox="0 0 24 24" fill="none" xmlns="http://www.w3.org/2000/svg">
<path d="M11.0008 4.0698V2.0498C8.99078 2.2498 7.16078 3.0498 5.68078 4.2598L7.10078 5.6898C8.21078 4.8298 9.54078 4.2498 11.0008 4.0698ZM18.3208 4.2598C16.8408 3.0498 15.0108 2.2498 13.0008 2.0498V4.0698C14.4608 4.2498 15.7908 4.8298 16.9008 5.6898L18.3208 4.2598ZM19.9308 10.9998H21.9508C21.7508 8.9898 20.9508 7.1598 19.7408 5.6798L18.3108 7.0998C19.1708 8.2098 19.7508 9.5398 19.9308 10.9998ZM5.69078 7.0998L4.26078 5.6798C3.05078 7.1598 2.25078 8.9898 2.05078 10.9998H4.07078C4.25078 9.5398 4.83078 8.2098 5.69078 7.0998ZM4.07078 12.9998H2.05078C2.25078 15.0098 3.05078 16.8398 4.26078 18.3198L5.69078 16.8898C4.83078 15.7898 4.25078 14.4598 4.07078 12.9998V12.9998ZM15.0008 11.9998C15.0008 10.3398 13.6608 8.9998 12.0008 8.9998C10.3408 8.9998 9.00078 10.3398 9.00078 11.9998C9.00078 13.6598 10.3408 14.9998 12.0008 14.9998C13.6608 14.9998 15.0008 13.6598 15.0008 11.9998ZM18.3108 16.8998L19.7408 18.3298C20.9508 16.8498 21.7508 15.0098 21.9508 13.0098H19.9308C19.7508 14.4598 19.1708 15.7898 18.3108 16.8998ZM13.0008 19.9298V21.9498C15.0108 21.7498 16.8408 20.9498 18.3208 19.7398L16.8908 18.3098C15.7908 19.1698 14.4608 19.7498 13.0008 19.9298ZM5.68078 19.7398C7.16078 20.9498 9.00078 21.7498 11.0008 21.9498V19.9298C9.54078 19.7498 8.21078 19.1698 7.10078 18.3098L5.68078 19.7398Z" fill="#1976D2"/>
</svg>
