<svg width="24" height="24" viewBox="0 0 24 24" fill="none" xmlns="http://www.w3.org/2000/svg">
<path fill-rule="evenodd" clip-rule="evenodd" d="M10.5283 10.7751V10.9906V10.7751ZM16.3286 17.7677L16.5198 17.7173L16.5426 17.8629C16.651 18.5319 16.6025 19.1114 16.3257 19.702C16.7537 19.7608 17.1275 19.9623 17.3243 20.3906C17.4641 20.693 17.5982 21.0457 17.6011 21.3816C17.6072 21.5051 17.5852 21.6285 17.5369 21.7427C17.4885 21.8569 17.415 21.9592 17.3215 22.0422C17.2033 22.1377 17.0551 22.1901 16.9021 22.1906H14.6681C14.5397 22.5349 14.2858 22.8512 13.9149 22.9464C13.8109 22.97 13.7049 22.984 13.5982 22.9884C13.4841 22.994 13.3728 22.9968 13.2616 22.9968C12.9734 22.9996 12.6852 22.9968 12.3971 22.9968C11.9463 22.9912 11.4955 22.9828 11.0447 22.9716C10.9107 22.9687 10.7802 22.9292 10.6678 22.8575C10.5554 22.7858 10.4656 22.6847 10.4085 22.5657C10.3519 22.6845 10.2626 22.7854 10.1507 22.8571C10.0388 22.9288 9.90875 22.9685 9.77514 22.9716C9.3215 22.9828 8.87072 22.9912 8.41994 22.9968C8.13178 22.9996 7.84362 23.0024 7.55547 22.9968C7.4442 22.9968 7.33293 22.994 7.21881 22.9884C7.11107 22.9856 7.00395 22.9715 6.89926 22.9464C6.52837 22.8512 6.2773 22.5321 6.14606 22.1906H3.93208C3.77902 22.1901 3.63085 22.1377 3.51268 22.0422C3.41918 21.9592 3.3456 21.8569 3.29725 21.7427C3.2489 21.6285 3.22699 21.5051 3.23308 21.3816C3.23308 21.0457 3.37003 20.693 3.50697 20.3906C3.58167 20.2268 3.69513 20.0829 3.83793 19.9707C4.02578 19.8265 4.24927 19.7338 4.48557 19.702C4.20883 19.1114 4.16033 18.5319 4.26874 17.8629L4.29157 17.7173L4.50555 17.7733C4.53141 17.6462 4.56572 17.5209 4.60826 17.3982C4.75638 16.9558 5.03064 16.5643 5.39855 16.2701C5.53073 16.1663 5.67542 16.0789 5.82936 16.0098C5.85088 15.6086 5.90526 15.2098 5.99199 14.8173C6.0717 14.2858 6.2313 13.7688 6.46559 13.2833C6.34966 13.1456 6.25189 12.9942 6.17458 12.8326C6.16317 12.8074 6.15176 12.7822 6.14319 12.757C5.41787 12.3534 4.77623 11.8197 4.25162 11.1838C3.93778 10.8059 3.47844 10.218 3.4385 9.72257C3.41852 9.54901 3.41282 9.37546 3.40996 9.2047C3.40424 8.78844 3.42712 8.37227 3.47844 7.95902C3.50697 7.71828 3.54691 7.47754 3.59541 7.2396C3.26926 6.87177 2.98511 6.47001 2.74806 6.04151C2.37467 5.3687 2.13459 4.63257 2.04051 3.87207C1.95103 3.11785 2.01011 2.35379 2.21454 1.62145C2.26508 1.44276 2.37391 1.28524 2.52437 1.17301C2.67483 1.06077 2.85863 1.00001 3.04763 1.00001C4.50839 1.00001 5.76944 1.58506 6.94205 2.34086C8.02223 1.69149 9.26438 1.34782 10.5312 1.34782C11.798 1.34782 13.0402 1.69149 14.1203 2.34086C15.2901 1.58506 16.5511 1.00001 18.0119 1.00001C18.2012 0.999288 18.3853 1.06017 18.5356 1.17313C18.6858 1.28609 18.7936 1.44474 18.8421 1.62425C19.044 2.35704 19.1021 3.1208 19.0133 3.87487C18.9192 4.63537 18.6791 5.3715 18.3058 6.04431C18.0697 6.47274 17.7865 6.8745 17.4613 7.24241C17.5069 7.46915 17.544 7.69589 17.5754 7.92823C17.6291 8.34879 17.6529 8.7725 17.6467 9.1963C17.6439 9.37266 17.6381 9.54901 17.6182 9.71977C17.5725 10.2292 17.1274 10.8003 16.8051 11.1866C16.2797 11.8218 15.6382 12.3553 14.9135 12.7598L14.8792 12.8354C14.8185 12.9611 14.7509 13.0835 14.6767 13.2021C14.61 13.31 14.5316 13.4104 14.4427 13.5016C14.5031 13.6379 14.5565 13.7771 14.6025 13.9187C14.7015 14.2192 14.775 14.5272 14.8222 14.8397C14.8564 14.9992 14.8878 15.1616 14.9106 15.3211C15.5583 14.2574 16.4199 13.2973 17.5041 12.7066C18.1388 12.344 18.8609 12.1546 19.5953 12.1579C20.3742 12.1775 21.1388 12.5331 21.7294 13.0201C22.3771 13.5548 22.9049 14.319 22.9933 15.1616C23.008 15.3003 22.9984 15.4404 22.9648 15.5759C22.902 15.796 22.79 15.9996 22.637 16.1719C22.4841 16.3443 22.2939 16.4811 22.0804 16.5724C21.544 16.8187 20.8735 16.8104 20.4227 16.3933C20.1688 16.1553 20.0889 15.895 19.9605 15.5899C19.8986 15.4174 19.7878 15.2659 19.641 15.1532C19.4255 14.9924 19.1579 14.9138 18.8878 14.932C18.5026 14.9572 18.1603 15.1728 17.8892 15.4303C17.7369 15.5764 17.594 15.7316 17.4613 15.895C17.2051 16.2058 16.9733 16.5352 16.768 16.8803C16.6075 17.1416 16.4664 17.4138 16.3457 17.6949C16.3393 17.7113 16.3317 17.7272 16.3229 17.7425C16.3237 17.7511 16.3256 17.7596 16.3286 17.7677L16.3286 17.7677ZM16.9192 15.3827C16.9545 15.3819 16.9895 15.3886 17.0219 15.4023C17.1531 15.2512 17.2901 15.1028 17.4327 14.9656C17.4784 14.9236 17.524 14.8816 17.5668 14.8453C17.3895 14.7261 17.2429 14.5679 17.1389 14.3834C17.0456 14.2262 16.9827 14.0535 16.9534 13.8739C16.6613 14.1247 16.3921 14.4001 16.1489 14.6969C16.1346 14.89 16.3286 15.114 16.4627 15.2176C16.59 15.324 16.7519 15.3826 16.9192 15.3827H16.9192ZM16.7166 15.783C16.5289 15.7455 16.3529 15.6649 16.2031 15.5479C16.0486 15.4297 15.9213 15.2809 15.8293 15.1112C15.5739 15.4687 15.345 15.8439 15.1446 16.2337C15.2171 16.2768 15.2866 16.3245 15.3529 16.3765C15.5878 16.5599 15.782 16.7885 15.9235 17.0483C16.1507 16.6052 16.4161 16.1819 16.7166 15.783V15.783ZM20.203 14.6969C20.2031 14.7221 20.1973 14.747 20.1859 14.7697C20.6196 15.1868 20.5996 15.6738 20.8707 15.9258C21.3471 16.3709 22.4056 15.8698 22.34 15.2288C22.2801 14.6717 21.952 14.1174 21.4955 13.6808C21.4926 13.678 21.4898 13.6752 21.4869 13.6752C21.4211 13.6153 21.3341 13.5832 21.2444 13.5856C20.6681 13.5604 20.223 14.1538 20.203 14.6969V14.6969ZM19.7979 14.4925C19.8209 14.3518 19.8622 14.2144 19.9206 14.0839C20.0065 13.8789 20.1368 13.6948 20.3022 13.544C20.4677 13.3932 20.6646 13.2794 20.8792 13.2105C20.4889 12.9662 20.0406 12.8253 19.5782 12.8018C19.4515 12.7977 19.3246 12.8033 19.1988 12.8186C19.1588 12.8466 19.1217 12.8746 19.1018 12.8914C19.0785 12.9104 19.0566 12.931 19.0361 12.9529C18.748 13.2721 18.7822 13.8879 19.0304 14.2182C19.0458 14.2395 19.0574 14.2631 19.0647 14.2882C19.3213 14.3034 19.5715 14.3731 19.7979 14.4925H19.7979ZM18.5911 14.3218C18.4731 14.1004 18.4096 13.855 18.4056 13.6052C18.3986 13.3832 18.4414 13.1624 18.5311 12.9585C18.286 13.0392 18.0491 13.1423 17.8236 13.2665C17.6895 13.3392 17.5554 13.4232 17.4213 13.5128C17.4213 13.5156 17.4185 13.5156 17.4185 13.5184C17.2958 13.6948 17.4128 14.0083 17.5098 14.1734C17.5971 14.332 17.7314 14.4609 17.8949 14.5429C17.9139 14.5498 17.9314 14.5603 17.9463 14.5737C18.1455 14.4553 18.3634 14.3701 18.5911 14.3218V14.3218ZM9.90352 2.81674C9.94358 2.81674 9.98275 2.8284 10.0161 2.85024C10.0494 2.87208 10.0753 2.90312 10.0907 2.93943C10.106 2.97575 10.11 3.01571 10.1022 3.05426C10.0944 3.09282 10.0751 3.12823 10.0468 3.15603C10.0184 3.18382 9.98233 3.20275 9.94304 3.21042C9.90374 3.21809 9.86301 3.21415 9.826 3.19911C9.78899 3.18407 9.75735 3.15859 9.73509 3.12591C9.71283 3.09323 9.70095 3.0548 9.70095 3.01549C9.70057 2.98929 9.70555 2.96328 9.7156 2.939C9.72565 2.91471 9.74055 2.89266 9.75944 2.87413C9.77832 2.8556 9.80081 2.84097 9.82555 2.83111C9.8503 2.82126 9.87681 2.81637 9.90352 2.81674ZM9.90352 3.69292C9.94358 3.69292 9.98275 3.70457 10.0161 3.72641C10.0494 3.74825 10.0753 3.77929 10.0907 3.81561C10.106 3.85193 10.11 3.89189 10.1022 3.93044C10.0944 3.96899 10.0751 4.00441 10.0468 4.0322C10.0184 4.06 9.98233 4.07893 9.94303 4.0866C9.90374 4.09427 9.86301 4.09033 9.826 4.07529C9.78898 4.06024 9.75735 4.03477 9.73509 4.00209C9.71283 3.9694 9.70095 3.93098 9.70095 3.89167C9.70115 3.83902 9.72256 3.78858 9.76051 3.75135C9.79845 3.71412 9.84985 3.69312 9.90352 3.69292H9.90352ZM11.156 2.81674C11.1961 2.81674 11.2352 2.8284 11.2685 2.85024C11.3019 2.87208 11.3278 2.90312 11.3432 2.93943C11.3585 2.97575 11.3625 3.01571 11.3547 3.05426C11.3469 3.09282 11.3276 3.12823 11.2992 3.15603C11.2709 3.18382 11.2348 3.20275 11.1955 3.21042C11.1562 3.21809 11.1155 3.21415 11.0785 3.19911C11.0415 3.18407 11.0098 3.15859 10.9876 3.12591C10.9653 3.09323 10.9534 3.0548 10.9534 3.01549C10.9536 2.96284 10.9751 2.91241 11.013 2.87518C11.0509 2.83795 11.1023 2.81694 11.156 2.81674V2.81674ZM11.156 3.69292C11.1961 3.69292 11.2352 3.70457 11.2685 3.72641C11.3019 3.74825 11.3278 3.77929 11.3432 3.81561C11.3585 3.85192 11.3625 3.89189 11.3547 3.93044C11.3469 3.96899 11.3276 4.00441 11.2992 4.0322C11.2709 4.06 11.2348 4.07893 11.1955 4.0866C11.1562 4.09427 11.1155 4.09033 11.0785 4.07529C11.0415 4.06024 11.0098 4.03477 10.9876 4.00209C10.9653 3.9694 10.9534 3.93098 10.9534 3.89167C10.9536 3.83902 10.9751 3.78858 11.013 3.75135C11.0509 3.71412 11.1023 3.69312 11.156 3.69292V3.69292ZM10.6995 2.16451V4.5411C11.9948 4.56909 13.2673 4.9218 14.049 5.59643C14.9506 6.37743 15.5526 7.72948 15.4869 8.4405C15.4299 9.07874 14.3914 9.50983 13.0076 9.73377C13.0774 9.85554 13.1257 9.98806 13.1503 10.1257C13.1822 10.3195 13.1812 10.5172 13.1474 10.7107C13.6695 10.6519 14.1403 10.5736 14.5597 10.4868C15.3041 10.3315 16.0341 10.1162 16.7423 9.84294C16.7672 9.78 16.7835 9.71412 16.7908 9.64699C16.7908 9.64699 17.0904 6.97088 15.544 4.77904C15.0051 3.99806 14.285 3.35378 13.4427 2.89924C12.6005 2.4447 11.6603 2.19288 10.6995 2.16451L10.6995 2.16451ZM10.36 4.5411V2.16451C9.38332 2.19371 8.42825 2.45377 7.57591 2.92259C6.72357 3.39141 5.99914 4.05515 5.46417 4.85742C3.98058 7.03526 4.27159 9.64979 4.27159 9.64979C4.28217 9.719 4.30133 9.78669 4.32865 9.85134C5.03361 10.1213 5.75971 10.3348 6.49982 10.4896C6.92208 10.5764 7.38998 10.6547 7.91494 10.7135C7.88117 10.52 7.88021 10.3223 7.91209 10.1285C7.9367 9.99085 7.98494 9.85834 8.05474 9.73657C6.67101 9.51262 5.63249 9.07874 5.57544 8.4433C5.50981 7.73228 6.11181 6.38023 7.01337 5.59923C7.79226 4.9218 9.06472 4.56909 10.36 4.5411V4.5411ZM8.02621 11.0606C7.49055 11.0061 6.95819 10.9239 6.43136 10.8143C5.7978 10.6824 5.17433 10.5075 4.56546 10.2908C4.65973 10.4323 4.76164 10.5687 4.87073 10.6995C5.61008 11.5831 6.59089 12.2415 7.69811 12.5974C8.05938 12.7177 8.42819 12.815 8.80225 12.8886C8.80225 12.8858 8.79939 12.8802 8.79939 12.8774C8.76213 12.78 8.75131 12.6749 8.768 12.5722C8.81365 12.3147 9.01051 12.1523 9.26444 12.0488C8.78513 11.8892 8.35431 11.6233 8.10324 11.2006C8.0727 11.1567 8.04688 11.1098 8.02621 11.0606L8.02621 11.0606ZM9.24161 12.7122C9.29582 12.8494 9.47556 12.9557 9.70095 13.0285C9.97484 13.0593 10.2516 13.0845 10.5283 13.1013C10.8079 13.0845 11.0875 13.0621 11.3614 13.0285C11.5726 12.9613 11.7437 12.8662 11.8094 12.7402C12.0947 12.1971 9.0476 12.2111 9.24161 12.7122V12.7122ZM16.4912 10.2936C15.8839 10.5085 15.2624 10.6824 14.631 10.8143C14.1042 10.9236 13.5718 11.0059 13.0362 11.0606C13.0133 11.1082 12.9905 11.153 12.9648 11.1978C12.7138 11.6177 12.2858 11.8864 11.8065 12.046C12.0547 12.1495 12.2459 12.3091 12.2944 12.5582C12.3156 12.6681 12.3047 12.7817 12.263 12.8858C13.1719 12.7221 14.0405 12.3896 14.8222 11.906C15.3656 11.5389 15.8494 11.0935 16.2573 10.5847C16.34 10.4924 16.417 10.3916 16.4912 10.2936L16.4912 10.2936ZM10.4057 11.1642C10.2773 11.3853 10.0119 11.7157 9.45274 11.6037C8.76515 11.3854 8.27157 10.9319 8.39425 10.2069C8.50552 9.55182 9.61536 9.14312 10.5255 9.15152H10.534C11.4442 9.14312 12.554 9.55182 12.6624 10.2068C12.768 10.8339 12.4142 11.2594 11.8693 11.5029C11.0619 11.7968 10.7794 11.4133 10.6539 11.1698C10.594 11.0522 10.5683 10.9906 10.5369 10.9878H10.5283C10.5027 10.999 10.4713 11.055 10.4057 11.1642L10.4057 11.1642ZM10.5283 9.45664C9.9777 9.45664 9.31009 9.6134 9.24447 9.94931C9.13605 10.5064 9.9777 10.7751 10.5283 10.7751H10.5398C11.0904 10.7723 11.9235 10.5036 11.8151 9.94931C11.7494 9.6134 11.0818 9.45664 10.5312 9.45664L10.5283 9.45664ZM8.99339 8.36492C8.99339 8.41837 8.97175 8.46964 8.93323 8.50744C8.8947 8.54523 8.84245 8.56647 8.78797 8.56647C8.73349 8.56647 8.68124 8.54523 8.64272 8.50744C8.6042 8.46964 8.58255 8.41837 8.58255 8.36492C8.58528 8.14797 8.50831 7.93731 8.36572 7.77147C8.30516 7.70038 8.22976 7.64285 8.14462 7.60277C8.05947 7.56269 7.96656 7.54099 7.87214 7.53913C7.74562 7.53922 7.62216 7.57732 7.51837 7.64831C7.40141 7.72795 7.30871 7.83729 7.25018 7.96462C7.2271 8.01251 7.18558 8.04944 7.13475 8.06729C7.08392 8.08514 7.02794 8.08244 6.97914 8.0598C6.93033 8.03716 6.89269 7.99642 6.8745 7.94655C6.85631 7.89667 6.85906 7.84175 6.88213 7.79387C6.9735 7.60228 7.1141 7.43732 7.29012 7.31519C7.46202 7.19859 7.66602 7.1361 7.875 7.13604C8.02749 7.13715 8.17791 7.17077 8.31585 7.23457C8.45379 7.29837 8.57594 7.39083 8.67385 7.50554C8.88136 7.74547 8.99468 8.05025 8.99339 8.36492V8.36492ZM12.0661 8.36492C12.0663 8.4183 12.088 8.46944 12.1265 8.50714C12.165 8.54484 12.2172 8.56601 12.2716 8.56601C12.326 8.56601 12.3781 8.54484 12.4166 8.50714C12.4552 8.46944 12.4768 8.4183 12.477 8.36492C12.4742 8.14797 12.5512 7.93731 12.6938 7.77147C12.7542 7.70015 12.8295 7.64247 12.9147 7.60237C12.9999 7.56227 13.0929 7.5407 13.1874 7.53913C13.3139 7.53922 13.4374 7.57732 13.5412 7.6483C13.6581 7.72795 13.7508 7.83729 13.8093 7.96462C13.8327 8.01238 13.8744 8.04913 13.9253 8.0669C13.9762 8.08467 14.0321 8.08202 14.081 8.05951C14.1299 8.037 14.1677 7.99647 14.1863 7.94672C14.2049 7.89697 14.2027 7.84204 14.1802 7.79387C14.0889 7.60228 13.9483 7.43731 13.7723 7.31519C13.6004 7.19859 13.3964 7.1361 13.1874 7.13604C13.0349 7.13715 12.8845 7.17077 12.7465 7.23457C12.6086 7.29837 12.4864 7.39083 12.3885 7.50554C12.179 7.7445 12.0645 8.04969 12.0661 8.36492V8.36492ZM12.2316 13.7227C11.7949 13.8597 11.3426 13.9434 10.885 13.9719C9.83139 14.0332 8.78121 13.8055 7.85217 13.3141C7.67243 13.2637 7.4984 13.2049 7.32436 13.1433C7.75228 13.7082 8.34691 14.1304 9.02763 14.3526C8.33434 14.2378 7.63249 14.0279 7.09041 13.6584C6.73948 14.403 6.52551 15.4387 6.69669 16.8523C6.73663 17.1743 6.78799 17.4794 6.85075 17.7677C7.76373 17.3618 8.40281 17.5242 9.19596 18.042C9.25489 17.1831 9.41574 16.3338 9.67528 15.5115C9.72948 15.3519 9.80081 15.2735 9.89781 15.2652C10.0005 15.2568 10.1746 15.2623 10.1689 15.5591C10.1375 15.6794 10.1118 15.8222 10.0918 15.9258C10.0376 16.2001 9.99482 16.48 9.95202 16.7572C9.91208 17.0315 9.87214 17.3058 9.8379 17.583C9.81508 17.7593 9.79225 17.9413 9.77798 18.1204C9.77228 18.2212 9.76657 18.322 9.76372 18.4227C10.1932 18.4731 10.6274 18.4703 11.0562 18.4143C11.0533 18.3164 11.0476 18.2156 11.0419 18.1176C11.0105 17.6753 10.942 17.2106 10.8764 16.7712C10.8365 16.508 10.7937 16.2421 10.7423 15.9818C10.7138 15.8196 10.6738 15.6597 10.6225 15.5031C10.631 15.2092 11.0219 15.1448 11.1303 15.4695C11.4032 16.3142 11.5699 17.1885 11.6268 18.0728C12.3429 17.6697 13.2901 17.3702 13.9748 17.7453C14.0347 17.4626 14.0832 17.1659 14.1232 16.8523C14.283 15.5451 14.1118 14.5597 13.8065 13.8319C13.2587 14.1482 12.5626 14.3162 11.8921 14.4002C12.6337 14.193 13.2847 13.7511 13.7437 13.1433C13.5697 13.2049 13.3928 13.2637 13.2159 13.3141C12.9025 13.482 12.5727 13.6189 12.2316 13.7228L12.2316 13.7227ZM4.26589 2.00775C4.99172 2.21691 5.68133 2.5321 6.31152 2.94271C6.04819 3.14995 5.80117 3.37641 5.57258 3.62014C5.4499 3.42139 5.31581 3.22824 5.17601 3.03788C4.9082 2.66575 4.60332 2.32067 4.26589 2.00775V2.00775ZM3.06475 1.84259H3.13322C3.94349 2.27928 4.66817 3.16665 5.20169 4.04843C5.09327 4.18559 4.98771 4.32835 4.885 4.47392C4.49267 5.05367 4.18624 5.68515 3.97487 6.34944C3.32152 5.48726 2.49129 3.90287 3.04193 1.85939C3.05048 1.85659 3.05619 1.84819 3.06475 1.84259ZM17.9948 1.84259H17.9263C17.116 2.27928 16.3914 3.16665 15.8578 4.04843C15.9463 4.1576 16.0319 4.27237 16.1118 4.38994C16.5332 4.99283 16.8602 5.65427 17.0818 6.35224C17.7351 5.49006 18.5654 3.90566 18.0147 1.86219L17.9948 1.84259V1.84259ZM16.7936 2.00775C16.0676 2.21636 15.3779 2.53158 14.748 2.94271C15.0114 3.15093 15.2584 3.37832 15.4869 3.62293C15.6125 3.42419 15.7437 3.22824 15.8835 3.03788C16.1513 2.66574 16.4562 2.32067 16.7936 2.00774V2.00775ZM6.9934 18.378C7.18668 19.1042 7.46329 19.8067 7.81794 20.4718C7.85441 20.5459 7.91591 20.6052 7.99197 20.6398C8.27443 20.8077 8.671 20.9897 8.73947 21.6811C8.41708 21.278 8.10895 20.9897 7.63534 20.8889C7.51284 20.8796 7.38968 20.8948 7.27341 20.9338C7.15714 20.9728 7.05021 21.0347 6.95917 21.1157C6.5683 21.5132 6.85075 22.199 7.08755 22.2606C7.32436 22.3221 9.75516 22.2606 9.75516 22.2606C9.75516 22.2606 9.85501 21.8155 9.66671 21.5691C9.48127 21.32 9.19311 20.0519 9.17314 18.7027C8.60253 18.2128 7.72093 17.8825 6.9934 18.378V18.378ZM13.8208 18.378C13.6269 19.1037 13.3513 19.8059 12.9991 20.4718C12.961 20.5447 12.8999 20.6036 12.825 20.6398C12.5426 20.8077 12.146 20.9897 12.0775 21.6811C12.3999 21.278 12.7081 20.9897 13.1817 20.8889C13.4128 20.8861 13.6781 20.9309 13.8579 21.1157C14.2487 21.5132 13.9663 22.199 13.7295 22.2606C13.4927 22.3221 11.0619 22.2606 11.0619 22.2606C11.0619 22.2606 10.962 21.8155 11.1503 21.5691C11.3358 21.32 11.6268 20.0519 11.6467 18.7027C12.2116 18.2128 13.0932 17.8825 13.8208 18.378L13.8208 18.378ZM10.6282 21.376C10.5569 21.376 10.4827 21.3788 10.4085 21.3788H10.2345C10.2077 21.3287 10.1782 21.2801 10.146 21.2332C10.1089 21.1517 10.0783 21.0675 10.0547 20.9813C9.98572 20.7419 9.93047 20.4989 9.88925 20.2535C9.81109 19.7991 9.76723 19.3397 9.75801 18.879C10.2022 18.9397 10.653 18.9359 11.0961 18.8678C11.0887 19.4026 11.0323 19.9357 10.9278 20.4606C10.8907 20.6454 10.7965 21.0933 10.6995 21.2584C10.6737 21.2963 10.6498 21.3356 10.6282 21.376H10.6282ZM15.9406 18.4899C15.9605 19.7804 15.1303 20.2899 14.6453 20.6706C16.8536 19.6852 17.1075 21.362 16.8792 21.5467H14.5939C14.5854 21.2804 14.4878 21.0243 14.316 20.8178C14.1443 20.6114 13.9081 20.4662 13.6439 20.4046C13.8185 20.0439 13.9672 19.6716 14.0889 19.2905C14.7337 18.9518 15.4927 18.6047 15.9406 18.4899L15.9406 18.4899ZM14.7337 16.5948C15.2872 16.8467 15.6353 17.4206 15.7123 18.0644C15.2465 18.2138 14.7941 18.4011 14.36 18.6243C14.5142 18.0646 14.6277 17.495 14.6995 16.9195C14.7138 16.8159 14.7252 16.7068 14.7337 16.5948L14.7337 16.5948ZM6.08042 16.606C5.53549 16.8635 5.19598 17.4346 5.1218 18.0728C5.57921 18.2228 6.02378 18.4081 6.45132 18.6271C6.2971 18.0674 6.18365 17.4978 6.11181 16.9223C6.1004 16.8187 6.08898 16.7124 6.08042 16.606L6.08042 16.606ZM4.87073 18.4899C4.85076 19.7804 5.681 20.2899 6.16887 20.6706C3.95776 19.6852 3.70669 21.362 3.93208 21.5467H6.17743C6.1878 21.2365 6.31366 20.9407 6.53121 20.7154C6.69105 20.5551 6.89064 20.4383 7.11038 20.3766C7.06473 20.2843 7.02193 20.1919 6.97913 20.0967C6.85646 19.8196 6.74519 19.5369 6.64533 19.2485C6.02051 18.9266 5.30439 18.6019 4.87073 18.4899L4.87073 18.4899Z" fill="#DE5D60"/>
</svg>
