<svg width="24" height="24" viewBox="0 0 24 24" fill="none" xmlns="http://www.w3.org/2000/svg">
<path d="M12 19.3646C7.93268 19.3646 4.63539 16.0673 4.63539 12C4.63539 7.93268 7.93268 4.63547 12 4.63547C16.0673 4.63547 19.3645 7.93268 19.3645 12C19.3645 16.0673 16.0673 19.3646 12 19.3646ZM12 2C6.47718 2 2 6.47726 2 12C2 17.5229 6.47718 22 12 22C17.5228 22 22 17.5229 22 12C22 6.47726 17.5228 2 12 2H12Z" fill="#CF272D"/>
<path d="M12.4105 9.50892C12.4105 8.36063 13.3415 7.42969 14.4899 7.42969C15.6382 7.42969 16.5691 8.36063 16.5691 9.50892C16.5691 10.6574 15.6382 11.5882 14.4899 11.5882C13.3415 11.5882 12.4105 10.6574 12.4105 9.50892ZM12.4105 14.4899C12.4105 13.3416 13.3415 12.4105 14.4899 12.4105C15.6382 12.4105 16.5691 13.3416 16.5691 14.4899C16.5691 15.6382 15.6382 16.5692 14.4899 16.5692C13.3415 16.5692 12.4105 15.6382 12.4105 14.4899ZM7.42969 14.4899C7.42969 13.3416 8.36071 12.4105 9.509 12.4105C10.6574 12.4105 11.5883 13.3416 11.5883 14.4899C11.5883 15.6382 10.6574 16.5692 9.509 16.5692C8.36071 16.5692 7.42969 15.6382 7.42969 14.4899ZM7.42969 9.509C7.42969 8.36063 8.36071 7.42977 9.509 7.42977C10.6574 7.42977 11.5883 8.36063 11.5883 9.509C11.5883 10.6574 10.6574 11.5883 9.509 11.5883C8.36071 11.5883 7.42969 10.6574 7.42969 9.509Z" fill="#CF272D"/>
</svg>
