<svg width="24" height="24" viewBox="0 0 24 24" fill="none" xmlns="http://www.w3.org/2000/svg">
<path d="M3.73724 3.94986L5.15136 2.30201C5.21701 2.22747 5.29799 2.16799 5.38876 2.12765C5.47953 2.0873 5.57795 2.06705 5.67727 2.06827H19.2458C19.3797 2.05492 19.515 2.07028 19.6425 2.11333C19.77 2.15638 19.8869 2.22614 19.9853 2.31793C20.0838 2.40973 20.1615 2.52147 20.2133 2.64569C20.2652 2.7699 20.2899 2.90374 20.2859 3.03828V19.9843C20.2853 20.08 20.2641 20.1744 20.2238 20.2611C20.1835 20.3478 20.1249 20.4248 20.0522 20.4869L18.5329 21.8776H4.66051L3.71387 21.4919L3.73724 3.94986Z" fill="#005BA1"/>
<path d="M4.88257 3.93816L5.7474 2.95646C5.7978 2.89555 5.86004 2.8455 5.93035 2.80934C6.00066 2.77318 6.07758 2.75166 6.15644 2.74609H18.8835C19.0447 2.74609 19.1993 2.81012 19.3132 2.92409C19.4272 3.03806 19.4912 3.19264 19.4912 3.35381V19.4584C19.4921 19.5441 19.4749 19.629 19.4406 19.7075C19.4064 19.7861 19.3559 19.8565 19.2926 19.9142L17.9369 21.1413L4.88257 3.93816Z" fill="white"/>
<path d="M17.8435 3.92639H3.81914C3.80055 3.92639 3.78271 3.93378 3.76956 3.94693C3.75641 3.96008 3.74902 3.97792 3.74902 3.99651V21.5269C3.75207 21.6458 3.80143 21.7587 3.88658 21.8417C3.97173 21.9246 4.08593 21.9711 4.20481 21.971H17.8435C17.9612 21.971 18.0742 21.9242 18.1575 21.8409C18.2408 21.7577 18.2876 21.6447 18.2876 21.5269V4.38218C18.2876 4.2633 18.2412 4.1491 18.1582 4.06395C18.0753 3.9788 17.9623 3.92944 17.8435 3.92639V3.92639Z" fill="url(#paint0_linear)"/>
<path d="M14.3606 8.72974H7.32504C7.14431 8.72974 6.9978 8.87624 6.9978 9.05697V11.184C6.9978 11.3647 7.14431 11.5112 7.32504 11.5112H14.3606C14.5413 11.5112 14.6878 11.3647 14.6878 11.184V9.05697C14.6878 8.87624 14.5413 8.72974 14.3606 8.72974Z" fill="white"/>
<defs>
<linearGradient id="paint0_linear" x1="11.0066" y1="21.936" x2="11.0066" y2="3.92639" gradientUnits="userSpaceOnUse">
<stop stop-color="#1988D9"/>
<stop offset="0.9" stop-color="#54AEF0"/>
</linearGradient>
</defs>
</svg>
