<svg width="24" height="24" viewBox="0 0 24 24" fill="none" xmlns="http://www.w3.org/2000/svg">
<g clip-path="url(#clip0_2_1460)">
<path d="M20.8375 5.1911L13.4 0.817771C12.9727 0.573225 12.4905 0.444748 12 0.444748C11.5096 0.444748 11.0274 0.573225 10.6 0.817771L3.18005 5.1911C2.75702 5.44126 2.40544 5.79906 2.15994 6.22926C1.91445 6.65945 1.78352 7.14719 1.78005 7.64444V16.3555C1.7782 16.8539 1.90689 17.3437 2.15292 17.7749C2.39894 18.206 2.75344 18.5629 3.18005 18.8089L10.6 23.1822C11.0245 23.4354 11.5078 23.5689 12 23.5689C12.4923 23.5689 12.9756 23.4354 13.4 23.1822L20.8375 18.8267C21.2606 18.5765 21.6122 18.2187 21.8577 17.7885C22.1031 17.3583 22.2341 16.8706 22.2375 16.3733V7.64444C22.2394 7.14611 22.1107 6.65625 21.8647 6.22512C21.6187 5.79399 21.2642 5.43711 20.8375 5.1911V5.1911ZM13.5749 16.9779C12.8821 16.9786 12.1966 16.8347 11.5608 16.5551C12.1271 15.8987 12.4755 15.0779 12.5568 14.2091L13.4773 14.2997C13.5166 14.3036 13.5563 14.2972 13.5925 14.281C13.6287 14.2647 13.6602 14.2394 13.6839 14.2072C13.7077 14.1751 13.7229 14.1373 13.7281 14.0975C13.7333 14.0576 13.7284 14.0171 13.7137 13.9798L12.6055 11.1583C12.5905 11.1203 12.5661 11.0869 12.5345 11.0615C12.5029 11.0361 12.4653 11.0195 12.4255 11.0135C12.3857 11.0074 12.345 11.012 12.3074 11.0269C12.2699 11.0418 12.2369 11.0664 12.2116 11.0983L10.2682 13.5533L10.2198 13.6144C10.1938 13.6473 10.177 13.6868 10.1712 13.7286C10.1654 13.7705 10.1709 13.8131 10.187 13.852C10.2031 13.891 10.2293 13.9248 10.2628 13.9498C10.2963 13.9749 10.3359 13.9902 10.3773 13.9943L11.5711 14.1119C11.5136 14.7227 11.2828 15.3034 10.9066 15.7834C10.5304 16.2633 10.025 16.622 9.45196 16.8157C8.87888 17.0094 8.26276 17.0299 7.67847 16.8746C7.09418 16.7192 6.56687 16.3949 6.16064 15.9408C5.75441 15.4868 5.48674 14.9227 5.39016 14.317C5.29359 13.7114 5.37226 13.0903 5.61663 12.5292C5.861 11.9681 6.26054 11.4912 6.76669 11.1565C7.27284 10.8217 7.86381 10.6435 8.46777 10.6435C8.52338 10.6435 8.57826 10.6465 8.63314 10.6494C8.85023 9.70552 9.32487 8.8429 10.0026 8.16055C10.6804 7.4782 11.5337 7.00378 12.4648 6.79172C13.3959 6.57966 14.367 6.63855 15.2666 6.96165C16.1662 7.28474 16.958 7.85894 17.551 8.61836C18.144 9.37778 18.5142 10.2917 18.6192 11.2551C18.7242 12.2186 18.5597 13.1926 18.1446 14.0654C17.7294 14.9382 17.0805 15.6744 16.2722 16.1896C15.4639 16.7047 14.5291 16.978 13.5749 16.9779V16.9779Z" fill="#FF6B01"/>
</g>
<defs>
<clipPath id="clip0_2_1460">
<rect width="21" height="24" fill="white" transform="translate(1.5)"/>
</clipPath>
</defs>
</svg>
