<svg width="24" height="24" viewBox="0 0 24 24" fill="none" xmlns="http://www.w3.org/2000/svg">
<path d="M1.50488 3.1463C1.50488 2.23976 2.23978 1.50487 3.14631 1.50487H20.8537C21.7603 1.50487 22.4951 2.23976 22.4951 3.1463V20.8537C22.4951 21.7602 21.7603 22.4951 20.8537 22.4951H3.14631C2.23977 22.4951 1.50488 21.7602 1.50488 20.8537V3.1463Z" fill="#9E6BFE"/>
<path fill-rule="evenodd" clip-rule="evenodd" d="M18.0197 7.31707C18.0197 6.9731 17.8429 6.65327 17.5516 6.47029L14.8443 4.76952C14.5196 4.56555 14.1069 4.5652 13.7818 4.76862L12.7397 5.42083C12.4274 5.61628 12.0329 5.62419 11.713 5.4414L10.4975 4.74678C10.1656 4.55715 9.75468 4.57326 9.4387 4.78831L6.95826 6.47639C6.68464 6.6626 6.52089 6.97213 6.52089 7.3031V8.35979C6.52089 8.6563 6.3893 8.93752 6.16166 9.12751L5.09103 10.0211C4.8634 10.2111 4.73181 10.4923 4.73181 10.7888V13.3081C4.73181 13.6046 4.8634 13.8858 5.09103 14.0758L6.16166 14.9694C6.3893 15.1594 6.52089 15.4406 6.52089 15.7371V16.7451C6.52089 17.1079 6.71739 17.4423 7.03437 17.6188L10.0389 19.2919C10.3396 19.4593 10.7052 19.4604 11.0068 19.2948L11.7635 18.8792C12.0622 18.7152 12.4239 18.7145 12.7232 18.8776L13.4841 19.292C13.7937 19.4607 14.1693 19.4538 14.4725 19.274L17.5298 17.461C17.8335 17.2809 18.0197 16.9539 18.0197 16.6008V15.7304C18.0197 15.4366 18.1489 15.1577 18.3729 14.9677L19.4274 14.0736C19.6514 13.8835 19.7806 13.6046 19.7806 13.3109V10.786C19.7806 10.4923 19.6514 10.2133 19.4274 10.0233L18.3729 9.12919C18.1489 8.93919 18.0197 8.66027 18.0197 8.3665V7.31707ZM9.48434 5.74999C9.7956 5.53816 10.2004 5.52228 10.5273 5.70908L11.3279 6.16657C11.6395 6.34461 11.8318 6.67596 11.8318 7.03481V9.7819C11.8318 10.1227 12.0053 10.4401 12.2923 10.6239L13.3043 11.2722C13.3096 11.2756 13.3127 11.2815 13.3127 11.2877V11.2877C13.3127 11.7234 13.6659 12.0766 14.1016 12.0766C14.5373 12.0766 14.8905 11.7234 14.8905 11.2877C14.8905 10.8521 14.5373 10.4989 14.1016 10.4989V10.4989C13.8746 10.4989 13.6314 10.5071 13.4402 10.3846L13.113 10.175C12.8261 9.99116 12.6525 9.67381 12.6525 9.33298V6.99747C12.6525 6.6529 12.8299 6.3326 13.122 6.1498L13.781 5.73733C14.106 5.53391 14.5188 5.53426 14.8435 5.73823L17.0853 7.14656C17.156 7.191 17.199 7.26867 17.199 7.35221V7.35221C17.199 7.48633 17.0902 7.59506 16.9561 7.59506H15.712C15.3414 7.59506 15.0127 7.33169 14.661 7.21454C14.5826 7.18842 14.4987 7.17428 14.4115 7.17428C13.9758 7.17428 13.6227 7.52747 13.6227 7.96316C13.6227 8.39885 13.9758 8.75204 14.4115 8.75204C14.4929 8.75204 14.5715 8.73972 14.6453 8.71683C14.9566 8.62037 15.2518 8.41578 15.5777 8.41578H16.6563C16.956 8.41578 17.199 8.65873 17.199 8.95843V8.95843C17.199 9.11785 17.2691 9.2692 17.3907 9.3723L18.6066 10.4035C18.8307 10.5935 18.9599 10.8724 18.9599 11.1661V13.3893C18.9599 13.3922 18.9586 13.395 18.9564 13.3969V13.3969C18.9531 13.3997 18.9483 13.4 18.9447 13.3977L18.1064 12.8694C17.844 12.704 17.703 12.3962 17.4987 12.1629C17.3541 11.9978 17.1417 11.8935 16.905 11.8935C16.4693 11.8935 16.1161 12.2467 16.1161 12.6824C16.1161 13.1181 16.4693 13.4713 16.905 13.4713C16.9331 13.4713 16.961 13.4698 16.9884 13.4669C17.2085 13.4438 17.4469 13.4239 17.6341 13.5419V13.5419C17.9614 13.7481 17.9942 14.2128 17.6992 14.463L17.4768 14.6516C17.3006 14.801 17.199 15.0203 17.199 15.2514V16.1334C17.199 16.4865 17.0128 16.8134 16.709 16.9935L14.4553 18.33C14.152 18.5099 13.7765 18.5167 13.4669 18.3481L13.1741 18.1886C12.8526 18.0134 12.6525 17.6766 12.6525 17.3104V16.8856C12.6525 16.4636 12.9946 16.1215 13.4166 16.1215V16.1215C13.6887 16.1215 13.9284 16.2946 14.1686 16.4223C14.2789 16.4809 14.4047 16.5141 14.5383 16.5141C14.974 16.5141 15.3272 16.1609 15.3272 15.7252C15.3272 15.2895 14.974 14.9363 14.5383 14.9363C14.4138 14.9363 14.2961 14.9652 14.1913 15.0165C13.9498 15.135 13.7104 15.3008 13.4413 15.3008V15.3008C13.0057 15.3008 12.6525 14.9476 12.6525 14.5119V12.834C12.6525 12.5215 12.5064 12.2269 12.2576 12.0378L11.0817 11.1442C10.9013 11.007 10.6438 11.0421 10.5067 11.2226C10.3695 11.403 10.4047 11.6605 10.5851 11.7976L11.4368 12.4449C11.6857 12.634 11.8318 12.9286 11.8318 13.2411V13.6895C11.8318 13.8659 11.7358 14.0284 11.5813 14.1135V14.1135C11.2586 14.2914 10.8634 14.058 10.8634 13.6895V13.445C10.8634 13.2162 10.7391 13.0055 10.5388 12.8949L9.56982 12.3594C9.25126 12.1833 9.0535 11.8481 9.0535 11.4841V11.1376C9.0535 10.7882 9.23587 10.4641 9.53455 10.2828L10.3823 9.76807C10.681 9.58674 10.8634 9.26268 10.8634 8.91327V6.99114C10.8634 6.76451 10.6797 6.58079 10.453 6.58079C10.2264 6.58079 10.0427 6.76451 10.0427 6.99114V8.45141C10.0427 8.80082 9.8603 9.12488 9.56163 9.30621L9.25852 9.49023C8.90471 9.70504 8.45512 9.67966 8.12772 9.42641L7.72976 9.11858C7.48493 8.9292 7.3416 8.63712 7.3416 8.3276V7.44399C7.3416 7.29651 7.41457 7.15859 7.53649 7.07561V7.07561C7.83231 6.87429 8.23279 7.08617 8.23279 7.44399V8.69569C8.23279 8.92233 8.41651 9.10605 8.64315 9.10605C8.86978 9.10605 9.0535 8.92233 9.0535 8.69569V6.56435C9.0535 6.23833 9.21481 5.93342 9.48434 5.74999V5.74999ZM10.6549 15.5613C11.1839 15.2697 11.8318 15.6524 11.8318 16.2564V17.3137C11.8318 17.6786 11.633 18.0146 11.3131 18.1902L10.7568 18.4958C10.6125 18.575 10.4376 18.5745 10.2937 18.4944V18.4944C9.9694 18.3138 9.96542 17.8487 10.2866 17.6625L10.9264 17.2917C11.1225 17.1781 11.1894 16.927 11.0757 16.7309C10.9621 16.5349 10.711 16.468 10.5149 16.5817L9.21488 17.335C8.91005 17.5117 8.53477 17.5149 8.22696 17.3435L7.85509 17.1364C7.53811 16.9599 7.3416 16.6256 7.3416 16.2627V15.8987C7.3416 15.5387 7.53511 15.2065 7.84826 15.0289L8.66442 14.566C8.86156 14.4541 8.93073 14.2037 8.81892 14.0066V14.0066C8.70711 13.8094 8.45666 13.7403 8.25953 13.8521L7.57843 14.2384C7.21603 14.4439 6.76417 14.4032 6.44431 14.1363L5.84391 13.6351C5.65926 13.481 5.55253 13.2529 5.55253 13.0124V13.0124C5.55253 12.7258 5.70378 12.4605 5.95039 12.3144L7.49249 11.4014C7.68751 11.2859 7.75199 11.0342 7.63652 10.8392C7.52105 10.6442 7.26935 10.5797 7.07435 10.6952L6.15797 11.2377C5.8906 11.3961 5.55253 11.2033 5.55253 10.8926V10.8926C5.55253 10.7737 5.6053 10.6609 5.69661 10.5847L6.32405 10.061C6.68439 9.76024 7.20542 9.75057 7.57667 10.0377L7.84463 10.245C8.08946 10.4344 8.23279 10.7265 8.23279 11.036V11.5455C8.23279 11.886 8.05952 12.2031 7.77295 12.387L6.70959 13.0696C6.51885 13.192 6.46349 13.4458 6.58591 13.6366C6.70833 13.8273 6.96219 13.8827 7.15291 13.7602L8.15697 13.1158C8.46615 12.9173 8.85926 12.9044 9.18082 13.0821L9.52635 13.273C9.84492 13.4491 10.0427 13.7843 10.0427 14.1483V14.3906C10.0427 14.7475 9.85242 15.0774 9.54347 15.2561L8.27532 15.9898C8.07916 16.1033 8.01214 16.3544 8.12563 16.5505C8.23913 16.7467 8.49016 16.8137 8.68634 16.7002L10.6549 15.5613V15.5613Z" fill="white"/>
</svg>
