<svg width="24" height="24" viewBox="0 0 24 24" fill="none" xmlns="http://www.w3.org/2000/svg">
<path d="M21.5734 8.63451H2.42551C2.31266 8.63451 2.20443 8.58968 2.12463 8.50988C2.04483 8.43008 2 8.32185 2 8.209V3.82199C2 3.70914 2.04483 3.60091 2.12463 3.52111C2.20443 3.44131 2.31266 3.39648 2.42551 3.39648H21.5734C21.6863 3.39648 21.7945 3.44131 21.8743 3.52111C21.9541 3.60091 21.9989 3.70914 21.9989 3.82199V8.209C21.9989 8.32185 21.9541 8.43008 21.8743 8.50988C21.7945 8.58968 21.6863 8.63451 21.5734 8.63451ZM2.85102 7.78349H21.1479V4.2475H2.85102V7.78349Z" fill="#FF4F8B"/>
<path d="M21.5776 14.6213H20.7266V13.7702H21.1521V13.3447H22.0031V14.1957C22.0031 14.3086 21.9583 14.4168 21.8785 14.4966C21.7987 14.5764 21.6904 14.6213 21.5776 14.6213Z" fill="#FF4F8B"/>
<path d="M19.9294 14.6215H18.3423V13.7705H19.9294V14.6215ZM17.5508 14.6215H15.9637V13.7705H17.5508V14.6215ZM15.1722 14.6215H13.5851V13.7705H15.1722V14.6215ZM12.7894 14.6215H11.2065V13.7705H12.7894V14.6215ZM10.4108 14.6215H8.82786V13.7705H10.4108V14.6215ZM8.03216 14.6215H6.46628V13.7705H8.04918L8.03216 14.6215ZM5.65356 14.6215H4.06641V13.7705H5.65356V14.6215Z" fill="#FF4F8B"/>
<path d="M3.27653 14.6213H2.42551C2.31266 14.6213 2.20443 14.5764 2.12463 14.4966C2.04483 14.4168 2 14.3086 2 14.1957V13.3447H2.85102V13.7702H3.27653V14.6213Z" fill="#FF4F8B"/>
<path d="M2.85102 11.3271H2V12.6718H2.85102V11.3271Z" fill="#FF4F8B"/>
<path d="M2.85102 10.6554H2V9.80442C2 9.69156 2.04483 9.58333 2.12463 9.50353C2.20443 9.42374 2.31266 9.37891 2.42551 9.37891H3.27653V10.2299H2.85102V10.6554Z" fill="#FF4F8B"/>
<path d="M19.9294 10.2299H18.3423V9.37891H19.9294V10.2299ZM17.5465 10.2299H15.9637V9.37891H17.5295L17.5465 10.2299ZM15.168 10.2299H13.5851V9.37891H15.168V10.2299ZM12.7894 10.2299H11.2065V9.37891H12.7894V10.2299ZM10.4108 10.2299H8.8236V9.37891H10.4108V10.2299ZM8.03216 10.2299H6.46628V9.37891H8.05343L8.03216 10.2299ZM5.65356 10.2299H4.06641V9.37891H5.65356V10.2299Z" fill="#FF4F8B"/>
<path d="M22.0031 10.6554H21.1521V10.2299H20.7266V9.37891H21.5776C21.6904 9.37891 21.7987 9.42374 21.8785 9.50353C21.9583 9.58333 22.0031 9.69156 22.0031 9.80442V10.6554Z" fill="#FF4F8B"/>
<path d="M21.9995 11.3271H21.1484V12.6718H21.9995V11.3271Z" fill="#FF4F8B"/>
<path d="M21.5776 20.6047H20.7266V19.7536H21.1521V19.3281H22.0031V20.1791C22.0031 20.292 21.9583 20.4002 21.8785 20.48C21.7987 20.5598 21.6904 20.6047 21.5776 20.6047Z" fill="#FF4F8B"/>
<path d="M19.9294 20.6039H18.3423V19.7529H19.9294V20.6039ZM17.5508 20.6039H15.9637V19.7529H17.5508V20.6039ZM15.1722 20.6039H13.5851V19.7529H15.1722V20.6039ZM12.7894 20.6039H11.2065V19.7529H12.7894V20.6039ZM10.4108 20.6039H8.82786V19.7529H10.4108V20.6039ZM8.03216 20.6039H6.46628V19.7529H8.04918L8.03216 20.6039ZM5.65356 20.6039H4.06641V19.7529H5.65356V20.6039Z" fill="#FF4F8B"/>
<path d="M3.27653 20.6047H2.42551C2.31266 20.6047 2.20443 20.5598 2.12463 20.48C2.04483 20.4002 2 20.292 2 20.1791V19.3281H2.85102V19.7536H3.27653V20.6047Z" fill="#FF4F8B"/>
<path d="M2.85102 17.3105H2V18.6552H2.85102V17.3105Z" fill="#FF4F8B"/>
<path d="M2.85102 16.6427H2V15.7917C2 15.6789 2.04483 15.5706 2.12463 15.4908C2.20443 15.411 2.31266 15.3662 2.42551 15.3662H3.27653V16.2172H2.85102V16.6427Z" fill="#FF4F8B"/>
<path d="M19.9294 16.2172H18.3423V15.3662H19.9294V16.2172ZM17.5465 16.2172H15.9637V15.3662H17.5295L17.5465 16.2172ZM15.168 16.2172H13.5851V15.3662H15.168V16.2172ZM12.7894 16.2172H11.2065V15.3662H12.7894V16.2172ZM10.4108 16.2172H8.8236V15.3662H10.4108V16.2172ZM8.03216 16.2172H6.46628V15.3662H8.05343L8.03216 16.2172ZM5.65356 16.2172H4.06641V15.3662H5.65356V16.2172Z" fill="#FF4F8B"/>
<path d="M22.0031 16.6427H21.1521V16.2172H20.7266V15.3662H21.5776C21.6904 15.3662 21.7987 15.411 21.8785 15.4908C21.9583 15.5706 22.0031 15.6789 22.0031 15.7917V16.6427Z" fill="#FF4F8B"/>
<path d="M21.9995 17.3105H21.1484V18.6552H21.9995V17.3105Z" fill="#FF4F8B"/>
</svg>
