<svg width="24" height="24" viewBox="0 0 24 24" fill="none" xmlns="http://www.w3.org/2000/svg">
<path d="M17.3594 5.88881L19.0707 5.44434L19.0835 5.46329L19.1267 15.8857L19.0707 15.9424L18.7181 15.9576L17.3794 15.7474L17.3594 15.6942V5.88881Z" fill="#7A3E65"/>
<path d="M7.46484 16.666L7.47115 16.6665L11.9886 17.9905L12.0001 17.9994L12.0197 18.0152L12.0133 21.9825L12.0001 21.9994L7.46484 19.7771V16.666Z" fill="#7A3E65"/>
<path d="M17.3625 15.6943L12.0075 16.9878L9.31884 16.3333L7.46484 16.6665L12.0001 17.9999L18.9996 16.0885L19.0739 15.9425L17.3625 15.6943Z" fill="#CFB2C1"/>
<path d="M16.5348 7.33283L16.4912 7.28266L12.0483 5.98058L11.9996 5.99954L11.955 5.97656L4.96396 8.00985L4.92578 8.05694L4.98189 8.08795L6.58063 8.32439L6.63714 8.30503L11.9921 7.01159L14.6808 7.66618L16.5348 7.33283Z" fill="#512843"/>
<path d="M6.63721 18.1102L4.92586 18.5269L4.92287 18.5169L4.85547 8.1334L4.92586 8.05664L6.63721 8.30473V18.1102Z" fill="#C17B9E"/>
<path d="M8.94922 14.0825L12.0012 14.4436L12.0242 14.4091L12.0366 9.59414L12.0012 9.55469L8.94922 9.91584V14.0825Z" fill="#7A3E65"/>
<path d="M15.052 14.0825L12 14.4436V9.55469L15.052 9.91584V14.0825Z" fill="#C17B9E"/>
<path d="M16.5352 7.33329L12 6V2L16.5352 4.22217V7.33329Z" fill="#C17B9E"/>
<path d="M12 2L3.5 6.13885V17.861L4.92621 18.5277V8.0574L12 6V2Z" fill="#7A3E65"/>
<path d="M19.0738 5.44434V15.9424L12 17.9998V21.9998L20.5 17.8609V6.13878L19.0738 5.44434Z" fill="#C17B9E"/>
</svg>
