<svg width="24" height="24" viewBox="0 0 24 24" fill="none" xmlns="http://www.w3.org/2000/svg">
<path d="M14.6202 22H14.8668L18.8921 20.015L18.9591 19.9216V4.07722L18.8921 3.98336L14.8668 2H14.6172L14.6202 22Z" fill="#5294CF"/>
<path d="M9.37932 22H9.12927L5.1074 20.015L5.02578 19.8765L4.98438 4.15791L5.1074 3.98336L9.12927 2H9.38241L9.37932 22Z" fill="#1F5B98"/>
<path d="M9.13672 2H14.8608V22H9.13672V2Z" fill="#2D72B8"/>
<path d="M21.0001 11.5507L20.8641 11.521L18.9219 11.3424L18.8931 11.3565L14.8642 11.1977H9.13984L5.11087 11.3565V8.32681L5.10665 8.32903L5.11087 8.32016L9.13984 7.39954H14.8642L18.8931 8.32016L20.3742 9.09652V8.59738L21.0001 8.52986L20.9353 8.40522L18.9535 7.00772L18.8931 7.02706L14.8642 5.79594H9.13984L5.11087 7.02706V3.9834L3.00391 6.41757V8.54345L3.02022 8.5318L3.62984 8.59738V9.10678L3.00391 9.4371V11.5524L3.02022 11.5507L3.62984 11.5596V12.4474L3.10387 12.4552L3.00391 12.4458V14.5619L3.62984 14.8938V15.4091L3.03013 15.4744L3.00391 15.455V17.5805L5.11087 20.015V16.9716L9.13984 18.2028H14.8642L18.905 16.968L18.9587 16.9913L20.9144 15.6143L21.0001 15.4772L20.3742 15.4091V14.9041L20.2921 14.8718L18.9535 15.5834L18.905 15.6833L14.8642 16.5985V16.5996H9.13984V16.5985L5.11087 15.6794V12.6385L9.13984 12.7969V12.8008H14.8642L18.8931 12.6385L18.9848 12.6801L20.8673 12.5203L21.0001 12.4563L20.3742 12.4474V11.5596L21.0001 11.5507Z" fill="#1A476F"/>
<path d="M18.8906 16.9716V20.015L20.9977 17.5805V15.4688L18.9028 16.968L18.8906 16.9716ZM18.8906 15.686L18.9028 15.6833L20.9977 14.5721V12.4474L18.8906 12.6385V15.686ZM18.9028 8.32293L18.8906 8.32016V11.3565L20.9977 11.5507V9.42705L18.9028 8.32293ZM18.9028 7.03898L20.9977 8.52986V6.41812L18.8906 3.9834V7.02706L18.9028 7.03122V7.03898Z" fill="#2D72B8"/>
</svg>
