<svg width="24" height="24" viewBox="0 0 24 24" fill="none" xmlns="http://www.w3.org/2000/svg">
<path d="M20.4985 8.48615L20.2255 8.48168L12.0049 6.10951L12 5.99974V2L20.4991 6.14278L20.4985 8.48615Z" fill="#D9A741"/>
<path d="M12 6.23948L12.0009 2L3.50113 6.14116L3.5 17.8573L3.50425 17.8594V17.8595L11.9991 22.0002L12.0274 21.9619L12.0164 18.0221L11.9997 18.0001L11.4688 17.6311L4.89453 15.7217L4.92773 8.31068L12 6.23948Z" fill="#876929"/>
<path d="M13.2712 14.6406L4.58594 15.8315L4.58654 8.16699L13.2718 9.35948L13.2712 14.6406Z" fill="#D9A741"/>
<path d="M8.87109 14.1559L12.001 14.5443L12.0015 9.45312L8.87169 9.84115L8.87109 14.1559Z" fill="#876929"/>
<path d="M5.71484 13.7653L7.74601 14.0169L7.74661 9.98047L5.71484 10.2327V13.7653Z" fill="#876929"/>
<path d="M4.58594 8.16725L12.0004 6L20.4989 8.48641L13.2766 9.36033L4.58594 8.16725Z" fill="#624A1E"/>
<path d="M20.4954 13.4804L12 14.5254L12.0005 9.45312L20.4954 10.5079V13.4804Z" fill="#D9A741"/>
<path d="M20.4954 15.5166L20.3126 15.5243L12.0267 17.969L12.0006 18L12 22L20.4954 17.8608V15.5166Z" fill="#D9A741"/>
<path d="M4.58594 15.8315L11.9999 18.0001L20.4947 15.5167L13.2712 14.6406L4.58594 15.8315Z" fill="#FAD791"/>
</svg>
