<svg width="24" height="24" viewBox="0 0 24 24" fill="none" xmlns="http://www.w3.org/2000/svg">
<path d="M19.549 7.58469L21.9036 7.58473L21.9037 2.09979H16.3412V4.45441H19.5491L19.549 7.58469Z" fill="#006DD6"/>
<path d="M4.35056 16.4153L1.99594 16.4153L1.99585 21.9002H7.55842V19.5456H4.35051L4.35056 16.4153Z" fill="#006DD6"/>
<path d="M15.4435 13.7054C15.2378 13.7643 15.0206 13.7958 14.796 13.7958C14.5263 13.7958 14.2672 13.7503 14.026 13.6666L12.5447 15.8957C12.8303 16.1801 13.0071 16.5737 13.0071 17.0086C13.0071 17.876 12.304 18.5791 11.4367 18.5791C10.5693 18.5791 9.86622 17.876 9.86622 17.0086C9.86622 16.1413 10.5693 15.4382 11.4367 15.4382C11.4875 15.4382 11.5378 15.4406 11.5875 15.4453L13.1387 13.1111C12.8851 12.8584 12.689 12.5481 12.5716 12.2015L6.67174 12.5644C6.51675 13.2687 5.88891 13.7958 5.13797 13.7958C4.27063 13.7958 3.56751 13.0927 3.56751 12.2254C3.56751 11.358 4.27063 10.6549 5.13797 10.6549C5.75316 10.6549 6.28573 11.0086 6.54339 11.5238L12.4656 11.1595C12.5226 10.6947 12.7154 10.2718 13.0031 9.93188L10.9012 7.02516C10.7101 7.08734 10.5062 7.12095 10.2943 7.12095C9.21197 7.12095 8.33455 6.24353 8.33455 5.16117C8.33455 4.07882 9.21197 3.2014 10.2943 3.2014C11.3767 3.2014 12.2541 4.07882 12.2541 5.16117C12.2541 5.65281 12.0731 6.10216 11.774 6.4462L13.8398 9.30298C14.1319 9.17259 14.4554 9.10011 14.796 9.10011C16.0926 9.10011 17.1438 10.1513 17.1438 11.448C17.1438 12.1441 16.8409 12.7694 16.3596 13.1994L18.2147 16.4541C18.3389 16.4287 18.4674 16.4153 18.5991 16.4153C19.6493 16.4153 20.5006 17.2666 20.5006 18.3168C20.5006 19.367 19.6493 20.2183 18.5991 20.2183C17.5489 20.2183 16.6976 19.367 16.6976 18.3168C16.6976 17.7752 16.924 17.2866 17.2872 16.9403L15.4435 13.7054Z" fill="#006DD6"/>
</svg>
