<svg width="24" height="24" viewBox="0 0 24 24" fill="none" xmlns="http://www.w3.org/2000/svg">
<path d="M22.4604 1.4608H1.53958C1.49412 1.4608 1.45728 1.49765 1.45728 1.5431V6.2573C1.45728 6.30275 1.49412 6.3396 1.53958 6.3396H4.16486C4.21032 6.3396 4.24716 6.30275 4.24716 6.2573V4.33299C4.24716 4.28754 4.28401 4.25069 4.32947 4.25069H19.7826C19.8281 4.25069 19.8649 4.28754 19.8649 4.33299V6.2573C19.8649 6.30275 19.9018 6.3396 19.9472 6.3396H22.4604C22.5058 6.3396 22.5427 6.30275 22.5427 6.2573V1.5431C22.5427 1.49765 22.5058 1.4608 22.4604 1.4608Z" fill="#0078D7"/>
<path d="M5.90149 7.4532L11.1854 12.4793C11.546 12.8223 12.1108 12.8272 12.4772 12.4903L17.9572 7.4532H5.90149Z" fill="#0078D7"/>
<path d="M5.96343 8.87759V16.5982H17.8952V8.87759L13.1565 13.0117C12.4422 13.6349 11.3768 13.6331 10.6646 13.0075L5.96343 8.87759Z" fill="#0078D7"/>
<path d="M1.53958 22.5392H22.4604C22.5058 22.5392 22.5427 22.5024 22.5427 22.4569V17.7427C22.5427 17.6973 22.5058 17.6604 22.4604 17.6604H19.9472C19.9018 17.6604 19.8649 17.6973 19.8649 17.7427V19.667C19.8649 19.7125 19.8281 19.7493 19.7826 19.7493H4.32947C4.28401 19.7493 4.24716 19.7125 4.24716 19.667V17.7427C4.24716 17.6973 4.21032 17.6604 4.16486 17.6604H1.53958C1.49412 17.6604 1.45728 17.6973 1.45728 17.7427V22.4569C1.45728 22.5024 1.49412 22.5392 1.53958 22.5392Z" fill="#0078D7"/>
</svg>
