<svg width="24" height="24" viewBox="0 0 24 24" fill="none" xmlns="http://www.w3.org/2000/svg">
<path d="M1.68945 8.10376H22.3107V19.6007C22.3107 19.7834 22.2381 19.9587 22.1089 20.0879C21.9796 20.2171 21.8044 20.2897 21.6217 20.2897H2.37844C2.19571 20.2897 2.02046 20.2171 1.89125 20.0879C1.76204 19.9587 1.68945 19.7834 1.68945 19.6007V8.10376V8.10376Z" fill="url(#paint0_linear)"/>
<path d="M2.38208 3.71021H21.618C21.8008 3.71021 21.976 3.7828 22.1052 3.91202C22.2344 4.04123 22.307 4.21647 22.307 4.39921V8.10374H1.68945V4.39921C1.68945 4.30842 1.70739 4.21853 1.74225 4.1347C1.7771 4.05087 1.82817 3.97475 1.89254 3.91072C1.9569 3.8467 2.03329 3.79602 2.1173 3.76161C2.20131 3.7272 2.2913 3.70974 2.38208 3.71021V3.71021Z" fill="#0078D4"/>
<path d="M11.1824 9.63342H4.25002C4.06043 9.63342 3.90674 9.78712 3.90674 9.97671V13.4241C3.90674 13.6137 4.06043 13.7674 4.25002 13.7674H11.1824C11.372 13.7674 11.5257 13.6137 11.5257 13.4241V9.97671C11.5257 9.78712 11.372 9.63342 11.1824 9.63342Z" fill="#0078D4"/>
<path d="M19.6831 9.63342H12.7508C12.5612 9.63342 12.4075 9.78712 12.4075 9.97671V13.4241C12.4075 13.6137 12.5612 13.7674 12.7508 13.7674H19.6831C19.8727 13.7674 20.0264 13.6137 20.0264 13.4241V9.97671C20.0264 9.78712 19.8727 9.63342 19.6831 9.63342Z" fill="white"/>
<path d="M11.1436 14.5813H4.2112C4.02161 14.5813 3.86792 14.735 3.86792 14.9246V18.372C3.86792 18.5615 4.02161 18.7152 4.2112 18.7152H11.1436C11.3332 18.7152 11.4868 18.5615 11.4868 18.372V14.9246C11.4868 14.735 11.3332 14.5813 11.1436 14.5813Z" fill="#0078D4"/>
<path d="M19.6443 14.5813H12.7119C12.5223 14.5813 12.3687 14.735 12.3687 14.9246V18.372C12.3687 18.5615 12.5223 18.7152 12.7119 18.7152H19.6443C19.8339 18.7152 19.9876 18.5615 19.9876 18.372V14.9246C19.9876 14.735 19.8339 14.5813 19.6443 14.5813Z" fill="#0078D4"/>
<defs>
<linearGradient id="paint0_linear" x1="12.0001" y1="20.2897" x2="12.0001" y2="8.10376" gradientUnits="userSpaceOnUse">
<stop stop-color="#32BEDD"/>
<stop offset="0.775" stop-color="#32D4F5"/>
</linearGradient>
</defs>
</svg>
