<svg width="24" height="24" viewBox="0 0 24 24" fill="none" xmlns="http://www.w3.org/2000/svg">
<path fill-rule="evenodd" clip-rule="evenodd" d="M11.1994 7.17868H14.0152V8.05699H11.5632L6.84441 12.7757H8.6708L11.5286 9.91794H16.8466V10.7963H11.8924L9.91291 12.7757H12.8167V13.654H8.37866L10.3417 15.6171H15.5692V16.4954H9.97788L7.13655 13.654H4.88867V12.7757H5.6023L11.1994 7.17868Z" fill="#0878C0"/>
<path d="M16.2804 7.61783C16.2804 8.27607 15.7468 8.80967 15.0885 8.80967C14.4303 8.80967 13.8967 8.27607 13.8967 7.61783C13.8967 6.95959 14.4303 6.42599 15.0885 6.42599C15.7468 6.42599 16.2804 6.95959 16.2804 7.61783Z" fill="#5FBAD5"/>
<path d="M15.0885 13.2544C15.0885 13.9126 14.5549 14.4462 13.8967 14.4462C13.2384 14.4462 12.7048 13.9126 12.7048 13.2544C12.7048 12.5962 13.2384 12.0626 13.8967 12.0626C14.5549 12.0626 15.0885 12.5962 15.0885 13.2544Z" fill="#5FBAD5"/>
<path d="M19.1181 10.3571C19.1181 11.0153 18.5845 11.5489 17.9263 11.5489C17.2681 11.5489 16.7344 11.0153 16.7344 10.3571C16.7344 9.69886 17.2681 9.16525 17.9263 9.16525C18.5845 9.16525 19.1181 9.69886 19.1181 10.3571Z" fill="#B6E13C"/>
<path d="M17.8144 16.0562C17.8144 16.7145 17.2807 17.2481 16.6225 17.2481C15.9643 17.2481 15.4307 16.7145 15.4307 16.0562C15.4307 15.398 15.9643 14.8644 16.6225 14.8644C17.2807 14.8644 17.8144 15.398 17.8144 16.0562Z" fill="#B6E13C"/>
<path d="M21.7296 2.09979H2.27072C2.1746 2.09979 2.09668 2.17772 2.09668 2.27384V6.50875C2.09668 6.60487 2.1746 6.68279 2.27073 6.68279H4.54337C4.63949 6.68279 4.71742 6.60487 4.71742 6.50875V4.89458C4.71742 4.79845 4.79534 4.72053 4.89146 4.72053H19.2142C19.3104 4.72053 19.3883 4.79845 19.3883 4.89458V6.50875C19.3883 6.60487 19.4662 6.68279 19.5623 6.68279H21.7296C21.8257 6.68279 21.9037 6.60487 21.9037 6.50875V2.27384C21.9037 2.17772 21.8257 2.09979 21.7296 2.09979Z" fill="#0878C0"/>
<path d="M21.7296 21.9002H2.27072C2.1746 21.9002 2.09668 21.8223 2.09668 21.7262V17.4913C2.09668 17.3951 2.1746 17.3172 2.27073 17.3172H4.54337C4.63949 17.3172 4.71742 17.3951 4.71742 17.4913V19.1054C4.71742 19.2015 4.79534 19.2795 4.89146 19.2795H19.2142C19.3104 19.2795 19.3883 19.2015 19.3883 19.1054V17.4913C19.3883 17.3951 19.4662 17.3172 19.5623 17.3172H21.7296C21.8257 17.3172 21.9037 17.3951 21.9037 17.4913V21.7262C21.9037 21.8223 21.8257 21.9002 21.7296 21.9002Z" fill="#0878C0"/>
</svg>
