<svg width="24" height="24" viewBox="0 0 24 24" fill="none" xmlns="http://www.w3.org/2000/svg">
<path fill-rule="evenodd" clip-rule="evenodd" d="M12 22C6.48588 22 2 17.5141 2 12C2 6.48588 6.48588 2 12 2C17.5141 2 22 6.48588 22 12C22 17.5141 17.5141 22 12 22ZM12 2.93529C7.00177 2.93529 2.93529 7.00118 2.93529 12C2.93529 16.9988 7.00177 21.0647 12 21.0647C16.9982 21.0647 21.0647 16.9982 21.0647 12C21.0647 7.00177 16.9982 2.93529 12 2.93529" fill="#00AFBA"/>
<path d="M18.1108 12.4923C17.596 12.5299 17.0813 12.5464 16.5666 12.574L15.0225 12.6223C14.5866 12.6358 14.1508 12.6429 13.7155 12.6488C14.1155 12.8217 14.5155 12.9946 14.9131 13.1735L16.3208 13.8088C16.786 14.0311 17.2549 14.244 17.7166 14.4752L17.5649 14.8411C17.0749 14.6788 16.5931 14.4976 16.1072 14.3258L14.6619 13.7793C14.2543 13.6246 13.849 13.4652 13.4443 13.3035C13.7487 13.6152 14.0505 13.9296 14.3496 14.2464L15.4078 15.3723C15.7519 15.7558 16.1043 16.1317 16.4419 16.5223L16.1619 16.8023C15.7708 16.4646 15.3955 16.1123 15.0119 15.7682L13.8866 14.7099C13.5684 14.4111 13.2555 14.1082 12.9431 13.804C13.1043 14.2093 13.2643 14.6146 13.4184 15.0229L13.9655 16.467C14.1372 16.9535 14.3184 17.4352 14.4802 17.9246L14.1155 18.077C13.8831 17.6152 13.6713 17.1458 13.449 16.6811L12.8137 15.2735C12.6343 14.8758 12.4608 14.4758 12.289 14.0752C12.2825 14.5111 12.2755 14.947 12.2619 15.3829L12.2143 16.927C12.186 17.4417 12.1696 17.9564 12.1319 18.4711H11.7366C11.699 17.9564 11.6825 17.4417 11.6549 16.927L11.6066 15.3829C11.579 14.4764 11.5719 13.5699 11.566 12.664C10.6596 12.6623 9.75311 12.6582 8.84605 12.6335L7.30193 12.5905C6.78722 12.564 6.27252 12.5493 5.75781 12.5129V12.0764C6.27252 12.0399 6.78722 12.0252 7.30193 11.9988L8.84546 11.9552C9.27134 11.944 9.69664 11.9388 10.1219 11.934C9.73075 11.767 9.33958 11.5993 8.95134 11.4258L7.54134 10.7952C7.07605 10.5735 6.60605 10.3629 6.14428 10.1323L6.31134 9.72934C6.80075 9.89287 7.28252 10.0764 7.76781 10.2488L9.21075 10.7999C9.6084 10.9517 10.0031 11.1093 10.3984 11.2682C10.1008 10.964 9.80369 10.6593 9.51075 10.3505L8.44958 9.22816C8.10428 8.84581 7.75075 8.47111 7.41311 8.08111L7.72075 7.77287C8.11075 8.11111 8.48546 8.46463 8.86781 8.80993L9.99017 9.8711C10.2985 10.1644 10.6044 10.4603 10.9078 10.7588C10.749 10.3635 10.5913 9.96875 10.4396 9.57169L9.8884 8.12816C9.71605 7.64287 9.53252 7.16111 9.36958 6.67228L9.77193 6.50463C10.0025 6.9664 10.2131 7.43699 10.4349 7.90169L11.0655 9.31169C11.239 9.70051 11.4066 10.0917 11.5743 10.4829L11.5743 10.4829C11.5784 10.0576 11.5837 9.63169 11.5955 9.2064L11.6384 7.66228C11.6649 7.14758 11.6796 6.63287 11.716 6.11816H12.1525C12.189 6.63287 12.2037 7.14758 12.2302 7.66228L12.2737 9.2064C12.2978 10.1129 12.3019 11.0199 12.3037 11.9258C13.2108 11.9317 14.1166 11.9393 15.0225 11.967L16.5666 12.0146C17.0813 12.0429 17.596 12.0593 18.1108 12.097V12.4923Z" fill="#00AFBA"/>
</svg>
