<svg width="24" height="24" viewBox="0 0 24 24" fill="none" xmlns="http://www.w3.org/2000/svg">
<path d="M18.7511 16.4937L16.97 15.3197L15.4845 17.8007L13.7573 17.2961L12.2359 19.6177L12.314 20.3483L20.5839 18.8248L20.1035 13.6579L18.7511 16.4937ZM11.0386 14.2671L12.3658 14.0844C12.5801 14.1805 12.73 14.2174 12.9876 14.2829C13.3888 14.3874 13.8523 14.4877 14.5396 14.1414C14.699 14.0622 15.0326 13.7571 15.1667 13.584L20.6029 12.5979L21.1572 19.3094L11.8442 20.9881L11.0386 14.2671ZM21.1361 11.8483L20.5997 11.9507L19.5693 1.30005L2.00439 3.33664L4.16873 20.8973L6.22432 20.5985C6.06068 20.3641 5.80412 20.0801 5.36809 19.717C4.76207 19.2144 4.9764 18.3592 5.3343 17.8197C5.80623 16.9086 8.2419 15.7494 8.1036 14.2924C8.05398 13.7624 7.96951 13.073 7.47752 12.6C7.45957 12.7964 7.4923 12.9853 7.4923 12.9853C7.4923 12.9853 7.29065 12.7277 7.1893 12.3762C7.089 12.241 7.01087 12.1988 6.90424 12.0183C6.82822 12.2262 6.83878 12.468 6.83878 12.468C6.83878 12.468 6.67408 12.0774 6.64663 11.748C6.54844 11.8958 6.52416 12.1756 6.52416 12.1756C6.52416 12.1756 6.30984 11.5601 6.3584 11.2285C6.26022 10.9403 5.96988 10.3681 6.05223 9.06737C6.58856 9.44323 7.76892 9.35349 8.22818 8.67568C8.38126 8.4508 8.48579 7.83845 8.15216 6.6317C7.93784 5.85782 7.40784 4.70492 7.20091 4.26677L7.17663 4.28472C7.28537 4.63735 7.51025 5.37533 7.59683 5.7343C7.8576 6.82069 7.92728 7.19865 7.80481 7.69909C7.70029 8.13407 7.45113 8.41913 6.81766 8.73797C6.1842 9.05787 5.34381 8.27976 5.28996 8.23753C4.67445 7.74765 4.19829 6.94738 4.1455 6.55885C4.0906 6.13338 4.39044 5.87788 4.54247 5.53053C4.32604 5.59282 4.08427 5.70262 4.08427 5.70262C4.08427 5.70262 4.37249 5.40384 4.72829 5.14623C4.8761 5.0491 4.96162 4.98681 5.11681 4.858C4.89193 4.85484 4.70929 4.86012 4.70929 4.86012C4.70929 4.86012 5.08408 4.65741 5.47261 4.51065C5.18861 4.49799 4.91622 4.50854 4.91622 4.50854C4.91622 4.50854 5.75239 4.1348 6.41225 3.8603C6.86623 3.67448 7.30966 3.72938 7.55882 4.0894C7.88611 4.56133 8.22923 4.81788 8.95772 4.97731C9.40537 4.77882 9.5405 4.67747 10.1022 4.52438C10.5963 3.98066 10.9848 3.90992 10.9848 3.90992C10.9848 3.90992 10.7927 4.08623 10.7409 4.3639C11.0218 4.14325 11.329 3.95849 11.329 3.95849C11.329 3.95849 11.2097 4.10524 11.0988 4.33856L11.1242 4.37657C11.4515 4.1802 11.8358 4.02605 11.8358 4.02605C11.8358 4.02605 11.726 4.16542 11.5972 4.3449C11.8442 4.34279 12.3446 4.35546 12.5378 4.37763C13.6844 4.40297 13.922 3.15293 14.3622 2.99668C14.9133 2.8003 15.1593 2.681 16.0979 3.60269C16.9035 4.39452 17.5327 5.81031 17.2202 6.1281C16.9584 6.39099 16.441 6.02569 15.8688 5.31093C15.5658 4.93296 15.3378 4.48637 15.2301 3.91837C15.1393 3.43904 14.7877 3.16138 14.7877 3.16138C14.7877 3.16138 14.9915 3.61641 14.9915 4.01761C14.9915 4.23721 15.0189 5.05649 15.3705 5.51575C15.3356 5.58332 15.3198 5.84832 15.2807 5.899C14.8722 5.40489 13.9938 5.05121 13.8512 4.94669C14.3358 5.34366 15.4497 6.25585 15.8773 7.13003C16.2816 7.9567 16.043 8.71474 16.2478 8.91112C16.3059 8.96707 17.1178 9.9785 17.274 10.4874C17.5464 11.3732 17.2899 12.3044 16.9341 12.8819L15.9385 13.0371C15.7928 12.997 15.6946 12.9758 15.5637 12.9009C15.6355 12.7731 15.7791 12.4553 15.7801 12.3899L15.7242 12.2917C15.4138 12.7309 14.8954 13.1574 14.4636 13.4024C13.8987 13.7223 13.2484 13.6727 12.825 13.5417C11.6225 13.1712 10.4854 12.3582 10.212 12.1449C10.212 12.1449 10.2035 12.3149 10.2553 12.354C10.5583 12.6961 11.253 13.3147 11.9244 13.7455L10.4939 13.9028L11.1706 19.1701C10.8708 19.2133 10.8243 19.2345 10.496 19.2809C10.2067 18.2589 9.65347 17.5906 9.04851 17.2021C8.51535 16.859 7.77947 16.7819 7.07422 16.9213L7.02882 16.9741C7.5187 16.9234 8.09726 16.9941 8.69061 17.37C9.27339 17.7384 9.74321 18.6907 9.91636 19.264C10.1381 19.9967 10.2912 20.7801 9.69465 21.611C9.27023 22.2012 8.03286 22.5274 7.03199 21.8222C7.2991 22.2519 7.66017 22.6034 8.14583 22.6689C8.86798 22.7671 9.55317 22.6414 10.024 22.1579C10.4263 21.744 10.6406 20.8783 10.5836 19.9672L11.2202 19.8753L11.4504 21.5107L21.9955 20.2406L21.1361 11.8483ZM14.7201 7.40558C14.6906 7.47315 14.6441 7.51644 14.7138 7.73499L14.718 7.74765L14.7286 7.77616L14.7571 7.84162C14.8827 8.09712 15.02 8.33889 15.2491 8.46241C15.3082 8.45291 15.3705 8.44552 15.4338 8.44235C15.6492 8.43285 15.7854 8.46664 15.872 8.51415C15.8794 8.47086 15.8815 8.40857 15.8762 8.31566C15.8593 7.99154 15.9406 7.44042 15.3177 7.15009C15.0823 7.04134 14.7529 7.07407 14.6431 7.21132C14.6631 7.21343 14.6811 7.21766 14.6948 7.22294C14.8627 7.27995 14.7507 7.33696 14.7201 7.40558ZM16.4664 10.4304C16.3851 10.385 16.0029 10.4029 15.7347 10.4346C15.2237 10.4948 14.6716 10.6721 14.5501 10.7661C14.3305 10.9361 14.4298 11.2328 14.5924 11.3542C15.0485 11.6941 15.4476 11.9232 15.8688 11.8673C16.1275 11.8335 16.3555 11.4239 16.5171 11.0512C16.629 10.7957 16.629 10.5201 16.4664 10.4304ZM11.9403 7.80678C12.0849 7.66953 11.2224 7.49005 10.553 7.94614C10.0599 8.28293 10.0441 9.00508 10.516 9.41366C10.5635 9.45378 10.6026 9.48335 10.6385 9.50657C10.7768 9.44112 10.9341 9.37566 11.1147 9.31759C11.4208 9.21835 11.6742 9.16661 11.8833 9.14022C11.9836 9.02831 12.0997 8.83193 12.0701 8.47614C12.0311 7.99154 11.6647 8.06861 11.9403 7.80678Z" fill="#632CA6"/>
</svg>
