<svg width="24" height="24" viewBox="0 0 24 24" fill="none" xmlns="http://www.w3.org/2000/svg">
<path d="M11.9987 2C6.4775 2 2 6.59056 2 12.2534C2 16.7827 4.865 20.6252 8.84 21.9822C9.34 22.0767 9.5225 21.7601 9.5225 21.4882C9.5225 21.2444 9.51375 20.5997 9.50875 19.7444C6.7275 20.3635 6.14 18.3695 6.14 18.3695C5.68625 17.1849 5.03 16.8695 5.03 16.8695C4.12125 16.2338 5.0975 16.2466 5.0975 16.2466C6.10125 16.3193 6.62875 17.3036 6.62875 17.3036C7.52125 18.8699 8.97 18.418 9.54 18.155C9.63 17.4925 9.88875 17.0406 10.175 16.784C7.955 16.5249 5.62 15.6453 5.62 11.7173C5.62 10.5977 6.01 9.68243 6.65 8.96499C6.54625 8.70585 6.20375 7.66288 6.7475 6.25227C6.7475 6.25227 7.5875 5.97653 9.4975 7.30289C10.295 7.07566 11.15 6.96204 12.0013 6.95821C12.85 6.96332 13.7062 7.07566 14.505 7.30417C16.4137 5.97781 17.2525 6.25355 17.2525 6.25355C17.7975 7.66544 17.455 8.70712 17.3525 8.96627C17.9937 9.6837 18.38 10.599 18.38 11.7186C18.38 15.6568 16.0425 16.5236 13.815 16.7776C14.1737 17.0942 14.4937 17.7197 14.4937 18.6759C14.4937 20.0469 14.4812 21.1524 14.4812 21.4882C14.4812 21.7626 14.6613 22.0818 15.1687 21.9809C19.1375 20.6227 22 16.7815 22 12.2534C22 6.59056 17.5225 2 11.9987 2Z" fill="black"/>
</svg>
