<svg width="24" height="24" viewBox="0 0 24 24" fill="none" xmlns="http://www.w3.org/2000/svg">
<g clip-path="url(#clip0_2_1464)">
<path d="M4.00574 18.7579L4.13315 18.5711L10.1853 6.62202L10.1969 6.49548L7.52697 1.27718C7.3011 0.837301 6.67562 0.951791 6.60033 1.43988L4.00574 18.7579Z" fill="#FFC24A"/>
<path d="M12.1429 10.4423L14.1294 8.3273L12.1429 4.38043C11.9518 4.00684 11.4247 4.00684 11.2394 4.38043L10.1796 6.48944V6.67022L12.1429 10.4423Z" fill="#F4BD62"/>
<path d="M4.00574 18.7579L4.06365 18.6976L4.27215 18.6072L12.0212 10.5809L12.1138 10.3037L10.1853 6.47137L4.00574 18.7579Z" fill="#F6820C"/>
<path d="M12.3918 22.8072L19.3996 18.7398L17.3957 5.91097C17.332 5.50725 16.8571 5.35058 16.5849 5.63981L4.00574 18.7579L10.9787 22.8072C11.4131 23.0663 11.9517 23.0663 12.3918 22.8072Z" fill="#FDE068"/>
<path d="M19.3417 18.7036L17.3552 5.97726C17.2915 5.57956 16.8977 5.41686 16.6255 5.70007L4.08105 18.7338L10.9729 22.7409C11.4073 22.994 11.9401 22.994 12.3803 22.7409L19.3417 18.7036Z" fill="#FCCA3F"/>
<path d="M12.3919 22.6866C11.9517 22.9397 11.4131 22.9397 10.973 22.6866L4.05792 18.6976L4 18.7579L10.973 22.8072C11.4131 23.0602 11.9517 23.0602 12.3919 22.8072L19.3996 18.7398L19.3822 18.6313L12.3919 22.6866Z" fill="#EEAB37"/>
<path d="M21.9387 18.6347C22.3409 16.0492 20.6525 13.6139 18.1675 13.1954C15.6824 12.7768 13.3418 14.5335 12.9395 17.1191C12.5373 19.7047 14.2257 22.1399 16.7108 22.5585C19.1958 22.977 21.5364 21.2203 21.9387 18.6347Z" fill="#757575"/>
<path fill-rule="evenodd" clip-rule="evenodd" d="M15.3802 16.5946L17.4073 15.522L19.4922 16.5946V17.6732L17.4073 16.6007L15.3802 17.6732V16.5946Z" fill="white"/>
<path fill-rule="evenodd" clip-rule="evenodd" d="M15.3802 18.4385L17.4073 17.372L19.4922 18.4385V19.5232L17.4073 18.4506L15.3802 19.5232V18.4385Z" fill="white"/>
<path fill-rule="evenodd" clip-rule="evenodd" d="M17.4131 19.493L18.0038 19.2098L19.0463 19.7099L17.4131 20.5234V19.493Z" fill="white"/>
</g>
<defs>
<clipPath id="clip0_2_1464">
<rect width="18" height="22" fill="white" transform="translate(4 1)"/>
</clipPath>
</defs>
</svg>
