<svg width="24" height="24" viewBox="0 0 24 24" fill="none" xmlns="http://www.w3.org/2000/svg">
<g clip-path="url(#clip0_2_1635)">
<path d="M24.0002 11.6416C24.0002 11.915 24.0002 12.1885 24.0002 12.4619C23.8416 12.7025 23.8197 13.0088 23.6228 13.233C23.6064 13.14 23.5463 13.0744 23.4806 13.0088C22.8845 12.4127 22.2994 11.8111 21.7142 11.1986C20.9213 10.3674 20.0736 9.57988 19.2861 8.74317C18.7447 8.16895 18.1924 7.60567 17.6236 7.06427C17.5252 7.0588 17.4268 7.0424 17.3283 7.0424C16.4205 7.0424 15.5127 7.0424 14.6049 7.0424C13.3908 7.0424 12.1713 7.04786 10.9573 7.03693C10.744 7.03693 10.6729 7.09708 10.6838 7.31036C10.7002 7.53458 10.6838 7.76427 10.6784 7.98848C10.476 7.80255 10.2901 7.61114 10.1096 7.40333C9.83071 7.08615 9.54087 6.76896 9.2018 6.51193C9.16352 6.46271 9.10884 6.46271 9.05415 6.46271C8.2229 6.46271 7.38619 6.46818 6.55495 6.45724C6.37448 6.45724 6.37448 6.54474 6.37448 6.67599C6.37995 7.49083 6.37448 8.30567 6.37448 9.12051C6.37448 9.19707 6.3526 9.28457 6.43463 9.34473C6.6151 9.53613 6.78463 9.73847 6.97604 9.908C7.15104 10.0611 7.24947 10.2908 7.47916 10.3838C7.48463 10.4932 7.49556 10.6025 7.49556 10.7119C7.49556 12.6314 7.49556 14.5455 7.50103 16.465C7.50103 16.5689 7.43541 16.7056 7.58306 16.7822C7.60494 16.8642 7.65963 16.9244 7.71978 16.9845C8.32134 17.6025 8.91743 18.2205 9.51899 18.833C10.7932 20.129 12.0729 21.4251 13.3526 22.7212C13.3963 22.765 13.4346 22.8196 13.4783 22.8634C13.4072 22.8689 13.3307 22.8743 13.2596 22.8743C11.2307 22.8743 9.20727 22.8743 7.17838 22.8743C6.27604 22.8743 5.61433 22.4806 5.17136 21.704C3.55809 18.8603 1.95028 16.022 0.337013 13.1783C-0.111422 12.3963 -0.111422 11.6142 0.331544 10.8267C1.93935 7.99395 3.55262 5.16116 5.15495 2.32289C5.61433 1.51352 6.29792 1.11977 7.2276 1.11977C10.3885 1.12524 13.5549 1.13071 16.7158 1.11977C17.7057 1.11431 18.4057 1.52446 18.8869 2.38852C20.0135 4.40101 21.1728 6.39162 22.2884 8.40958C22.8791 9.47598 23.5955 10.4768 24.0002 11.6416Z" fill="#4285F4"/>
<path d="M23.6229 13.2275C23.0322 14.2775 22.4471 15.333 21.851 16.383C20.8612 18.1384 19.8604 19.883 18.876 21.6384C18.4057 22.4806 17.7166 22.8962 16.7432 22.8798C15.6549 22.8634 14.5612 22.8689 13.4729 22.8634C13.4292 22.8142 13.3964 22.765 13.3471 22.7212C12.0675 21.4251 10.7878 20.1291 9.51356 18.833C8.912 18.2205 8.31591 17.597 7.71435 16.9845C7.65967 16.9244 7.59951 16.8697 7.57764 16.7822C8.41982 16.7767 9.26747 16.7767 10.1097 16.7713C10.662 16.7713 10.6675 16.7713 10.6784 17.3291C10.6784 17.4767 10.7112 17.5369 10.8753 17.5369C13.0573 17.5314 15.2393 17.5314 17.4159 17.5369C17.569 17.5369 17.6182 17.4931 17.6182 17.34C17.6073 16.8041 17.6018 16.2681 17.6237 15.7322C17.6346 15.4806 17.5471 15.4369 17.3174 15.4369C15.2995 15.4478 13.2815 15.4424 11.2636 15.4424C10.7003 15.4424 10.6948 15.4424 10.6893 15.9947C10.6893 16.1642 10.6346 16.208 10.4706 16.208C9.73231 16.2025 8.9995 16.2025 8.26123 16.208C8.10263 16.208 8.05888 16.1533 8.05888 16.0002C8.06435 14.9283 8.06435 13.8564 8.05888 12.7846C8.05888 12.5932 8.13545 12.5658 8.29951 12.5658C8.90653 12.5713 9.51903 12.5713 10.1261 12.5713C10.6729 12.5713 10.6784 12.5713 10.6839 13.1182C10.6839 13.2767 10.7112 13.3424 10.8917 13.3424C13.0628 13.3369 15.2338 13.3369 17.4049 13.3424C17.569 13.3424 17.6237 13.3041 17.6237 13.1291C17.6127 12.5932 17.6073 12.0572 17.6237 11.5213C17.6291 11.2861 17.558 11.2369 17.3338 11.2369C15.2995 11.2479 13.2651 11.2424 11.2253 11.2424C10.7003 11.2424 10.6893 11.2424 10.6893 11.7783C10.6893 11.9643 10.6292 12.008 10.4542 12.008C9.73778 12.0025 9.01591 12.0025 8.29951 12.008C8.13545 12.008 8.05341 11.9807 8.05888 11.7893C8.06982 11.0455 8.06982 10.3018 8.05888 9.55255C8.05888 9.38849 8.09716 9.32286 8.27216 9.3338C8.46904 9.34474 8.67138 9.31739 8.87372 9.33927C9.13075 9.36661 9.19091 9.26818 9.19091 9.02208C9.17997 8.18537 9.19638 7.35412 9.20185 6.51741C9.54637 6.77444 9.83075 7.09163 10.1097 7.40881C10.2901 7.61115 10.4761 7.80803 10.6784 7.99396C10.6839 8.30021 10.6948 8.61193 10.6839 8.91818C10.6784 9.09864 10.7386 9.1424 10.9136 9.1424C13.0737 9.13693 15.2338 9.13693 17.394 9.1424C17.5745 9.1424 17.6237 9.09318 17.6237 8.91271C17.6127 8.29474 17.6237 7.67678 17.6237 7.05881C18.1924 7.60568 18.7448 8.16896 19.2862 8.73771C20.0737 9.57442 20.9213 10.3565 21.7143 11.1932C22.294 11.8002 22.8846 12.4072 23.4807 13.0033C23.5463 13.0689 23.6064 13.1346 23.6229 13.2275Z" fill="#2F79ED"/>
<path d="M9.20183 6.51742C9.19636 7.35413 9.17995 8.18538 9.19089 9.02209C9.19636 9.26818 9.13073 9.36662 8.8737 9.33927C8.67683 9.3174 8.47449 9.34474 8.27214 9.33381C8.09715 9.32287 8.05886 9.39396 8.05886 9.55256C8.06433 10.2963 8.0698 11.04 8.05886 11.7893C8.0534 11.9807 8.13543 12.0135 8.29949 12.008C9.01589 12.0025 9.73776 12.0025 10.4542 12.008C10.6292 12.008 10.6893 11.9643 10.6893 11.7783C10.6893 11.2424 10.7003 11.2424 11.2253 11.2424C13.2596 11.2424 15.294 11.2479 17.3338 11.2369C17.558 11.2369 17.6291 11.2861 17.6237 11.5213C17.6072 12.0572 17.6127 12.5932 17.6237 13.1291C17.6291 13.3041 17.569 13.3424 17.4049 13.3424C15.2338 13.3369 13.0627 13.3369 10.8917 13.3424C10.7112 13.3424 10.6838 13.2768 10.6838 13.1182C10.6784 12.5713 10.6729 12.5713 10.126 12.5713C9.51901 12.5713 8.90652 12.5768 8.29949 12.5658C8.13543 12.5658 8.05886 12.5932 8.05886 12.7846C8.0698 13.8564 8.06433 14.9283 8.05886 16.0002C8.05886 16.1533 8.10261 16.208 8.26121 16.208C8.99948 16.2025 9.73229 16.2025 10.4706 16.208C10.6346 16.208 10.6893 16.1642 10.6893 15.9947C10.6948 15.4424 10.7057 15.4424 11.2635 15.4424C13.2815 15.4424 15.2994 15.4478 17.3174 15.4369C17.5471 15.4369 17.6346 15.4806 17.6237 15.7322C17.6018 16.2681 17.6127 16.8041 17.6182 17.34C17.6182 17.4931 17.569 17.5424 17.4158 17.5369C15.2338 17.5314 13.0518 17.5314 10.8753 17.5369C10.7112 17.5369 10.6838 17.4767 10.6784 17.3291C10.6674 16.7713 10.662 16.7658 10.1096 16.7713C9.26745 16.7713 8.4198 16.7767 7.57762 16.7822C7.43543 16.7056 7.49559 16.5744 7.49559 16.465C7.49012 14.5455 7.49012 12.6314 7.49012 10.7119C7.49012 10.6025 7.47918 10.4932 7.47371 10.3838C7.47918 10.094 7.47918 9.80412 7.49012 9.51427C7.49559 9.37209 7.43543 9.32287 7.29871 9.32834C7.00887 9.33927 6.71903 9.33927 6.42919 9.34474C6.35262 9.28459 6.36903 9.19709 6.36903 9.12053C6.36903 8.30569 6.36903 7.49085 6.36903 6.67601C6.36903 6.54476 6.3745 6.45726 6.5495 6.45726C7.38074 6.46273 8.21746 6.46273 9.0487 6.46273C9.11433 6.46273 9.16355 6.4682 9.20183 6.51742Z" fill="#FDFEFE"/>
<path d="M17.6236 7.05881C17.6236 7.67678 17.6181 8.29474 17.6236 8.91271C17.6291 9.09317 17.5744 9.14239 17.3939 9.14239C15.2338 9.13692 13.0736 9.13692 10.9135 9.14239C10.7385 9.14239 10.6783 9.09864 10.6838 8.91817C10.6948 8.61193 10.6838 8.30021 10.6783 7.99396C10.6838 7.76974 10.7002 7.54006 10.6838 7.31584C10.6674 7.10256 10.7385 7.0424 10.9572 7.0424C12.1713 7.05334 13.3908 7.04787 14.6049 7.04787C15.5127 7.04787 16.4205 7.04787 17.3283 7.04787C17.4267 7.0424 17.5252 7.05334 17.6236 7.05881Z" fill="#FDFEFE"/>
<path d="M6.43457 9.3502C6.72441 9.34473 7.01425 9.34473 7.3041 9.33379C7.44081 9.32833 7.50097 9.37754 7.4955 9.51973C7.48456 9.80957 7.48456 10.0994 7.4791 10.3893C7.24941 10.2963 7.15097 10.0666 6.97597 9.91348C6.78457 9.73848 6.61504 9.53614 6.43457 9.3502Z" fill="#2F79ED"/>
</g>
<defs>
<clipPath id="clip0_2_1635">
<rect width="24" height="24" fill="white"/>
</clipPath>
</defs>
</svg>
