<svg width="24" height="24" viewBox="0 0 24 24" fill="none" xmlns="http://www.w3.org/2000/svg">
<g clip-path="url(#clip0_2_1530)">
<path d="M5.21072 21.6034L0.288857 13.0781C0.0996233 12.7504 0 12.3786 0 12.0001C0 11.6217 0.0996233 11.2499 0.288857 10.9221L5.21072 2.39706C5.39998 2.06925 5.6722 1.79704 6.00001 1.60779C6.32783 1.41854 6.69969 1.31892 7.07821 1.31894H16.9219C17.3004 1.31895 17.6722 1.41859 18 1.60783C18.3278 1.79708 18.6 2.06928 18.7892 2.39706L23.7111 10.9221C23.9004 11.2499 24 11.6217 24 12.0002C24 12.3787 23.9004 12.7506 23.7111 13.0783L18.7892 21.6032C18.6 21.931 18.3278 22.2032 18 22.3924C17.6722 22.5817 17.3004 22.6813 16.9219 22.6813H7.07821C6.69968 22.6813 6.32782 22.5817 6 22.3925C5.67218 22.2032 5.39996 21.931 5.21072 21.6032V21.6034Z" fill="#4285F4"/>
<path opacity="0.07" d="M22.916 14.4555L18.7893 21.6032C18.6001 21.931 18.3279 22.2032 18.0001 22.3924C17.6723 22.5817 17.3005 22.6813 16.922 22.6813H13.2827L7.56647 16.5589L8.97332 16.139L9.51926 15.0576L7.15015 11.9414V8.57122L9.22213 7.6664L12.7319 7.07846L14.0758 8.05486L15.3013 7.6664H16.564L22.916 14.4555Z" fill="black"/>
<path fill-rule="evenodd" clip-rule="evenodd" d="M15.5554 9.72427C16.286 9.72427 16.8783 9.13199 16.8783 8.40137C16.8783 7.67075 16.286 7.07846 15.5554 7.07846C14.9302 7.07846 14.4063 7.51214 14.2681 8.09508H13.3943V7.78995C13.3943 7.397 13.0758 7.07846 12.6829 7.07846H9.30747C8.91453 7.07846 8.59598 7.397 8.59598 7.78995V8.09508H7.80372C7.45007 8.09508 7.16338 8.38177 7.16338 8.73542V11.8877C7.16338 12.2414 7.45007 12.5281 7.80372 12.5281H9.57782V12.6551C9.57782 13.048 9.89636 13.3666 10.2893 13.3666H13.6647C14.0576 13.3666 14.3762 13.048 14.3762 12.6551V12.3697H15.9841V15.0472H15.3422V14.8845C15.3422 14.4916 15.0236 14.1731 14.6307 14.1731H11.2553C10.8624 14.1731 10.5438 14.4916 10.5438 14.8845V15.0472H9.52944C9.37406 14.4893 8.86229 14.08 8.25491 14.08C7.52429 14.08 6.93201 14.6723 6.93201 15.4029C6.93201 16.1335 7.52429 16.7258 8.25491 16.7258C8.86229 16.7258 9.37406 16.3165 9.52944 15.7586H10.5438V16.1074C10.5438 16.5003 10.8624 16.8189 11.2553 16.8189H14.6307C15.0236 16.8189 15.3422 16.5003 15.3422 16.1074V15.7586H16.0553C16.4089 15.7586 16.6956 15.472 16.6956 15.1183V12.2986C16.6956 11.9449 16.4089 11.6582 16.0553 11.6582H14.3762V11.4323C14.3762 11.0393 14.0576 10.7208 13.6647 10.7208H10.2893C9.89636 10.7208 9.57782 11.0393 9.57782 11.4323V11.8166H7.87487V8.80656H8.59598V9.01279C8.59598 9.40573 8.91453 9.72427 9.30747 9.72427H12.6829C13.0758 9.72427 13.3943 9.40573 13.3943 9.01279V8.80656H14.2957C14.4668 9.33898 14.9661 9.72427 15.5554 9.72427ZM15.5554 9.01279C15.8931 9.01279 16.1668 8.73904 16.1668 8.40137C16.1668 8.06369 15.8931 7.78995 15.5554 7.78995C15.2177 7.78995 14.944 8.06369 14.944 8.40137C14.944 8.73904 15.2177 9.01279 15.5554 9.01279ZM8.25491 16.0143C8.59259 16.0143 8.86633 15.7406 8.86633 15.4029C8.86633 15.0652 8.59259 14.7915 8.25491 14.7915C7.91723 14.7915 7.64349 15.0652 7.64349 15.4029C7.64349 15.7406 7.91723 16.0143 8.25491 16.0143ZM9.30747 7.78995H12.6829V9.01279L9.30747 9.01279V7.78995ZM13.6647 11.4323H10.2893V12.6551H13.6647V11.4323ZM11.2553 14.8845H14.6307V16.1074H11.2553V14.8845Z" fill="white"/>
</g>
<defs>
<clipPath id="clip0_2_1530">
<rect width="24" height="24" fill="white"/>
</clipPath>
</defs>
</svg>
