<svg width="24" height="24" viewBox="0 0 24 24" fill="none" xmlns="http://www.w3.org/2000/svg">
<g clip-path="url(#clip0)">
<path d="M20 21.7265C20 22.4291 19.4222 23 18.7111 23H5.28889C4.57778 23 4 22.4291 4 21.7265V2.27345C4 1.57086 4.57778 1 5.28889 1H13.92L20 7.15649V21.7265Z" fill="#23A566"/>
<path d="M14.5859 6.99805L19.9993 12.1006L19.9815 7.14735H19.9726H15.1993C14.977 7.14735 14.7726 7.09465 14.5859 6.99805Z" fill="#1C8F5A"/>
<path d="M19.999 7.1477H15.199C14.4879 7.1477 13.9102 6.57685 13.9102 5.87425V1L19.999 7.1477Z" fill="#8ED1B1"/>
<path fill-rule="evenodd" clip-rule="evenodd" d="M16.1598 18.9341H7.83984V11.8115H16.1598V18.9341ZM12.5154 12.8303V14.1037H15.1287V12.8303H12.5154ZM12.5154 14.8678V16.0534H15.1287V14.8678H12.5154ZM12.5154 16.8175V17.9153H15.1287V16.8175H12.5154ZM11.4843 17.9153V16.8175H8.87095V17.9153H11.4843ZM11.4843 16.0534V14.8678H8.87095V16.0534H11.4843ZM11.4843 14.1037V12.8303H8.87095V14.1037H11.4843Z" fill="white"/>
</g>
<defs>
<clipPath id="clip0">
<rect width="16" height="22" fill="white" transform="translate(4 1)"/>
</clipPath>
</defs>
</svg>
