<svg width="24" height="24" viewBox="0 0 24 24" fill="none" xmlns="http://www.w3.org/2000/svg">
<g clip-path="url(#clip0_2_1540)">
<path d="M14.9557 7.52772H15.6266L17.5388 5.6155L17.6325 4.80334C14.0735 1.66166 8.64196 2.00105 5.50027 5.56004C4.62736 6.54784 3.9948 7.72449 3.6488 8.99753C3.86142 8.91038 4.0978 8.89585 4.31966 8.95792L8.14409 8.32668C8.14409 8.32668 8.33822 8.00445 8.43991 8.02426C10.1408 6.15562 13.0039 5.93773 14.9689 7.52772H14.9557Z" fill="#EA4335"/>
<path d="M20.2631 8.9976C19.8233 7.37855 18.9214 5.92326 17.6668 4.81133L14.9834 7.49476C16.1164 8.4205 16.7622 9.81636 16.7345 11.2796V11.7563C18.0538 11.7563 19.1234 12.826 19.1234 14.1453C19.1234 15.4645 18.0538 16.5342 16.7345 16.5342H11.9566L11.4799 17.0175V19.8832L11.9566 20.36H16.7345C20.1654 20.3864 22.969 17.6263 22.9954 14.1954C23.0113 12.1115 21.9852 10.1624 20.2631 8.9976Z" fill="#4285F4"/>
<path d="M7.17198 20.3295H11.9499V16.5051H7.17198C6.83127 16.5051 6.49584 16.4312 6.1855 16.2899L5.51464 16.4985L3.58922 18.4107L3.42151 19.0816C4.50043 19.8977 5.81838 20.3361 7.17198 20.3295Z" fill="#34A853"/>
<path d="M7.17211 7.92393C3.7399 7.94373 0.975902 10.7421 0.995711 14.1743C1.0076 16.0904 1.90164 17.8944 3.42164 19.0618L6.19223 16.2912C4.9905 15.7484 4.45566 14.3327 4.99842 13.131C5.54118 11.9293 6.95685 11.3944 8.15859 11.9372C8.68815 12.1762 9.11206 12.6014 9.3524 13.131L12.123 10.3604C10.945 8.81796 9.11206 7.916 7.17211 7.92393Z" fill="#FBBC05"/>
</g>
<defs>
<clipPath id="clip0_2_1540">
<rect width="22" height="22" fill="white" transform="translate(1 1)"/>
</clipPath>
</defs>
</svg>
