<svg width="24" height="24" viewBox="0 0 24 24" fill="none" xmlns="http://www.w3.org/2000/svg">
<path d="M2.78933 2.00349H21.3783C21.5431 2.00349 21.7587 1.97712 21.8981 2.0694C22.0123 2.1485 21.9996 2.26715 21.9996 2.38581V6.57813C21.9996 6.69678 21.9869 6.81543 21.8981 6.89453C21.7967 7 21.6826 7 21.5431 7H19.7552C19.6031 7 19.4509 6.98682 19.3495 6.86817C19.2607 6.7627 19.2607 6.61768 19.2607 6.48585V4.83792H4.80546V6.5254C4.80546 6.65723 4.79278 6.78907 4.70402 6.89453C4.60258 7 4.47578 7 4.34898 7H2.47233C2.34553 7 2.21873 7 2.11729 6.89453C2.01585 6.78907 2.01585 6.67041 2.00317 6.5254V2.72857C2.00317 2.58356 1.99049 2.42536 2.01585 2.28034C2.04121 2.1485 2.15533 2.04304 2.28213 2.01667C2.45965 1.9903 2.62449 2.00349 2.78933 2.00349Z" fill="#006FD4"/>
<path d="M21.2107 21.9965L2.62174 21.9965C2.4569 21.9965 2.24134 22.0229 2.10186 21.9306C1.98774 21.8515 2.00042 21.7328 2.00042 21.6142L2.00042 17.4219C2.00042 17.3032 2.0131 17.1846 2.10186 17.1055C2.2033 17 2.31742 17 2.4569 17L4.24479 17C4.39695 17 4.54911 17.0132 4.65055 17.1318C4.73931 17.2373 4.73931 17.3823 4.73931 17.5142L4.73931 19.1621L19.1945 19.1621L19.1945 17.4746C19.1945 17.3428 19.2072 17.2109 19.296 17.1055C19.3974 17 19.5242 17 19.651 17L21.5277 17C21.6545 17 21.7813 17 21.8827 17.1055C21.9842 17.2109 21.9842 17.3296 21.9968 17.4746L21.9968 21.2714C21.9968 21.4164 22.0095 21.5746 21.9841 21.7197C21.9588 21.8515 21.8447 21.957 21.7179 21.9833C21.5403 22.0097 21.3755 21.9965 21.2107 21.9965Z" fill="#006FD4"/>
<path d="M6.50523 6.62695H8.89104C9.03862 6.62695 9.21079 6.63925 9.30918 6.76223C9.39526 6.86062 9.39526 6.9836 9.39526 7.10658V8.87749C9.39526 9.01277 9.39526 9.13575 9.29688 9.24643C9.19849 9.34481 9.06322 9.34482 8.92794 9.34482H6.75119C6.59131 9.34482 6.41914 9.35711 6.27157 9.32022C6.12399 9.25873 6.0625 9.12345 6.0625 8.96358V7.10658C6.0625 6.9713 6.0625 6.84832 6.14859 6.74993C6.24697 6.63925 6.38225 6.62695 6.50523 6.62695ZM11.2031 8.74221H13.6381C13.7611 8.74221 13.8717 8.74221 13.9701 8.8283C14.0685 8.91438 14.0808 9.02507 14.0808 9.14805V10.9682C14.0808 11.1157 14.0316 11.2387 13.8963 11.3125C13.7488 11.374 13.552 11.3494 13.3921 11.3494H11.2523C11.117 11.3494 10.994 11.3494 10.8956 11.251C10.7972 11.1526 10.7972 11.0173 10.7972 10.8944V9.20954C10.7972 9.07426 10.8095 8.95128 10.9079 8.85289C10.9817 8.75451 11.0801 8.75451 11.2031 8.74221ZM6.76349 10.7099H8.94024C9.06322 10.7099 9.1739 10.7222 9.25998 10.8083C9.35837 10.9067 9.35837 11.0419 9.35837 11.1649V12.8989C9.35837 13.0219 9.34607 13.1203 9.25998 13.2064C9.1616 13.3048 9.03862 13.3048 8.90334 13.3048H6.51753C6.39455 13.3048 6.28386 13.3048 6.18548 13.2187C6.0871 13.1326 6.0748 13.0219 6.0625 12.8989V11.1649C6.0625 11.0296 6.0625 10.8944 6.17318 10.796C6.30846 10.673 6.57902 10.7222 6.76349 10.7099ZM15.8517 10.7099H18.3236C18.4466 10.7099 18.5573 10.7222 18.6434 10.8083C18.7541 10.9067 18.7418 11.0419 18.7418 11.1772V12.9112C18.7418 13.0342 18.7295 13.1449 18.6311 13.231C18.5327 13.3294 18.4097 13.3294 18.2744 13.3294H16.1715C15.9993 13.3294 15.8148 13.3417 15.655 13.3048C15.5074 13.2433 15.4459 13.108 15.4459 12.9604V11.1895C15.4459 11.0542 15.4459 10.9436 15.5443 10.8329C15.6304 10.7345 15.741 10.7099 15.8517 10.7099ZM11.2031 12.7268H13.6381C13.7611 12.7268 13.8717 12.7268 13.9701 12.8129C14.0685 12.8989 14.0808 13.0219 14.0808 13.1449V14.965C14.0808 15.1003 14.0316 15.211 13.9209 15.2848C13.7734 15.3585 13.5643 15.3339 13.3921 15.3339H11.2523C11.117 15.3339 10.994 15.3339 10.8956 15.2356C10.7972 15.1372 10.7972 15.0142 10.7849 14.8789V13.1941C10.7849 13.0588 10.7849 12.9235 10.8833 12.8375C10.9694 12.7391 11.0801 12.7391 11.2031 12.7268ZM6.76349 14.6945H8.95253C9.07551 14.6945 9.1862 14.7067 9.27228 14.8051C9.35837 14.9035 9.35837 15.0142 9.35837 15.1372V16.8712C9.35837 16.9942 9.35837 17.1049 9.27228 17.2032C9.1862 17.3016 9.06322 17.3139 8.94024 17.3139H6.50523C6.36995 17.3139 6.23467 17.3139 6.14859 17.1909C6.0625 17.0803 6.0625 16.9573 6.0625 16.822V15.088C6.0625 14.9281 6.12399 14.7928 6.27157 14.7313C6.41914 14.6822 6.60361 14.7067 6.76349 14.6945Z" fill="#B8D432"/>
</svg>
