<svg width="24" height="24" viewBox="0 0 24 24" fill="none" xmlns="http://www.w3.org/2000/svg">
<path d="M9.98736 5.44077C10.7614 4.63526 11.839 4.13566 13.0308 4.13566C14.6151 4.13566 15.9973 5.018 16.7334 6.32786C17.373 6.04241 18.0811 5.88362 18.826 5.88362C21.6834 5.88362 24 8.21756 24 11.0964C24 13.9757 21.6834 16.3096 18.826 16.3096C18.4837 16.3098 18.1423 16.2758 17.8068 16.2082C17.1587 17.363 15.9234 18.1433 14.5057 18.1433C13.9121 18.1433 13.3508 18.0064 12.851 17.7629C12.1939 19.3066 10.6629 20.3891 8.87863 20.3891C7.02052 20.3891 5.43692 19.2148 4.82907 17.5679C4.56344 17.6242 4.28822 17.6536 4.00581 17.6536C1.79351 17.6536 0 15.8439 0 13.611C0 12.1147 0.805814 10.8082 2.00308 10.1093C1.75659 9.5428 1.61948 8.91756 1.61948 8.26022C1.61948 5.6924 3.70667 3.61084 6.28103 3.61084C7.79248 3.61084 9.13574 4.3286 9.98736 5.44077Z" fill="#00A1E0"/>
<path d="M3.47612 12.3116C3.46109 12.3509 3.4816 12.3591 3.48638 12.3659C3.5315 12.3987 3.57734 12.4223 3.62349 12.4485C3.86827 12.5783 4.0994 12.6162 4.34111 12.6162C4.83341 12.6162 5.13904 12.3546 5.13904 11.9336V11.9254C5.13904 11.5361 4.79411 11.3948 4.47034 11.2927L4.42829 11.279C4.18418 11.1998 3.97359 11.1315 3.97359 10.971V10.9625C3.97359 10.8252 4.09667 10.7241 4.28744 10.7241C4.4994 10.7241 4.75103 10.7945 4.91307 10.8839C4.91307 10.8839 4.96059 10.9147 4.97804 10.8686C4.9876 10.844 5.06966 10.6234 5.07822 10.5995C5.08744 10.5735 5.07103 10.5544 5.05429 10.5442C4.86933 10.4318 4.61359 10.355 4.34899 10.355L4.29976 10.3553C3.84917 10.3553 3.53465 10.6271 3.53465 11.0167V11.0249C3.53465 11.4357 3.88165 11.5689 4.20679 11.6618L4.25909 11.6778C4.49602 11.7506 4.70013 11.813 4.70013 11.9797V11.9879C4.70013 12.1402 4.56749 12.2535 4.35346 12.2535C4.27038 12.2535 4.00542 12.2518 3.71927 12.0712C3.68473 12.051 3.66457 12.0364 3.6379 12.0203C3.6239 12.0114 3.58868 11.996 3.5733 12.0425L3.47612 12.3116ZM10.6833 12.3116C10.6682 12.3509 10.6888 12.3591 10.6935 12.3659C10.7387 12.3987 10.7845 12.4223 10.8306 12.4485C11.0754 12.5783 11.3066 12.6162 11.5482 12.6162C12.0405 12.6162 12.3462 12.3546 12.3462 11.9336V11.9254C12.3462 11.5361 12.0012 11.3948 11.6775 11.2927L11.6354 11.279C11.3913 11.1998 11.1807 11.1315 11.1807 10.971V10.9625C11.1807 10.8252 11.3038 10.7241 11.4946 10.7241C11.7065 10.7241 11.9581 10.7945 12.1202 10.8839C12.1202 10.8839 12.1677 10.9147 12.1852 10.8686C12.1947 10.844 12.2768 10.6234 12.2853 10.5995C12.2946 10.5735 12.2781 10.5544 12.2614 10.5442C12.0764 10.4318 11.8207 10.355 11.5561 10.355L11.5069 10.3553C11.0563 10.3553 10.7417 10.6271 10.7417 11.0167V11.0249C10.7417 11.4357 11.0887 11.5689 11.4139 11.6618L11.4662 11.6778C11.7031 11.7506 11.9076 11.813 11.9076 11.9797V11.9879C11.9076 12.1402 11.7746 12.2535 11.5605 12.2535C11.4775 12.2535 11.2125 12.2518 10.9264 12.0712C10.8918 12.051 10.8713 12.037 10.8454 12.0203C10.8365 12.0145 10.7948 11.9984 10.7804 12.0425L10.6833 12.3116ZM15.6034 11.4869C15.6034 11.7249 15.559 11.9123 15.4715 12.0448C15.385 12.176 15.254 12.2398 15.0715 12.2398C14.8886 12.2398 14.7583 12.1763 14.6732 12.0448C14.587 11.9127 14.5433 11.7249 14.5433 11.4869C14.5433 11.2492 14.587 11.0621 14.6732 10.931C14.7583 10.8012 14.8886 10.7381 15.0715 10.7381C15.2541 10.7381 15.385 10.8012 15.4718 10.931C15.559 11.0621 15.6034 11.2492 15.6034 11.4869ZM16.0144 11.0457C15.974 10.9095 15.9111 10.7893 15.8274 10.6892C15.7436 10.5888 15.6376 10.5083 15.5118 10.4495C15.3863 10.3911 15.238 10.3614 15.0715 10.3614C14.9046 10.3614 14.7563 10.3911 14.6308 10.4495C14.505 10.5083 14.399 10.5889 14.3149 10.6892C14.2315 10.7896 14.1686 10.9098 14.1279 11.0457C14.0879 11.1813 14.0677 11.3295 14.0677 11.4869C14.0677 11.6443 14.0879 11.7929 14.1279 11.9281C14.1686 12.064 14.2312 12.1842 14.3153 12.2846C14.399 12.385 14.5053 12.4652 14.6308 12.5222C14.7566 12.5792 14.9046 12.6083 15.0715 12.6083C15.238 12.6083 15.386 12.5792 15.5118 12.5222C15.6373 12.4652 15.7436 12.3849 15.8274 12.2846C15.9112 12.1845 15.9741 12.0643 16.0144 11.9281C16.0548 11.7925 16.0749 11.644 16.0749 11.4869C16.0749 11.3298 16.0547 11.1813 16.0144 11.0457ZM19.389 12.1763C19.3753 12.1363 19.3367 12.1513 19.3367 12.1513C19.2769 12.1742 19.2132 12.1954 19.1456 12.206C19.0768 12.2165 19.0013 12.222 18.9202 12.222C18.7213 12.222 18.5633 12.163 18.4502 12.0462C18.3367 11.9294 18.2731 11.7406 18.2738 11.4851C18.2744 11.2526 18.3305 11.0778 18.4314 10.9446C18.5316 10.8121 18.684 10.7442 18.8874 10.7442C19.057 10.7442 19.1863 10.7636 19.3216 10.8063C19.3216 10.8063 19.3541 10.8203 19.3695 10.778C19.4054 10.6782 19.432 10.6069 19.4703 10.4973C19.4813 10.4662 19.4546 10.4529 19.445 10.4491C19.3917 10.4283 19.2659 10.3945 19.1708 10.3802C19.0819 10.3665 18.978 10.3593 18.8625 10.3593C18.6898 10.3593 18.536 10.3887 18.4043 10.4474C18.2731 10.5058 18.1616 10.5864 18.0734 10.6868C17.9852 10.7872 17.9182 10.9074 17.8734 11.0433C17.829 11.1788 17.8064 11.3277 17.8064 11.4851C17.8064 11.8256 17.8984 12.1008 18.0799 12.3023C18.2618 12.5044 18.535 12.6072 18.8912 12.6072C19.1018 12.6072 19.3179 12.5645 19.4731 12.5034C19.4731 12.5034 19.5028 12.489 19.4899 12.4546L19.389 12.1763ZM20.108 11.2589C20.1275 11.1268 20.1641 11.0168 20.2205 10.9311C20.3056 10.801 20.4355 10.7296 20.6181 10.7296C20.8007 10.7296 20.9213 10.8013 21.0078 10.9311C21.0653 11.0168 21.0902 11.1316 21.1002 11.2589H20.108ZM21.4916 10.9683C21.4567 10.8368 21.3702 10.704 21.3135 10.6432C21.2239 10.5469 21.1364 10.4797 21.0495 10.4421C20.936 10.3936 20.8 10.3615 20.6509 10.3615C20.4772 10.3615 20.3196 10.3905 20.1918 10.4506C20.0636 10.5107 19.9559 10.5927 19.8714 10.6948C19.787 10.7965 19.7234 10.9178 19.683 11.0554C19.6424 11.1923 19.6218 11.3415 19.6218 11.4989C19.6218 11.6591 19.6431 11.8083 19.6851 11.9425C19.7275 12.0777 19.7952 12.1969 19.8868 12.2955C19.9781 12.3949 20.0957 12.4728 20.2365 12.5271C20.3764 12.581 20.5463 12.609 20.7415 12.6087C21.1432 12.6073 21.3548 12.5178 21.442 12.4697C21.4574 12.4612 21.4721 12.4461 21.4536 12.4031L21.3627 12.1487C21.349 12.1108 21.3104 12.1248 21.3104 12.1248C21.2109 12.1617 21.0694 12.2279 20.7394 12.2273C20.5237 12.2269 20.3637 12.1634 20.2635 12.064C20.1606 11.9623 20.1104 11.8127 20.1015 11.6017L21.4926 11.6031C21.4926 11.6031 21.5292 11.6024 21.5329 11.5668C21.5343 11.5519 21.5808 11.2814 21.4916 10.9683ZM8.9672 11.2589C8.98702 11.1268 9.02327 11.0168 9.07968 10.9311C9.1648 10.801 9.29472 10.7296 9.47728 10.7296C9.65984 10.7296 9.78054 10.8013 9.86736 10.9311C9.92444 11.0168 9.9494 11.1316 9.95932 11.2589H8.9672ZM10.3504 10.9683C10.3156 10.8368 10.2294 10.704 10.1727 10.6432C10.0831 10.5469 9.99558 10.4797 9.90875 10.4421C9.79524 10.3936 9.65919 10.3615 9.51012 10.3615C9.33679 10.3615 9.17883 10.3905 9.05097 10.4506C8.92278 10.5107 8.81508 10.5927 8.73064 10.6948C8.64619 10.7965 8.5826 10.9178 8.54227 11.0554C8.50193 11.1923 8.48108 11.3415 8.48108 11.4989C8.48108 11.6591 8.50226 11.8083 8.54433 11.9425C8.58673 12.0777 8.65443 12.1969 8.74604 12.2955C8.83733 12.3949 8.95493 12.4728 9.09578 12.5271C9.23562 12.581 9.40552 12.609 9.60074 12.6087C10.0024 12.6073 10.2141 12.5178 10.3013 12.4697C10.3167 12.4612 10.3313 12.4461 10.3129 12.4031L10.2223 12.1487C10.2083 12.1108 10.1697 12.1248 10.1697 12.1248C10.0702 12.1617 9.92896 12.2279 9.59836 12.2273C9.38299 12.2269 9.22299 12.1634 9.12281 12.064C9.01989 11.9623 8.96965 11.8127 8.96074 11.6017L10.3519 11.6031C10.3519 11.6031 10.3884 11.6024 10.3922 11.5668C10.3935 11.5519 10.44 11.2814 10.3504 10.9683ZM5.96033 12.1687C5.90596 12.1253 5.89844 12.1144 5.87999 12.0864C5.85263 12.0437 5.83862 11.9829 5.83862 11.9057C5.83862 11.7835 5.87896 11.6957 5.96273 11.6366C5.96172 11.637 6.0824 11.5325 6.36614 11.5363C6.56545 11.539 6.74356 11.5684 6.74356 11.5684V12.2001C6.74356 12.2001 6.56715 12.238 6.36819 12.2499C6.08511 12.267 5.9593 12.1683 5.96033 12.1687ZM6.51382 11.1924C6.45741 11.1883 6.38423 11.1859 6.29671 11.1859C6.17741 11.1859 6.06219 11.2009 5.95416 11.23C5.84545 11.259 5.74767 11.3044 5.66356 11.3645C5.57958 11.4243 5.51056 11.5027 5.46186 11.5936C5.41263 11.6851 5.38767 11.793 5.38767 11.9139C5.38767 12.0368 5.40886 12.1437 5.45126 12.2311C5.49366 12.3189 5.55485 12.392 5.63279 12.4483C5.71005 12.5047 5.80545 12.546 5.9162 12.5709C6.02527 12.5958 6.14901 12.6084 6.28441 12.6084C6.42697 12.6084 6.56919 12.5969 6.70697 12.5733C6.84338 12.55 7.0109 12.5162 7.05739 12.5057C7.08999 12.4978 7.12247 12.4895 7.15483 12.4807C7.18938 12.4722 7.18664 12.4353 7.18664 12.4353L7.18594 11.1647C7.18594 10.8861 7.11142 10.6795 6.96475 10.5515C6.81876 10.4238 6.60372 10.3592 6.32578 10.3592C6.22149 10.3592 6.05364 10.3736 5.95312 10.3937C5.95312 10.3937 5.64919 10.4524 5.52405 10.5501C5.52405 10.5501 5.49671 10.5672 5.51175 10.6054L5.61023 10.8697C5.62253 10.9039 5.65571 10.8923 5.65571 10.8923C5.65571 10.8923 5.6663 10.8881 5.67862 10.881C5.94632 10.7355 6.28477 10.74 6.28477 10.74C6.43521 10.74 6.55077 10.77 6.6287 10.8297C6.70459 10.8878 6.74323 10.9755 6.74323 11.1606V11.2194C6.62356 11.2023 6.51382 11.1924 6.51382 11.1924ZM17.7337 10.4765C17.7443 10.4451 17.7221 10.43 17.7129 10.4266C17.6893 10.4174 17.571 10.3925 17.4797 10.3867C17.305 10.3761 17.208 10.4055 17.1211 10.4444C17.0349 10.4833 16.9392 10.5461 16.8859 10.6175V10.4485C16.8859 10.4249 16.8691 10.4061 16.8459 10.4061H16.4893C16.466 10.4061 16.4493 10.4249 16.4493 10.4485V12.5208C16.4493 12.5441 16.4684 12.5632 16.4917 12.5632H16.8572C16.8683 12.5631 16.8791 12.5586 16.8869 12.5507C16.8948 12.5428 16.8992 12.532 16.8992 12.5208V11.4855C16.8992 11.3465 16.9146 11.2079 16.9454 11.1209C16.9754 11.0348 17.0165 10.9658 17.0671 10.9163C17.118 10.8671 17.1758 10.8326 17.239 10.8132C17.3036 10.7934 17.3751 10.7869 17.4257 10.7869C17.4985 10.7869 17.5785 10.8057 17.5785 10.8057C17.6052 10.8087 17.6202 10.7923 17.6291 10.7681C17.653 10.7046 17.7207 10.5144 17.7337 10.4765Z" fill="white"/>
<path d="M14.3034 9.51612C14.2589 9.50247 14.2186 9.49323 14.1659 9.48334C14.1126 9.47379 14.049 9.46899 13.9769 9.46899C13.7252 9.46899 13.5269 9.54002 13.3878 9.68001C13.2493 9.81934 13.1553 10.0314 13.1081 10.3104L13.091 10.4043H12.7751C12.7751 10.4043 12.7368 10.4029 12.7286 10.4446L12.677 10.7338C12.6732 10.7611 12.6852 10.7785 12.7221 10.7785H13.0295L12.7177 12.5173C12.6934 12.6573 12.6654 12.7724 12.6343 12.8598C12.6038 12.9458 12.5741 13.0103 12.5372 13.0575C12.5016 13.1026 12.4681 13.136 12.41 13.1555C12.3621 13.1715 12.3067 13.179 12.2462 13.179C12.2127 13.179 12.1679 13.1735 12.1348 13.1667C12.102 13.1602 12.0845 13.1531 12.0596 13.1425C12.0596 13.1425 12.0237 13.1288 12.0093 13.1647C11.998 13.1944 11.916 13.4194 11.906 13.4471C11.8965 13.4747 11.9101 13.4962 11.9276 13.5027C11.9686 13.5171 11.999 13.5266 12.0547 13.5399C12.132 13.5581 12.1973 13.5591 12.2585 13.5591C12.3864 13.5591 12.5033 13.541 12.6 13.5062C12.6972 13.471 12.7819 13.4098 12.8571 13.3272C12.9382 13.2377 12.9891 13.1442 13.0377 13.0161C13.0859 12.8898 13.1273 12.7327 13.16 12.5497L13.4736 10.7785H13.9317C13.9317 10.7785 13.9703 10.7799 13.9782 10.7379L14.0301 10.449C14.0336 10.4214 14.0219 10.4043 13.9846 10.4043H13.5399C13.5423 10.3944 13.5624 10.238 13.6134 10.0908C13.6353 10.0284 13.6763 9.97747 13.7108 9.94263C13.745 9.90849 13.7843 9.88425 13.8274 9.87024C13.8715 9.85589 13.9218 9.84907 13.9768 9.84907C14.0185 9.84907 14.0599 9.85385 14.091 9.86033C14.1341 9.86957 14.1508 9.87434 14.1621 9.87777C14.2076 9.89143 14.2137 9.87811 14.2227 9.85627L14.329 9.56466C14.3399 9.53318 14.3129 9.51986 14.3034 9.51612ZM8.08881 12.521C8.08881 12.5443 8.07207 12.5631 8.04881 12.5631H7.67992C7.65667 12.5631 7.64026 12.5443 7.64026 12.521V9.55574C7.64026 9.53253 7.65667 9.51374 7.67992 9.51374H8.04881C8.07207 9.51374 8.08881 9.53253 8.08881 9.55574V12.521Z" fill="white"/>
</svg>
