<svg width="24" height="24" viewBox="0 0 24 24" fill="none" xmlns="http://www.w3.org/2000/svg">
<path d="M21 11.2386C21 17.2003 13.9286 21.866 12.3857 22.9028C12.2571 23.0324 12 23.0324 11.7429 22.9028C10.2 21.9956 3 17.2003 3 11.2386V4.11046C3 3.85125 3.25714 3.59205 3.51429 3.59205C9.04286 3.46244 7.88571 1 12 1C16.1143 1 14.8286 3.46244 20.3571 3.59205C20.6143 3.59205 20.8714 3.85125 20.8714 4.11046L21 11.2386Z" fill="#1B93EB"/>
<path d="M20.2284 11.2386C20.2284 16.6819 13.6712 21.0884 12.257 21.866C12.1284 21.9956 11.8712 21.9956 11.7427 21.866C10.3284 20.9588 3.77124 16.5523 3.77124 11.2386V4.75847C3.77124 4.49927 3.89981 4.24006 4.15695 4.11046C9.17124 3.98086 8.0141 1.77762 11.8712 1.77762C15.7284 1.77762 14.5712 4.11046 19.5855 4.11046C19.8427 4.11046 20.0998 4.36967 20.0998 4.62887L20.2284 11.2386Z" fill="url(#paint0_linear_102_2)"/>
<path d="M11.9998 8.77614C13.7998 8.77614 15.3427 10.2018 15.5998 12.0162C15.5998 12.2754 15.9855 12.5346 16.2427 12.5346H18.0427C18.4284 12.5346 18.6855 12.2754 18.6855 11.8866C18.6855 11.8866 18.6855 11.8866 18.6855 11.757C18.2998 7.99852 14.957 5.27687 11.2284 5.66568C8.01412 6.05449 5.57126 8.51693 5.18555 11.757C5.18555 12.1458 5.44269 12.405 5.69983 12.405C5.69983 12.405 5.69983 12.405 5.8284 12.405H7.6284C7.88555 12.405 8.14269 12.1458 8.27126 11.8866C8.65697 10.0722 10.1998 8.77614 11.9998 8.77614Z" fill="#C3F1FF"/>
<path d="M11.9997 14.8674C13.3489 14.8674 14.4426 13.765 14.4426 12.405C14.4426 11.045 13.3489 9.94255 11.9997 9.94255C10.6506 9.94255 9.55688 11.045 9.55688 12.405C9.55688 13.765 10.6506 14.8674 11.9997 14.8674Z" fill="white"/>
<defs>
<linearGradient id="paint0_linear_102_2" x1="12.0165" y1="21.2646" x2="12.0165" y2="1.05962" gradientUnits="userSpaceOnUse">
<stop stop-color="#1B93EB"/>
<stop offset="0.21" stop-color="#2095EB"/>
<stop offset="0.44" stop-color="#2E9CED"/>
<stop offset="0.69" stop-color="#45A7EF"/>
<stop offset="0.95" stop-color="#64B6F1"/>
<stop offset="1" stop-color="#6BB9F2"/>
</linearGradient>
</defs>
</svg>
