<?xml version="1.0" encoding="UTF-8"?>
<!DOCTYPE svg PUBLIC "-//W3C//DTD SVG 1.1//EN" "http://www.w3.org/Graphics/SVG/1.1/DTD/svg11.dtd">
<svg xmlns="http://www.w3.org/2000/svg" xmlns:xlink="http://www.w3.org/1999/xlink" version="1.1" width="441px"
    height="141px" viewBox="-0.5 -0.5 441 141">
    <defs>
        <linearGradient x1="0%" y1="0%" x2="0%" y2="100%" id="mx-gradient-f40c0c-1-610603-1-s-0">
            <stop offset="0%" style="stop-color: rgb(244, 12, 12); stop-opacity: 1;" />
            <stop offset="100%" style="stop-color: rgb(97, 6, 3); stop-opacity: 1;" />
        </linearGradient>
    </defs>
    <g>
        <rect x="0" y="0" width="120" height="140" rx="18" ry="18" fill="rgb(255, 255, 255)" stroke="rgb(0, 0, 0)"
            pointer-events="all" />
        <rect x="320" y="0" width="120" height="60" rx="9" ry="9" fill="rgb(255, 255, 255)" stroke="rgb(0, 0, 0)"
            pointer-events="all" />
        <path d="M 120 70 L 320 30" fill="none" stroke="rgb(0, 0, 0)" stroke-miterlimit="10" pointer-events="stroke" />
        <path
            d="M 21 122.4 C 14.92 122.4 10 117.44 10 111.33 L 10 31.07 C 10 24.96 14.92 20 21 20 L 101.4 20 C 104.32 20 107.12 21.17 109.18 23.24 C 111.24 25.32 112.4 28.13 112.4 31.07 L 112.4 111.33 C 112.4 114.27 111.24 117.08 109.18 119.16 C 107.12 121.23 104.32 122.4 101.4 122.4 Z"
            fill="url(#mx-gradient-f40c0c-1-610603-1-s-0)" stroke="none" pointer-events="all" />
        <path
            d="M 80.17 79.5 C 84.53 81.03 85.99 82.73 94.25 84.05 C 95.37 84.17 96.57 83.91 97.33 82.77 C 97.57 81.86 97.23 81.36 96.71 80.98 C 95.51 80.07 93.81 79.22 91.55 79.12 C 86.42 78.94 83.24 79.21 80.17 79.5 Z M 49.39 84.93 C 57.59 81.71 64.98 79.78 72.05 78.33 C 66.18 74.5 62.55 69.42 59.73 63.89 C 56.28 72.45 52.84 79.28 49.39 84.93 Z M 43.21 87.81 C 38.63 91.9 35.41 94.8 32.83 98.64 C 32.26 99.49 30.95 101.14 31.33 102.31 C 32.12 102.46 33.46 102.04 36.23 99.4 C 44.39 89.41 52 75.37 58.35 60.41 C 57.33 56.61 56.31 52.83 55.53 47.37 C 55.19 44.02 54.99 40.89 55.5 38.78 C 55.8 37.88 56.67 36.62 57.84 36.41 C 58.66 36.32 60.35 36.19 61.55 36.6 C 64.58 39.17 63.41 42.59 63.02 44.46 C 62.93 42.47 62.8 40.82 61.65 38.8 C 60.41 36.75 60.24 36.59 59.64 36.53 C 58.94 36.59 58.56 38.15 58.31 40.32 C 57.97 43.96 59.23 50.67 60.4 55.1 C 61.23 52.32 62.03 49.4 62.63 45.6 C 62.78 48.95 62.91 52.19 61.39 58.69 C 64.83 67.93 69.73 73.9 76.36 77.43 C 81.8 76.94 88.22 76.24 92.42 76.93 C 95.99 77.59 97.25 78.87 97.58 80.01 C 97.93 82.39 97.36 83.96 97.05 84.57 C 96.48 85.58 94.74 86.25 93.36 86.2 C 86.53 85.74 79.34 82.72 74.99 80.12 C 62.62 82.14 56.48 83.91 48.79 86.3 C 45.26 92.29 41.72 98.06 38.19 101.5 C 36.25 103.13 34.22 104.44 31.48 103.66 L 29.04 102.29 C 28.45 100.8 29.21 99.17 29.79 97.97 C 31.48 94.76 38.83 89.6 43.21 87.81 Z"
            fill="#ffffff" stroke="none" pointer-events="all" />
        <path
            d="M 10 31.07 C 10 24.96 14.92 20 21 20 L 101.4 20 C 104.32 20 107.12 21.17 109.18 23.24 C 111.24 25.32 112.4 28.13 112.4 31.07 L 112.4 58.05 C 80.08 73.92 42.32 73.92 10 58.05 Z"
            fill-opacity="0.2" fill="#ffffff" stroke="none" pointer-events="all" />
    </g>
</svg>