<?xml version="1.0" encoding="UTF-8"?>
<svg width="3600pt" height="3600pt" version="1.1" viewBox="0 0 3600 3600" xmlns="http://www.w3.org/2000/svg">
 <g>
  <path d="m2702.4 2470.5c-207.11 0-379.59 149.69-415.77 346.5h-2124.6v153.07h2124.6c36.18 196.81 208.66 346.5 415.77 346.5 207.11 0 379.59-149.69 415.77-346.5h319.82v-153.07h-319.86c-36.18-196.81-208.66-346.5-415.77-346.5zm0 693c-148.86 0-269.96-121.11-269.96-269.96s121.11-269.96 269.96-269.96 269.96 121.11 269.96 269.96-121.11 269.96-269.96 269.96z"/>
  <path d="m1143 1377c-207.11 0-379.59 149.69-415.77 346.5h-565.23v153.07h565.23c36.18 196.81 208.66 346.5 415.77 346.5s379.59-149.69 415.77-346.5h1879.2v-153.07h-1879.2c-36.18-196.81-208.66-346.5-415.77-346.5zm0 693c-148.86 0-269.96-121.11-269.96-269.96s121.11-269.96 269.96-269.96 269.96 121.11 269.96 269.96-121.11 269.96-269.96 269.96z"/>
  <path d="m2708.7 629.96c-36.18-196.81-208.66-346.5-415.77-346.5-207.11 0-379.59 149.69-415.77 346.5h-1715.2v153.07h1715.2c36.18 196.81 208.66 346.5 415.77 346.5s379.59-149.69 415.77-346.5h729.25v-153.07zm-415.76 346.5c-148.86 0-269.96-121.11-269.96-269.96s121.11-269.96 269.96-269.96 269.96 121.11 269.96 269.96c-0.003906 148.86-121.11 269.96-269.96 269.96z"/>
 </g>
</svg>
