<svg version="1.2" xmlns="http://www.w3.org/2000/svg" viewBox="0 0 6675 639" width="200" height="29"><style>.a{fill:#e21339}</style><path class="a" d="m234 638.6q-66.8 0-119.6-22.9-52-22.9-81.9-66.9-29.9-44-31.7-106.5h125.9q0.9 27.3 14.1 49.3 13.2 22 36.9 35.2 23.8 12.3 56.3 12.3 27.3 0 47.6-8.8 21.1-9.7 32.5-26.4 12.3-16.7 12.3-39.6 0-27.3-14-44.9-13.2-18.4-36.1-29.9-22.9-12.3-52.8-22-29.1-10.5-61.6-21.1-71.3-24.6-109.1-63.4-37.9-39.6-37.9-104.7 0-55.4 26.4-95 26.4-39.6 73.9-60.7 47.6-21.2 108.3-21.2 62.5 0 110 22 47.5 21.2 74.8 61.6 27.3 40.5 29 95.1h-127.6q-0.9-20.3-11.4-37.9-10.6-18.4-29.9-29-19.4-11.4-46.7-11.4-22.9-0.9-41.3 7-18.5 7.9-30 23.8-10.5 14.9-10.5 37.8 0 22 10.5 37 10.6 14.9 30 26.4 19.3 10.5 45.7 20.2 26.4 8.8 57.2 18.5 46.7 15.8 84.5 37.8 38.7 21.1 61.6 55.5 22.9 34.3 22.9 90.6 0 48.4-25.5 89.8-24.7 41.3-73.1 66.8-48.4 25.6-119.7 25.6zm695.2-10.6h-117.9v-520.1h-180.4v-95.9h478.7v95.9h-180.4zm498 0h-118.8v-616h230.6q73.9 0 122.3 25.5 49.3 25.6 73.1 68.7 23.7 42.2 23.7 94.1 0 49.3-23.7 92.4-22.9 42.3-72.2 68.7-48.4 25.5-125 25.5h-110zm336.2 0h-135.5l-126.7-271h128.4zm-336.1-516.6v189.2h103.8q54.6 0 80.1-26.4 25.5-26.4 25.5-69.5 0-43.1-25.5-67.8-25.5-25.5-80.1-25.5zm956.5 516.6h-405.6v-616h405.6v95.9h-286.8v161h260.4v92.4h-260.4v170.7h286.8zm306.2 0h-124l224.4-616h134.6l225.3 616h-125.9l-167.2-480.4zm351.2-140h-375.8l30.8-92.4h314.2zm422.3 140h-118.8v-616h141.7l191.8 383.6 189.2-383.6h141.7v616h-118.8v-414.5l-166.3 326.5h-94.2l-166.3-327.4zm1153.7 0h-393.4v-58.1l303.6-493.7h-299.2v-64.2h385.4v58.1l-304.4 493.7h308zm601.8 0h-381v-616h381v60.7h-307.1v214.7h280.7v59.8h-280.7v220h307.1zm306.2 0h-73.9v-616h198.9q72.2 0 117.9 24.7 45.8 23.7 67.8 64.2 22 40.5 22 91.5 0 49.3-22.9 90.7-22 41.3-68.6 66-46.7 24.6-119.7 24.6h-121.5zm338.8 0h-87.1l-135.5-275.4h82.7zm-338.8-553.5v241.1h119.7q70.4 0 103-34.3 33.4-34.4 33.4-88 0-54.6-32.6-86.3-31.6-32.5-104.7-32.5zm844.8 564q-90.7 0-159.3-39.6-67.8-40.4-106.5-111.7-37.8-72.2-37.8-167.2 0-94.2 37.8-165.5 38.7-72.1 106.5-112.6 68.6-40.5 159.3-40.5 91.5 0 159.3 40.5 68.6 40.5 106.4 112.6 37.9 71.3 37.9 165.5 0 95-37.9 167.2-37.8 71.3-106.4 111.7-67.8 39.6-159.3 39.6zm0-65.1q67.7 0 118.8-29.9 51.9-30.8 80.1-87.1 29-57.2 29-136.4 0-79.2-29-135.5-28.2-57.2-80.1-87.2-51.1-29.9-118.8-29.9-67.8 0-119.7 29.9-51 30-80.1 87.2-28.1 56.3-28.1 135.5 0 79.2 28.1 136.4 29.1 56.3 80.1 87.1 51.9 29.9 119.7 29.9z"/></svg>